%TF.GenerationSoftware,KiCad,Pcbnew,5.1.6-c6e7f7d~86~ubuntu18.04.1*%
%TF.CreationDate,2020-07-11T09:23:51+02:00*%
%TF.ProjectId,chickenDoor,63686963-6b65-46e4-946f-6f722e6b6963,rev?*%
%TF.SameCoordinates,Original*%
%TF.FileFunction,Legend,Bot*%
%TF.FilePolarity,Positive*%
%FSLAX46Y46*%
G04 Gerber Fmt 4.6, Leading zero omitted, Abs format (unit mm)*
G04 Created by KiCad (PCBNEW 5.1.6-c6e7f7d~86~ubuntu18.04.1) date 2020-07-11 09:23:51*
%MOMM*%
%LPD*%
G01*
G04 APERTURE LIST*
%ADD10C,0.200000*%
%ADD11C,0.120000*%
%ADD12C,0.150000*%
G04 APERTURE END LIST*
D10*
X128924285Y-68886666D02*
X128448095Y-68886666D01*
X129019523Y-69172380D02*
X128686190Y-68172380D01*
X128352857Y-69172380D01*
X127590952Y-69172380D02*
X127590952Y-68172380D01*
X127590952Y-69124761D02*
X127686190Y-69172380D01*
X127876666Y-69172380D01*
X127971904Y-69124761D01*
X128019523Y-69077142D01*
X128067142Y-68981904D01*
X128067142Y-68696190D01*
X128019523Y-68600952D01*
X127971904Y-68553333D01*
X127876666Y-68505714D01*
X127686190Y-68505714D01*
X127590952Y-68553333D01*
X127114761Y-69172380D02*
X127114761Y-68505714D01*
X127114761Y-68696190D02*
X127067142Y-68600952D01*
X127019523Y-68553333D01*
X126924285Y-68505714D01*
X126829047Y-68505714D01*
X126495714Y-69172380D02*
X126495714Y-68505714D01*
X126495714Y-68172380D02*
X126543333Y-68220000D01*
X126495714Y-68267619D01*
X126448095Y-68220000D01*
X126495714Y-68172380D01*
X126495714Y-68267619D01*
X125590952Y-69172380D02*
X125590952Y-68648571D01*
X125638571Y-68553333D01*
X125733809Y-68505714D01*
X125924285Y-68505714D01*
X126019523Y-68553333D01*
X125590952Y-69124761D02*
X125686190Y-69172380D01*
X125924285Y-69172380D01*
X126019523Y-69124761D01*
X126067142Y-69029523D01*
X126067142Y-68934285D01*
X126019523Y-68839047D01*
X125924285Y-68791428D01*
X125686190Y-68791428D01*
X125590952Y-68743809D01*
X125114761Y-68505714D02*
X125114761Y-69172380D01*
X125114761Y-68600952D02*
X125067142Y-68553333D01*
X124971904Y-68505714D01*
X124829047Y-68505714D01*
X124733809Y-68553333D01*
X124686190Y-68648571D01*
X124686190Y-69172380D01*
X123543333Y-68172380D02*
X123305238Y-69172380D01*
X123114761Y-68458095D01*
X122924285Y-69172380D01*
X122686190Y-68172380D01*
X121924285Y-69124761D02*
X122019523Y-69172380D01*
X122210000Y-69172380D01*
X122305238Y-69124761D01*
X122352857Y-69029523D01*
X122352857Y-68648571D01*
X122305238Y-68553333D01*
X122210000Y-68505714D01*
X122019523Y-68505714D01*
X121924285Y-68553333D01*
X121876666Y-68648571D01*
X121876666Y-68743809D01*
X122352857Y-68839047D01*
X121448095Y-69172380D02*
X121448095Y-68172380D01*
X121448095Y-68553333D02*
X121352857Y-68505714D01*
X121162380Y-68505714D01*
X121067142Y-68553333D01*
X121019523Y-68600952D01*
X120971904Y-68696190D01*
X120971904Y-68981904D01*
X121019523Y-69077142D01*
X121067142Y-69124761D01*
X121162380Y-69172380D01*
X121352857Y-69172380D01*
X121448095Y-69124761D01*
X120162380Y-69124761D02*
X120257619Y-69172380D01*
X120448095Y-69172380D01*
X120543333Y-69124761D01*
X120590952Y-69029523D01*
X120590952Y-68648571D01*
X120543333Y-68553333D01*
X120448095Y-68505714D01*
X120257619Y-68505714D01*
X120162380Y-68553333D01*
X120114761Y-68648571D01*
X120114761Y-68743809D01*
X120590952Y-68839047D01*
X119686190Y-69172380D02*
X119686190Y-68505714D01*
X119686190Y-68696190D02*
X119638571Y-68600952D01*
X119590952Y-68553333D01*
X119495714Y-68505714D01*
X119400476Y-68505714D01*
X130900476Y-70777142D02*
X130948095Y-70824761D01*
X131090952Y-70872380D01*
X131186190Y-70872380D01*
X131329047Y-70824761D01*
X131424285Y-70729523D01*
X131471904Y-70634285D01*
X131519523Y-70443809D01*
X131519523Y-70300952D01*
X131471904Y-70110476D01*
X131424285Y-70015238D01*
X131329047Y-69920000D01*
X131186190Y-69872380D01*
X131090952Y-69872380D01*
X130948095Y-69920000D01*
X130900476Y-69967619D01*
X130471904Y-70872380D02*
X130471904Y-69872380D01*
X130043333Y-70872380D02*
X130043333Y-70348571D01*
X130090952Y-70253333D01*
X130186190Y-70205714D01*
X130329047Y-70205714D01*
X130424285Y-70253333D01*
X130471904Y-70300952D01*
X129567142Y-70872380D02*
X129567142Y-70205714D01*
X129567142Y-69872380D02*
X129614761Y-69920000D01*
X129567142Y-69967619D01*
X129519523Y-69920000D01*
X129567142Y-69872380D01*
X129567142Y-69967619D01*
X128662380Y-70824761D02*
X128757619Y-70872380D01*
X128948095Y-70872380D01*
X129043333Y-70824761D01*
X129090952Y-70777142D01*
X129138571Y-70681904D01*
X129138571Y-70396190D01*
X129090952Y-70300952D01*
X129043333Y-70253333D01*
X128948095Y-70205714D01*
X128757619Y-70205714D01*
X128662380Y-70253333D01*
X128233809Y-70872380D02*
X128233809Y-69872380D01*
X128138571Y-70491428D02*
X127852857Y-70872380D01*
X127852857Y-70205714D02*
X128233809Y-70586666D01*
X127043333Y-70824761D02*
X127138571Y-70872380D01*
X127329047Y-70872380D01*
X127424285Y-70824761D01*
X127471904Y-70729523D01*
X127471904Y-70348571D01*
X127424285Y-70253333D01*
X127329047Y-70205714D01*
X127138571Y-70205714D01*
X127043333Y-70253333D01*
X126995714Y-70348571D01*
X126995714Y-70443809D01*
X127471904Y-70539047D01*
X126567142Y-70205714D02*
X126567142Y-70872380D01*
X126567142Y-70300952D02*
X126519523Y-70253333D01*
X126424285Y-70205714D01*
X126281428Y-70205714D01*
X126186190Y-70253333D01*
X126138571Y-70348571D01*
X126138571Y-70872380D01*
X125662380Y-70872380D02*
X125662380Y-69872380D01*
X125424285Y-69872380D01*
X125281428Y-69920000D01*
X125186190Y-70015238D01*
X125138571Y-70110476D01*
X125090952Y-70300952D01*
X125090952Y-70443809D01*
X125138571Y-70634285D01*
X125186190Y-70729523D01*
X125281428Y-70824761D01*
X125424285Y-70872380D01*
X125662380Y-70872380D01*
X124519523Y-70872380D02*
X124614761Y-70824761D01*
X124662380Y-70777142D01*
X124710000Y-70681904D01*
X124710000Y-70396190D01*
X124662380Y-70300952D01*
X124614761Y-70253333D01*
X124519523Y-70205714D01*
X124376666Y-70205714D01*
X124281428Y-70253333D01*
X124233809Y-70300952D01*
X124186190Y-70396190D01*
X124186190Y-70681904D01*
X124233809Y-70777142D01*
X124281428Y-70824761D01*
X124376666Y-70872380D01*
X124519523Y-70872380D01*
X123614761Y-70872380D02*
X123710000Y-70824761D01*
X123757619Y-70777142D01*
X123805238Y-70681904D01*
X123805238Y-70396190D01*
X123757619Y-70300952D01*
X123710000Y-70253333D01*
X123614761Y-70205714D01*
X123471904Y-70205714D01*
X123376666Y-70253333D01*
X123329047Y-70300952D01*
X123281428Y-70396190D01*
X123281428Y-70681904D01*
X123329047Y-70777142D01*
X123376666Y-70824761D01*
X123471904Y-70872380D01*
X123614761Y-70872380D01*
X122852857Y-70872380D02*
X122852857Y-70205714D01*
X122852857Y-70396190D02*
X122805238Y-70300952D01*
X122757619Y-70253333D01*
X122662380Y-70205714D01*
X122567142Y-70205714D01*
X120900476Y-70872380D02*
X121233809Y-70396190D01*
X121471904Y-70872380D02*
X121471904Y-69872380D01*
X121090952Y-69872380D01*
X120995714Y-69920000D01*
X120948095Y-69967619D01*
X120900476Y-70062857D01*
X120900476Y-70205714D01*
X120948095Y-70300952D01*
X120995714Y-70348571D01*
X121090952Y-70396190D01*
X121471904Y-70396190D01*
X120090952Y-70824761D02*
X120186190Y-70872380D01*
X120376666Y-70872380D01*
X120471904Y-70824761D01*
X120519523Y-70729523D01*
X120519523Y-70348571D01*
X120471904Y-70253333D01*
X120376666Y-70205714D01*
X120186190Y-70205714D01*
X120090952Y-70253333D01*
X120043333Y-70348571D01*
X120043333Y-70443809D01*
X120519523Y-70539047D01*
X119710000Y-70205714D02*
X119471904Y-70872380D01*
X119233809Y-70205714D01*
X118329047Y-70872380D02*
X118900476Y-70872380D01*
X118614761Y-70872380D02*
X118614761Y-69872380D01*
X118710000Y-70015238D01*
X118805238Y-70110476D01*
X118900476Y-70158095D01*
X117900476Y-70777142D02*
X117852857Y-70824761D01*
X117900476Y-70872380D01*
X117948095Y-70824761D01*
X117900476Y-70777142D01*
X117900476Y-70872380D01*
X117233809Y-69872380D02*
X117138571Y-69872380D01*
X117043333Y-69920000D01*
X116995714Y-69967619D01*
X116948095Y-70062857D01*
X116900476Y-70253333D01*
X116900476Y-70491428D01*
X116948095Y-70681904D01*
X116995714Y-70777142D01*
X117043333Y-70824761D01*
X117138571Y-70872380D01*
X117233809Y-70872380D01*
X117329047Y-70824761D01*
X117376666Y-70777142D01*
X117424285Y-70681904D01*
X117471904Y-70491428D01*
X117471904Y-70253333D01*
X117424285Y-70062857D01*
X117376666Y-69967619D01*
X117329047Y-69920000D01*
X117233809Y-69872380D01*
D11*
%TO.C,C1*%
X118618922Y-59860000D02*
X119136078Y-59860000D01*
X118618922Y-61280000D02*
X119136078Y-61280000D01*
%TO.C,C2*%
X132521078Y-61540000D02*
X132003922Y-61540000D01*
X132521078Y-62960000D02*
X132003922Y-62960000D01*
%TO.C,R3*%
X112543922Y-91280000D02*
X113061078Y-91280000D01*
X112543922Y-92700000D02*
X113061078Y-92700000D01*
%TO.C,R4*%
X136176078Y-91060000D02*
X135658922Y-91060000D01*
X136176078Y-89640000D02*
X135658922Y-89640000D01*
%TO.C,R5*%
X135711422Y-93570000D02*
X136228578Y-93570000D01*
X135711422Y-92150000D02*
X136228578Y-92150000D01*
%TO.C,R6*%
X112560000Y-97261078D02*
X112560000Y-96743922D01*
X113980000Y-97261078D02*
X113980000Y-96743922D01*
%TO.C,R7*%
X135763922Y-94740000D02*
X136281078Y-94740000D01*
X135763922Y-96160000D02*
X136281078Y-96160000D01*
%TO.C,C1*%
D12*
X119044166Y-62577142D02*
X119091785Y-62624761D01*
X119234642Y-62672380D01*
X119329880Y-62672380D01*
X119472738Y-62624761D01*
X119567976Y-62529523D01*
X119615595Y-62434285D01*
X119663214Y-62243809D01*
X119663214Y-62100952D01*
X119615595Y-61910476D01*
X119567976Y-61815238D01*
X119472738Y-61720000D01*
X119329880Y-61672380D01*
X119234642Y-61672380D01*
X119091785Y-61720000D01*
X119044166Y-61767619D01*
X118091785Y-62672380D02*
X118663214Y-62672380D01*
X118377500Y-62672380D02*
X118377500Y-61672380D01*
X118472738Y-61815238D01*
X118567976Y-61910476D01*
X118663214Y-61958095D01*
%TO.C,C2*%
X132429166Y-60957142D02*
X132476785Y-61004761D01*
X132619642Y-61052380D01*
X132714880Y-61052380D01*
X132857738Y-61004761D01*
X132952976Y-60909523D01*
X133000595Y-60814285D01*
X133048214Y-60623809D01*
X133048214Y-60480952D01*
X133000595Y-60290476D01*
X132952976Y-60195238D01*
X132857738Y-60100000D01*
X132714880Y-60052380D01*
X132619642Y-60052380D01*
X132476785Y-60100000D01*
X132429166Y-60147619D01*
X132048214Y-60147619D02*
X132000595Y-60100000D01*
X131905357Y-60052380D01*
X131667261Y-60052380D01*
X131572023Y-60100000D01*
X131524404Y-60147619D01*
X131476785Y-60242857D01*
X131476785Y-60338095D01*
X131524404Y-60480952D01*
X132095833Y-61052380D01*
X131476785Y-61052380D01*
%TO.C,R3*%
X112969166Y-94092380D02*
X113302500Y-93616190D01*
X113540595Y-94092380D02*
X113540595Y-93092380D01*
X113159642Y-93092380D01*
X113064404Y-93140000D01*
X113016785Y-93187619D01*
X112969166Y-93282857D01*
X112969166Y-93425714D01*
X113016785Y-93520952D01*
X113064404Y-93568571D01*
X113159642Y-93616190D01*
X113540595Y-93616190D01*
X112635833Y-93092380D02*
X112016785Y-93092380D01*
X112350119Y-93473333D01*
X112207261Y-93473333D01*
X112112023Y-93520952D01*
X112064404Y-93568571D01*
X112016785Y-93663809D01*
X112016785Y-93901904D01*
X112064404Y-93997142D01*
X112112023Y-94044761D01*
X112207261Y-94092380D01*
X112492976Y-94092380D01*
X112588214Y-94044761D01*
X112635833Y-93997142D01*
%TO.C,R4*%
X138802380Y-90263333D02*
X138326190Y-89930000D01*
X138802380Y-89691904D02*
X137802380Y-89691904D01*
X137802380Y-90072857D01*
X137850000Y-90168095D01*
X137897619Y-90215714D01*
X137992857Y-90263333D01*
X138135714Y-90263333D01*
X138230952Y-90215714D01*
X138278571Y-90168095D01*
X138326190Y-90072857D01*
X138326190Y-89691904D01*
X138135714Y-91120476D02*
X138802380Y-91120476D01*
X137754761Y-90882380D02*
X138469047Y-90644285D01*
X138469047Y-91263333D01*
%TO.C,R5*%
X138822380Y-92733333D02*
X138346190Y-92400000D01*
X138822380Y-92161904D02*
X137822380Y-92161904D01*
X137822380Y-92542857D01*
X137870000Y-92638095D01*
X137917619Y-92685714D01*
X138012857Y-92733333D01*
X138155714Y-92733333D01*
X138250952Y-92685714D01*
X138298571Y-92638095D01*
X138346190Y-92542857D01*
X138346190Y-92161904D01*
X137822380Y-93638095D02*
X137822380Y-93161904D01*
X138298571Y-93114285D01*
X138250952Y-93161904D01*
X138203333Y-93257142D01*
X138203333Y-93495238D01*
X138250952Y-93590476D01*
X138298571Y-93638095D01*
X138393809Y-93685714D01*
X138631904Y-93685714D01*
X138727142Y-93638095D01*
X138774761Y-93590476D01*
X138822380Y-93495238D01*
X138822380Y-93257142D01*
X138774761Y-93161904D01*
X138727142Y-93114285D01*
%TO.C,R6*%
X113456666Y-99812380D02*
X113790000Y-99336190D01*
X114028095Y-99812380D02*
X114028095Y-98812380D01*
X113647142Y-98812380D01*
X113551904Y-98860000D01*
X113504285Y-98907619D01*
X113456666Y-99002857D01*
X113456666Y-99145714D01*
X113504285Y-99240952D01*
X113551904Y-99288571D01*
X113647142Y-99336190D01*
X114028095Y-99336190D01*
X112599523Y-98812380D02*
X112790000Y-98812380D01*
X112885238Y-98860000D01*
X112932857Y-98907619D01*
X113028095Y-99050476D01*
X113075714Y-99240952D01*
X113075714Y-99621904D01*
X113028095Y-99717142D01*
X112980476Y-99764761D01*
X112885238Y-99812380D01*
X112694761Y-99812380D01*
X112599523Y-99764761D01*
X112551904Y-99717142D01*
X112504285Y-99621904D01*
X112504285Y-99383809D01*
X112551904Y-99288571D01*
X112599523Y-99240952D01*
X112694761Y-99193333D01*
X112885238Y-99193333D01*
X112980476Y-99240952D01*
X113028095Y-99288571D01*
X113075714Y-99383809D01*
%TO.C,R7*%
X138892380Y-95283333D02*
X138416190Y-94950000D01*
X138892380Y-94711904D02*
X137892380Y-94711904D01*
X137892380Y-95092857D01*
X137940000Y-95188095D01*
X137987619Y-95235714D01*
X138082857Y-95283333D01*
X138225714Y-95283333D01*
X138320952Y-95235714D01*
X138368571Y-95188095D01*
X138416190Y-95092857D01*
X138416190Y-94711904D01*
X137892380Y-95616666D02*
X137892380Y-96283333D01*
X138892380Y-95854761D01*
%TD*%
M02*
