%TF.GenerationSoftware,KiCad,Pcbnew,5.1.6-c6e7f7d~86~ubuntu18.04.1*%
%TF.CreationDate,2020-07-11T09:23:51+02:00*%
%TF.ProjectId,chickenDoor,63686963-6b65-46e4-946f-6f722e6b6963,rev?*%
%TF.SameCoordinates,Original*%
%TF.FileFunction,Paste,Bot*%
%TF.FilePolarity,Positive*%
%FSLAX46Y46*%
G04 Gerber Fmt 4.6, Leading zero omitted, Abs format (unit mm)*
G04 Created by KiCad (PCBNEW 5.1.6-c6e7f7d~86~ubuntu18.04.1) date 2020-07-11 09:23:51*
%MOMM*%
%LPD*%
G01*
G04 APERTURE LIST*
G04 APERTURE END LIST*
%TO.C,C1*%
G36*
G01*
X117452500Y-61026250D02*
X117452500Y-60113750D01*
G75*
G02*
X117696250Y-59870000I243750J0D01*
G01*
X118183750Y-59870000D01*
G75*
G02*
X118427500Y-60113750I0J-243750D01*
G01*
X118427500Y-61026250D01*
G75*
G02*
X118183750Y-61270000I-243750J0D01*
G01*
X117696250Y-61270000D01*
G75*
G02*
X117452500Y-61026250I0J243750D01*
G01*
G37*
G36*
G01*
X119327500Y-61026250D02*
X119327500Y-60113750D01*
G75*
G02*
X119571250Y-59870000I243750J0D01*
G01*
X120058750Y-59870000D01*
G75*
G02*
X120302500Y-60113750I0J-243750D01*
G01*
X120302500Y-61026250D01*
G75*
G02*
X120058750Y-61270000I-243750J0D01*
G01*
X119571250Y-61270000D01*
G75*
G02*
X119327500Y-61026250I0J243750D01*
G01*
G37*
%TD*%
%TO.C,C2*%
G36*
G01*
X131812500Y-61793750D02*
X131812500Y-62706250D01*
G75*
G02*
X131568750Y-62950000I-243750J0D01*
G01*
X131081250Y-62950000D01*
G75*
G02*
X130837500Y-62706250I0J243750D01*
G01*
X130837500Y-61793750D01*
G75*
G02*
X131081250Y-61550000I243750J0D01*
G01*
X131568750Y-61550000D01*
G75*
G02*
X131812500Y-61793750I0J-243750D01*
G01*
G37*
G36*
G01*
X133687500Y-61793750D02*
X133687500Y-62706250D01*
G75*
G02*
X133443750Y-62950000I-243750J0D01*
G01*
X132956250Y-62950000D01*
G75*
G02*
X132712500Y-62706250I0J243750D01*
G01*
X132712500Y-61793750D01*
G75*
G02*
X132956250Y-61550000I243750J0D01*
G01*
X133443750Y-61550000D01*
G75*
G02*
X133687500Y-61793750I0J-243750D01*
G01*
G37*
%TD*%
%TO.C,R3*%
G36*
G01*
X111377500Y-92446250D02*
X111377500Y-91533750D01*
G75*
G02*
X111621250Y-91290000I243750J0D01*
G01*
X112108750Y-91290000D01*
G75*
G02*
X112352500Y-91533750I0J-243750D01*
G01*
X112352500Y-92446250D01*
G75*
G02*
X112108750Y-92690000I-243750J0D01*
G01*
X111621250Y-92690000D01*
G75*
G02*
X111377500Y-92446250I0J243750D01*
G01*
G37*
G36*
G01*
X113252500Y-92446250D02*
X113252500Y-91533750D01*
G75*
G02*
X113496250Y-91290000I243750J0D01*
G01*
X113983750Y-91290000D01*
G75*
G02*
X114227500Y-91533750I0J-243750D01*
G01*
X114227500Y-92446250D01*
G75*
G02*
X113983750Y-92690000I-243750J0D01*
G01*
X113496250Y-92690000D01*
G75*
G02*
X113252500Y-92446250I0J243750D01*
G01*
G37*
%TD*%
%TO.C,R4*%
G36*
G01*
X137342500Y-89893750D02*
X137342500Y-90806250D01*
G75*
G02*
X137098750Y-91050000I-243750J0D01*
G01*
X136611250Y-91050000D01*
G75*
G02*
X136367500Y-90806250I0J243750D01*
G01*
X136367500Y-89893750D01*
G75*
G02*
X136611250Y-89650000I243750J0D01*
G01*
X137098750Y-89650000D01*
G75*
G02*
X137342500Y-89893750I0J-243750D01*
G01*
G37*
G36*
G01*
X135467500Y-89893750D02*
X135467500Y-90806250D01*
G75*
G02*
X135223750Y-91050000I-243750J0D01*
G01*
X134736250Y-91050000D01*
G75*
G02*
X134492500Y-90806250I0J243750D01*
G01*
X134492500Y-89893750D01*
G75*
G02*
X134736250Y-89650000I243750J0D01*
G01*
X135223750Y-89650000D01*
G75*
G02*
X135467500Y-89893750I0J-243750D01*
G01*
G37*
%TD*%
%TO.C,R5*%
G36*
G01*
X136420000Y-93316250D02*
X136420000Y-92403750D01*
G75*
G02*
X136663750Y-92160000I243750J0D01*
G01*
X137151250Y-92160000D01*
G75*
G02*
X137395000Y-92403750I0J-243750D01*
G01*
X137395000Y-93316250D01*
G75*
G02*
X137151250Y-93560000I-243750J0D01*
G01*
X136663750Y-93560000D01*
G75*
G02*
X136420000Y-93316250I0J243750D01*
G01*
G37*
G36*
G01*
X134545000Y-93316250D02*
X134545000Y-92403750D01*
G75*
G02*
X134788750Y-92160000I243750J0D01*
G01*
X135276250Y-92160000D01*
G75*
G02*
X135520000Y-92403750I0J-243750D01*
G01*
X135520000Y-93316250D01*
G75*
G02*
X135276250Y-93560000I-243750J0D01*
G01*
X134788750Y-93560000D01*
G75*
G02*
X134545000Y-93316250I0J243750D01*
G01*
G37*
%TD*%
%TO.C,R6*%
G36*
G01*
X113726250Y-98427500D02*
X112813750Y-98427500D01*
G75*
G02*
X112570000Y-98183750I0J243750D01*
G01*
X112570000Y-97696250D01*
G75*
G02*
X112813750Y-97452500I243750J0D01*
G01*
X113726250Y-97452500D01*
G75*
G02*
X113970000Y-97696250I0J-243750D01*
G01*
X113970000Y-98183750D01*
G75*
G02*
X113726250Y-98427500I-243750J0D01*
G01*
G37*
G36*
G01*
X113726250Y-96552500D02*
X112813750Y-96552500D01*
G75*
G02*
X112570000Y-96308750I0J243750D01*
G01*
X112570000Y-95821250D01*
G75*
G02*
X112813750Y-95577500I243750J0D01*
G01*
X113726250Y-95577500D01*
G75*
G02*
X113970000Y-95821250I0J-243750D01*
G01*
X113970000Y-96308750D01*
G75*
G02*
X113726250Y-96552500I-243750J0D01*
G01*
G37*
%TD*%
%TO.C,R7*%
G36*
G01*
X134597500Y-95906250D02*
X134597500Y-94993750D01*
G75*
G02*
X134841250Y-94750000I243750J0D01*
G01*
X135328750Y-94750000D01*
G75*
G02*
X135572500Y-94993750I0J-243750D01*
G01*
X135572500Y-95906250D01*
G75*
G02*
X135328750Y-96150000I-243750J0D01*
G01*
X134841250Y-96150000D01*
G75*
G02*
X134597500Y-95906250I0J243750D01*
G01*
G37*
G36*
G01*
X136472500Y-95906250D02*
X136472500Y-94993750D01*
G75*
G02*
X136716250Y-94750000I243750J0D01*
G01*
X137203750Y-94750000D01*
G75*
G02*
X137447500Y-94993750I0J-243750D01*
G01*
X137447500Y-95906250D01*
G75*
G02*
X137203750Y-96150000I-243750J0D01*
G01*
X136716250Y-96150000D01*
G75*
G02*
X136472500Y-95906250I0J243750D01*
G01*
G37*
%TD*%
M02*
