%TF.GenerationSoftware,KiCad,Pcbnew,5.1.6-c6e7f7d~86~ubuntu18.04.1*%
%TF.CreationDate,2020-07-11T09:23:51+02:00*%
%TF.ProjectId,chickenDoor,63686963-6b65-46e4-946f-6f722e6b6963,rev?*%
%TF.SameCoordinates,Original*%
%TF.FileFunction,Copper,L2,Bot*%
%TF.FilePolarity,Positive*%
%FSLAX46Y46*%
G04 Gerber Fmt 4.6, Leading zero omitted, Abs format (unit mm)*
G04 Created by KiCad (PCBNEW 5.1.6-c6e7f7d~86~ubuntu18.04.1) date 2020-07-11 09:23:51*
%MOMM*%
%LPD*%
G01*
G04 APERTURE LIST*
%TA.AperFunction,ComponentPad*%
%ADD10C,1.800000*%
%TD*%
%TA.AperFunction,ComponentPad*%
%ADD11R,1.600000X2.400000*%
%TD*%
%TA.AperFunction,ComponentPad*%
%ADD12O,1.600000X2.400000*%
%TD*%
%TA.AperFunction,ComponentPad*%
%ADD13O,1.700000X1.700000*%
%TD*%
%TA.AperFunction,ComponentPad*%
%ADD14R,1.700000X1.700000*%
%TD*%
%TA.AperFunction,ViaPad*%
%ADD15C,0.800000*%
%TD*%
%TA.AperFunction,Conductor*%
%ADD16C,0.250000*%
%TD*%
%TA.AperFunction,Conductor*%
%ADD17C,0.254000*%
%TD*%
G04 APERTURE END LIST*
%TO.P,C1,1*%
%TO.N,Net-(C1-Pad1)*%
%TA.AperFunction,SMDPad,CuDef*%
G36*
G01*
X117452500Y-61026250D02*
X117452500Y-60113750D01*
G75*
G02*
X117696250Y-59870000I243750J0D01*
G01*
X118183750Y-59870000D01*
G75*
G02*
X118427500Y-60113750I0J-243750D01*
G01*
X118427500Y-61026250D01*
G75*
G02*
X118183750Y-61270000I-243750J0D01*
G01*
X117696250Y-61270000D01*
G75*
G02*
X117452500Y-61026250I0J243750D01*
G01*
G37*
%TD.AperFunction*%
%TO.P,C1,2*%
%TO.N,GND*%
%TA.AperFunction,SMDPad,CuDef*%
G36*
G01*
X119327500Y-61026250D02*
X119327500Y-60113750D01*
G75*
G02*
X119571250Y-59870000I243750J0D01*
G01*
X120058750Y-59870000D01*
G75*
G02*
X120302500Y-60113750I0J-243750D01*
G01*
X120302500Y-61026250D01*
G75*
G02*
X120058750Y-61270000I-243750J0D01*
G01*
X119571250Y-61270000D01*
G75*
G02*
X119327500Y-61026250I0J243750D01*
G01*
G37*
%TD.AperFunction*%
%TD*%
%TO.P,C2,2*%
%TO.N,GND*%
%TA.AperFunction,SMDPad,CuDef*%
G36*
G01*
X131812500Y-61793750D02*
X131812500Y-62706250D01*
G75*
G02*
X131568750Y-62950000I-243750J0D01*
G01*
X131081250Y-62950000D01*
G75*
G02*
X130837500Y-62706250I0J243750D01*
G01*
X130837500Y-61793750D01*
G75*
G02*
X131081250Y-61550000I243750J0D01*
G01*
X131568750Y-61550000D01*
G75*
G02*
X131812500Y-61793750I0J-243750D01*
G01*
G37*
%TD.AperFunction*%
%TO.P,C2,1*%
%TO.N,+6V*%
%TA.AperFunction,SMDPad,CuDef*%
G36*
G01*
X133687500Y-61793750D02*
X133687500Y-62706250D01*
G75*
G02*
X133443750Y-62950000I-243750J0D01*
G01*
X132956250Y-62950000D01*
G75*
G02*
X132712500Y-62706250I0J243750D01*
G01*
X132712500Y-61793750D01*
G75*
G02*
X132956250Y-61550000I243750J0D01*
G01*
X133443750Y-61550000D01*
G75*
G02*
X133687500Y-61793750I0J-243750D01*
G01*
G37*
%TD.AperFunction*%
%TD*%
D10*
%TO.P,J1,2*%
%TO.N,Vcc*%
X108400000Y-75000000D03*
%TO.P,J1,1*%
%TO.N,Move_complete*%
X108400000Y-70000000D03*
%TD*%
%TO.P,J2,1*%
%TO.N,Move_step*%
X108400000Y-81200000D03*
%TO.P,J2,2*%
%TO.N,Vcc*%
X108400000Y-86200000D03*
%TD*%
%TO.P,J3,2*%
%TO.N,Photo_Powr*%
X108400000Y-97400000D03*
%TO.P,J3,1*%
%TO.N,Photo_Sens*%
X108400000Y-92400000D03*
%TD*%
%TO.P,J4,1*%
%TO.N,Net-(J4-Pad1)*%
X140700000Y-86200000D03*
%TO.P,J4,2*%
%TO.N,End_down*%
X140700000Y-81200000D03*
%TD*%
%TO.P,J6,2*%
%TO.N,Net-(J6-Pad2)*%
X140700000Y-92400000D03*
%TO.P,J6,1*%
%TO.N,End_up*%
X140700000Y-97400000D03*
%TD*%
%TO.P,J8,1*%
%TO.N,GND*%
X140700000Y-75000000D03*
%TO.P,J8,2*%
%TO.N,+6V*%
X140700000Y-70000000D03*
%TD*%
%TO.P,R3,1*%
%TO.N,Photo_Sens*%
%TA.AperFunction,SMDPad,CuDef*%
G36*
G01*
X111377500Y-92446250D02*
X111377500Y-91533750D01*
G75*
G02*
X111621250Y-91290000I243750J0D01*
G01*
X112108750Y-91290000D01*
G75*
G02*
X112352500Y-91533750I0J-243750D01*
G01*
X112352500Y-92446250D01*
G75*
G02*
X112108750Y-92690000I-243750J0D01*
G01*
X111621250Y-92690000D01*
G75*
G02*
X111377500Y-92446250I0J243750D01*
G01*
G37*
%TD.AperFunction*%
%TO.P,R3,2*%
%TO.N,GND*%
%TA.AperFunction,SMDPad,CuDef*%
G36*
G01*
X113252500Y-92446250D02*
X113252500Y-91533750D01*
G75*
G02*
X113496250Y-91290000I243750J0D01*
G01*
X113983750Y-91290000D01*
G75*
G02*
X114227500Y-91533750I0J-243750D01*
G01*
X114227500Y-92446250D01*
G75*
G02*
X113983750Y-92690000I-243750J0D01*
G01*
X113496250Y-92690000D01*
G75*
G02*
X113252500Y-92446250I0J243750D01*
G01*
G37*
%TD.AperFunction*%
%TD*%
%TO.P,R4,1*%
%TO.N,End_down*%
%TA.AperFunction,SMDPad,CuDef*%
G36*
G01*
X137342500Y-89893750D02*
X137342500Y-90806250D01*
G75*
G02*
X137098750Y-91050000I-243750J0D01*
G01*
X136611250Y-91050000D01*
G75*
G02*
X136367500Y-90806250I0J243750D01*
G01*
X136367500Y-89893750D01*
G75*
G02*
X136611250Y-89650000I243750J0D01*
G01*
X137098750Y-89650000D01*
G75*
G02*
X137342500Y-89893750I0J-243750D01*
G01*
G37*
%TD.AperFunction*%
%TO.P,R4,2*%
%TO.N,GND*%
%TA.AperFunction,SMDPad,CuDef*%
G36*
G01*
X135467500Y-89893750D02*
X135467500Y-90806250D01*
G75*
G02*
X135223750Y-91050000I-243750J0D01*
G01*
X134736250Y-91050000D01*
G75*
G02*
X134492500Y-90806250I0J243750D01*
G01*
X134492500Y-89893750D01*
G75*
G02*
X134736250Y-89650000I243750J0D01*
G01*
X135223750Y-89650000D01*
G75*
G02*
X135467500Y-89893750I0J-243750D01*
G01*
G37*
%TD.AperFunction*%
%TD*%
%TO.P,R5,2*%
%TO.N,Net-(J4-Pad1)*%
%TA.AperFunction,SMDPad,CuDef*%
G36*
G01*
X136420000Y-93316250D02*
X136420000Y-92403750D01*
G75*
G02*
X136663750Y-92160000I243750J0D01*
G01*
X137151250Y-92160000D01*
G75*
G02*
X137395000Y-92403750I0J-243750D01*
G01*
X137395000Y-93316250D01*
G75*
G02*
X137151250Y-93560000I-243750J0D01*
G01*
X136663750Y-93560000D01*
G75*
G02*
X136420000Y-93316250I0J243750D01*
G01*
G37*
%TD.AperFunction*%
%TO.P,R5,1*%
%TO.N,5V_down*%
%TA.AperFunction,SMDPad,CuDef*%
G36*
G01*
X134545000Y-93316250D02*
X134545000Y-92403750D01*
G75*
G02*
X134788750Y-92160000I243750J0D01*
G01*
X135276250Y-92160000D01*
G75*
G02*
X135520000Y-92403750I0J-243750D01*
G01*
X135520000Y-93316250D01*
G75*
G02*
X135276250Y-93560000I-243750J0D01*
G01*
X134788750Y-93560000D01*
G75*
G02*
X134545000Y-93316250I0J243750D01*
G01*
G37*
%TD.AperFunction*%
%TD*%
%TO.P,R6,1*%
%TO.N,End_up*%
%TA.AperFunction,SMDPad,CuDef*%
G36*
G01*
X113726250Y-98427500D02*
X112813750Y-98427500D01*
G75*
G02*
X112570000Y-98183750I0J243750D01*
G01*
X112570000Y-97696250D01*
G75*
G02*
X112813750Y-97452500I243750J0D01*
G01*
X113726250Y-97452500D01*
G75*
G02*
X113970000Y-97696250I0J-243750D01*
G01*
X113970000Y-98183750D01*
G75*
G02*
X113726250Y-98427500I-243750J0D01*
G01*
G37*
%TD.AperFunction*%
%TO.P,R6,2*%
%TO.N,GND*%
%TA.AperFunction,SMDPad,CuDef*%
G36*
G01*
X113726250Y-96552500D02*
X112813750Y-96552500D01*
G75*
G02*
X112570000Y-96308750I0J243750D01*
G01*
X112570000Y-95821250D01*
G75*
G02*
X112813750Y-95577500I243750J0D01*
G01*
X113726250Y-95577500D01*
G75*
G02*
X113970000Y-95821250I0J-243750D01*
G01*
X113970000Y-96308750D01*
G75*
G02*
X113726250Y-96552500I-243750J0D01*
G01*
G37*
%TD.AperFunction*%
%TD*%
%TO.P,R7,1*%
%TO.N,5V_up*%
%TA.AperFunction,SMDPad,CuDef*%
G36*
G01*
X134597500Y-95906250D02*
X134597500Y-94993750D01*
G75*
G02*
X134841250Y-94750000I243750J0D01*
G01*
X135328750Y-94750000D01*
G75*
G02*
X135572500Y-94993750I0J-243750D01*
G01*
X135572500Y-95906250D01*
G75*
G02*
X135328750Y-96150000I-243750J0D01*
G01*
X134841250Y-96150000D01*
G75*
G02*
X134597500Y-95906250I0J243750D01*
G01*
G37*
%TD.AperFunction*%
%TO.P,R7,2*%
%TO.N,Net-(J6-Pad2)*%
%TA.AperFunction,SMDPad,CuDef*%
G36*
G01*
X136472500Y-95906250D02*
X136472500Y-94993750D01*
G75*
G02*
X136716250Y-94750000I243750J0D01*
G01*
X137203750Y-94750000D01*
G75*
G02*
X137447500Y-94993750I0J-243750D01*
G01*
X137447500Y-95906250D01*
G75*
G02*
X137203750Y-96150000I-243750J0D01*
G01*
X136716250Y-96150000D01*
G75*
G02*
X136472500Y-95906250I0J243750D01*
G01*
G37*
%TD.AperFunction*%
%TD*%
D11*
%TO.P,U1,1*%
%TO.N,Motor_EN*%
X115400000Y-65060000D03*
D12*
%TO.P,U1,9*%
%TO.N,GND*%
X133180000Y-57440000D03*
%TO.P,U1,2*%
%TO.N,Motor_0*%
X117940000Y-65060000D03*
%TO.P,U1,10*%
%TO.N,N/C*%
X130640000Y-57440000D03*
%TO.P,U1,3*%
X120480000Y-65060000D03*
%TO.P,U1,11*%
X128100000Y-57440000D03*
%TO.P,U1,4*%
%TO.N,GND*%
X123020000Y-65060000D03*
%TO.P,U1,12*%
X125560000Y-57440000D03*
%TO.P,U1,5*%
X125560000Y-65060000D03*
%TO.P,U1,13*%
X123020000Y-57440000D03*
%TO.P,U1,6*%
%TO.N,N/C*%
X128100000Y-65060000D03*
%TO.P,U1,14*%
X120480000Y-57440000D03*
%TO.P,U1,7*%
%TO.N,Motor_1*%
X130640000Y-65060000D03*
%TO.P,U1,15*%
%TO.N,N/C*%
X117940000Y-57440000D03*
%TO.P,U1,8*%
%TO.N,+6V*%
X133180000Y-65060000D03*
%TO.P,U1,16*%
%TO.N,Net-(C1-Pad1)*%
X115400000Y-57440000D03*
%TD*%
D13*
%TO.P,J5,12*%
%TO.N,End_up*%
X117000000Y-101940000D03*
%TO.P,J5,11*%
%TO.N,End_down*%
X117000000Y-99400000D03*
%TO.P,J5,10*%
%TO.N,Motor_1*%
X117000000Y-96860000D03*
%TO.P,J5,9*%
%TO.N,Motor_0*%
X117000000Y-94320000D03*
%TO.P,J5,8*%
%TO.N,Motor_EN*%
X117000000Y-91780000D03*
%TO.P,J5,7*%
%TO.N,Photo_Powr*%
X117000000Y-89240000D03*
%TO.P,J5,6*%
%TO.N,N/C*%
X117000000Y-86700000D03*
%TO.P,J5,5*%
X117000000Y-84160000D03*
%TO.P,J5,4*%
%TO.N,GND*%
X117000000Y-81620000D03*
%TO.P,J5,3*%
X117000000Y-79080000D03*
%TO.P,J5,2*%
%TO.N,Move_step*%
X117000000Y-76540000D03*
D14*
%TO.P,J5,1*%
%TO.N,Move_complete*%
X117000000Y-74000000D03*
%TD*%
%TO.P,J7,1*%
%TO.N,+6V*%
X132200000Y-74000000D03*
D13*
%TO.P,J7,2*%
%TO.N,GND*%
X132200000Y-76540000D03*
%TO.P,J7,3*%
%TO.N,N/C*%
X132200000Y-79080000D03*
%TO.P,J7,4*%
%TO.N,Vcc*%
X132200000Y-81620000D03*
%TO.P,J7,5*%
%TO.N,N/C*%
X132200000Y-84160000D03*
%TO.P,J7,6*%
X132200000Y-86700000D03*
%TO.P,J7,7*%
X132200000Y-89240000D03*
%TO.P,J7,8*%
%TO.N,Photo_Sens*%
X132200000Y-91780000D03*
%TO.P,J7,9*%
%TO.N,N/C*%
X132200000Y-94320000D03*
%TO.P,J7,10*%
%TO.N,5V_down*%
X132200000Y-96860000D03*
%TO.P,J7,11*%
%TO.N,5V_up*%
X132200000Y-99400000D03*
%TO.P,J7,12*%
%TO.N,5V_Motor_out*%
X132200000Y-101940000D03*
%TD*%
D15*
%TO.N,GND*%
X113750000Y-90560000D03*
X124120000Y-72560000D03*
X120050000Y-94770000D03*
X128550000Y-94720000D03*
X122960000Y-60090000D03*
X125020000Y-59990000D03*
X125040000Y-62030000D03*
X122970000Y-62030000D03*
X143940000Y-73150000D03*
X147000000Y-73150000D03*
X103710000Y-89230000D03*
X103740000Y-78060000D03*
X145390000Y-78070000D03*
X145280000Y-89300000D03*
X123140000Y-98670000D03*
X110090000Y-99480000D03*
%TO.N,+6V*%
X135990000Y-62010000D03*
X139000000Y-61980000D03*
X142000000Y-61960000D03*
X144990000Y-61980000D03*
X146070000Y-62970000D03*
X146030000Y-65960000D03*
X146070000Y-68980000D03*
X143960000Y-70070000D03*
X134960000Y-70000000D03*
X137860000Y-70000000D03*
%TD*%
D16*
%TO.N,Net-(C1-Pad1)*%
X115400000Y-58030000D02*
X117940000Y-60570000D01*
X115400000Y-57440000D02*
X115400000Y-58030000D01*
%TO.N,GND*%
X134980000Y-90350000D02*
X134980000Y-83820000D01*
X140710000Y-78090000D02*
X140710000Y-75010000D01*
X134980000Y-83820000D02*
X140710000Y-78090000D01*
X133180000Y-57440000D02*
X133180000Y-58770000D01*
X131325000Y-60625000D02*
X131325000Y-62250000D01*
X133180000Y-58770000D02*
X131325000Y-60625000D01*
X131325000Y-62250000D02*
X126400000Y-62250000D01*
X113270000Y-92460000D02*
X113740000Y-91990000D01*
X113270000Y-96065000D02*
X113270000Y-92460000D01*
X113740000Y-91990000D02*
X113740000Y-90570000D01*
X113740000Y-90570000D02*
X113750000Y-90560000D01*
X124520000Y-72540000D02*
X124500000Y-72560000D01*
X124500000Y-72560000D02*
X124120000Y-72560000D01*
X125560000Y-63090000D02*
X125560000Y-65060000D01*
X126400000Y-62250000D02*
X125560000Y-63090000D01*
X124120000Y-72560000D02*
X125100000Y-72560000D01*
X129080000Y-76540000D02*
X132200000Y-76540000D01*
X125100000Y-72560000D02*
X129080000Y-76540000D01*
%TO.N,+6V*%
X133200000Y-65040000D02*
X133180000Y-65060000D01*
X133200000Y-62250000D02*
X133200000Y-65040000D01*
%TO.N,Move_complete*%
X113000000Y-70000000D02*
X117000000Y-74000000D01*
X108400000Y-70000000D02*
X113000000Y-70000000D01*
%TO.N,Move_step*%
X108800000Y-80740000D02*
X108580000Y-80740000D01*
X108400000Y-81200000D02*
X110050000Y-81200000D01*
X114710000Y-76540000D02*
X117000000Y-76540000D01*
X110050000Y-81200000D02*
X114710000Y-76540000D01*
%TO.N,Photo_Powr*%
X106900000Y-91190000D02*
X108510000Y-89580000D01*
X108400000Y-97400000D02*
X106900000Y-95900000D01*
X106900000Y-95900000D02*
X106900000Y-91190000D01*
X116660000Y-89580000D02*
X117000000Y-89240000D01*
X108510000Y-89580000D02*
X116660000Y-89580000D01*
%TO.N,Photo_Sens*%
X108570000Y-91990000D02*
X108560000Y-91980000D01*
X108810000Y-91990000D02*
X108400000Y-92400000D01*
X111865000Y-91990000D02*
X108810000Y-91990000D01*
%TO.N,End_down*%
X136855000Y-90350000D02*
X136855000Y-85075000D01*
X136855000Y-85075000D02*
X138210000Y-83720000D01*
X139783002Y-83520000D02*
X139793002Y-83530000D01*
X138410000Y-83520000D02*
X139783002Y-83520000D01*
X138410000Y-83520000D02*
X140690000Y-81240000D01*
X138210000Y-83720000D02*
X138410000Y-83520000D01*
X139793002Y-83530000D02*
X141100000Y-83530000D01*
X141100000Y-83530000D02*
X142540000Y-84970000D01*
X142540000Y-84970000D02*
X142540000Y-93020000D01*
X142540000Y-93020000D02*
X135900000Y-99660000D01*
X135900000Y-99660000D02*
X135900000Y-101580000D01*
X135900000Y-101580000D02*
X132990000Y-104490000D01*
X132990000Y-104490000D02*
X123960000Y-104490000D01*
X118870000Y-99400000D02*
X117000000Y-99400000D01*
X123960000Y-104490000D02*
X118870000Y-99400000D01*
%TO.N,End_up*%
X113270000Y-97940000D02*
X113270000Y-100440000D01*
X114770000Y-101940000D02*
X117000000Y-101940000D01*
X113270000Y-100440000D02*
X114770000Y-101940000D01*
X134432782Y-104940010D02*
X123690010Y-104940010D01*
X140700000Y-97400000D02*
X140700000Y-98672792D01*
X140700000Y-98672792D02*
X134432782Y-104940010D01*
X120690000Y-101940000D02*
X117000000Y-101940000D01*
X123690010Y-104940010D02*
X120690000Y-101940000D01*
%TO.N,Motor_0*%
X119200010Y-92119990D02*
X117000000Y-94320000D01*
X117940000Y-65060000D02*
X119200010Y-66320010D01*
X119200010Y-66320010D02*
X119200010Y-92119990D01*
%TO.N,Motor_EN*%
X118750000Y-68820000D02*
X118750000Y-90030000D01*
X118120000Y-68190000D02*
X118750000Y-68820000D01*
X116950000Y-68190000D02*
X118120000Y-68190000D01*
X118750000Y-90030000D02*
X117000000Y-91780000D01*
X115400000Y-65060000D02*
X115400000Y-66640000D01*
X115400000Y-66640000D02*
X116950000Y-68190000D01*
%TO.N,Net-(J6-Pad2)*%
X137560000Y-95450000D02*
X140690000Y-92320000D01*
X136960000Y-95450000D02*
X137560000Y-95450000D01*
%TO.N,5V_up*%
X135035000Y-95400000D02*
X135085000Y-95450000D01*
X135085000Y-96515000D02*
X132200000Y-99400000D01*
X135085000Y-95450000D02*
X135085000Y-96515000D01*
%TO.N,5V_down*%
X135032500Y-92860000D02*
X133880000Y-94012500D01*
X133880000Y-95180000D02*
X132200000Y-96860000D01*
X133880000Y-94012500D02*
X133880000Y-95180000D01*
%TO.N,Net-(J4-Pad1)*%
X136907500Y-92860000D02*
X138450000Y-91317500D01*
X138450000Y-91317500D02*
X138450000Y-88480000D01*
X138450000Y-88480000D02*
X140690000Y-86240000D01*
%TD*%
D17*
%TO.N,+6V*%
G36*
X147253000Y-61146914D02*
G01*
X147253000Y-71022714D01*
X134010285Y-70993000D01*
X133985503Y-70995385D01*
X133961663Y-71002559D01*
X133939680Y-71014245D01*
X133920399Y-71029996D01*
X133904562Y-71049206D01*
X133892777Y-71071136D01*
X133885496Y-71094944D01*
X133883000Y-71120000D01*
X133883000Y-74613332D01*
X130317178Y-74622666D01*
X130326823Y-67727000D01*
X131990000Y-67727000D01*
X132014776Y-67724560D01*
X132038601Y-67717333D01*
X132060557Y-67705597D01*
X132079803Y-67689803D01*
X132095597Y-67670557D01*
X132107333Y-67648601D01*
X132114560Y-67624776D01*
X132117000Y-67600000D01*
X132117000Y-63827000D01*
X132560000Y-63827000D01*
X132584776Y-63824560D01*
X132608601Y-63817333D01*
X132630557Y-63805597D01*
X132649803Y-63789803D01*
X132665597Y-63770557D01*
X132677333Y-63748601D01*
X132684560Y-63724776D01*
X132687000Y-63700000D01*
X132687000Y-61137086D01*
X147253000Y-61146914D01*
G37*
X147253000Y-61146914D02*
X147253000Y-71022714D01*
X134010285Y-70993000D01*
X133985503Y-70995385D01*
X133961663Y-71002559D01*
X133939680Y-71014245D01*
X133920399Y-71029996D01*
X133904562Y-71049206D01*
X133892777Y-71071136D01*
X133885496Y-71094944D01*
X133883000Y-71120000D01*
X133883000Y-74613332D01*
X130317178Y-74622666D01*
X130326823Y-67727000D01*
X131990000Y-67727000D01*
X132014776Y-67724560D01*
X132038601Y-67717333D01*
X132060557Y-67705597D01*
X132079803Y-67689803D01*
X132095597Y-67670557D01*
X132107333Y-67648601D01*
X132114560Y-67624776D01*
X132117000Y-67600000D01*
X132117000Y-63827000D01*
X132560000Y-63827000D01*
X132584776Y-63824560D01*
X132608601Y-63817333D01*
X132630557Y-63805597D01*
X132649803Y-63789803D01*
X132665597Y-63770557D01*
X132677333Y-63748601D01*
X132684560Y-63724776D01*
X132687000Y-63700000D01*
X132687000Y-61137086D01*
X147253000Y-61146914D01*
%TO.N,GND*%
G36*
X148254782Y-54713267D02*
G01*
X148499855Y-54787259D01*
X148725890Y-54907443D01*
X148924281Y-55069248D01*
X149087460Y-55266497D01*
X149209220Y-55491687D01*
X149284924Y-55736247D01*
X149315000Y-56022398D01*
X149315001Y-104966484D01*
X149286733Y-105254782D01*
X149212741Y-105499855D01*
X149092554Y-105725893D01*
X148930754Y-105924279D01*
X148733503Y-106087460D01*
X148508310Y-106209221D01*
X148263753Y-106284924D01*
X147977602Y-106315000D01*
X101033505Y-106315000D01*
X100745218Y-106286733D01*
X100500145Y-106212741D01*
X100274107Y-106092554D01*
X100075721Y-105930754D01*
X99912540Y-105733503D01*
X99790779Y-105508310D01*
X99715076Y-105263753D01*
X99685000Y-104977602D01*
X99685000Y-103359872D01*
X100205000Y-103359872D01*
X100205000Y-103800128D01*
X100290890Y-104231925D01*
X100459369Y-104638669D01*
X100703962Y-105004729D01*
X101015271Y-105316038D01*
X101381331Y-105560631D01*
X101788075Y-105729110D01*
X102219872Y-105815000D01*
X102660128Y-105815000D01*
X103091925Y-105729110D01*
X103498669Y-105560631D01*
X103864729Y-105316038D01*
X104176038Y-105004729D01*
X104420631Y-104638669D01*
X104589110Y-104231925D01*
X104675000Y-103800128D01*
X104675000Y-103359872D01*
X104589110Y-102928075D01*
X104420631Y-102521331D01*
X104176038Y-102155271D01*
X103864729Y-101843962D01*
X103498669Y-101599369D01*
X103091925Y-101430890D01*
X102660128Y-101345000D01*
X102219872Y-101345000D01*
X101788075Y-101430890D01*
X101381331Y-101599369D01*
X101015271Y-101843962D01*
X100703962Y-102155271D01*
X100459369Y-102521331D01*
X100290890Y-102928075D01*
X100205000Y-103359872D01*
X99685000Y-103359872D01*
X99685000Y-91190000D01*
X106136324Y-91190000D01*
X106140001Y-91227332D01*
X106140000Y-95862677D01*
X106136324Y-95900000D01*
X106140000Y-95937322D01*
X106140000Y-95937332D01*
X106150997Y-96048985D01*
X106183638Y-96156589D01*
X106194454Y-96192246D01*
X106265026Y-96324276D01*
X106285315Y-96348998D01*
X106359999Y-96440001D01*
X106389003Y-96463804D01*
X106916269Y-96991070D01*
X106865000Y-97248816D01*
X106865000Y-97551184D01*
X106923989Y-97847743D01*
X107039701Y-98127095D01*
X107207688Y-98378505D01*
X107421495Y-98592312D01*
X107672905Y-98760299D01*
X107952257Y-98876011D01*
X108248816Y-98935000D01*
X108551184Y-98935000D01*
X108847743Y-98876011D01*
X109127095Y-98760299D01*
X109378505Y-98592312D01*
X109592312Y-98378505D01*
X109760299Y-98127095D01*
X109876011Y-97847743D01*
X109935000Y-97551184D01*
X109935000Y-97248816D01*
X109876011Y-96952257D01*
X109760299Y-96672905D01*
X109592312Y-96421495D01*
X109378505Y-96207688D01*
X109127095Y-96039701D01*
X108847743Y-95923989D01*
X108551184Y-95865000D01*
X108248816Y-95865000D01*
X107991070Y-95916269D01*
X107660000Y-95585199D01*
X107660000Y-93751676D01*
X107672905Y-93760299D01*
X107952257Y-93876011D01*
X108248816Y-93935000D01*
X108551184Y-93935000D01*
X108847743Y-93876011D01*
X109127095Y-93760299D01*
X109378505Y-93592312D01*
X109592312Y-93378505D01*
X109760299Y-93127095D01*
X109876011Y-92847743D01*
X109895453Y-92750000D01*
X110796327Y-92750000D01*
X110806553Y-92783709D01*
X110888042Y-92936164D01*
X110997708Y-93069792D01*
X111131336Y-93179458D01*
X111283791Y-93260947D01*
X111449215Y-93311128D01*
X111621250Y-93328072D01*
X112108750Y-93328072D01*
X112280785Y-93311128D01*
X112446209Y-93260947D01*
X112598664Y-93179458D01*
X112732292Y-93069792D01*
X112841958Y-92936164D01*
X112923447Y-92783709D01*
X112973628Y-92618285D01*
X112990572Y-92446250D01*
X112990572Y-91533750D01*
X112973628Y-91361715D01*
X112923447Y-91196291D01*
X112841958Y-91043836D01*
X112732292Y-90910208D01*
X112598664Y-90800542D01*
X112446209Y-90719053D01*
X112280785Y-90668872D01*
X112108750Y-90651928D01*
X111621250Y-90651928D01*
X111449215Y-90668872D01*
X111283791Y-90719053D01*
X111131336Y-90800542D01*
X110997708Y-90910208D01*
X110888042Y-91043836D01*
X110806553Y-91196291D01*
X110796327Y-91230000D01*
X109400817Y-91230000D01*
X109378505Y-91207688D01*
X109127095Y-91039701D01*
X108847743Y-90923989D01*
X108551184Y-90865000D01*
X108299802Y-90865000D01*
X108824802Y-90340000D01*
X115999893Y-90340000D01*
X116053368Y-90393475D01*
X116227760Y-90510000D01*
X116053368Y-90626525D01*
X115846525Y-90833368D01*
X115684010Y-91076589D01*
X115572068Y-91346842D01*
X115515000Y-91633740D01*
X115515000Y-91926260D01*
X115572068Y-92213158D01*
X115684010Y-92483411D01*
X115846525Y-92726632D01*
X116053368Y-92933475D01*
X116227760Y-93050000D01*
X116053368Y-93166525D01*
X115846525Y-93373368D01*
X115684010Y-93616589D01*
X115572068Y-93886842D01*
X115515000Y-94173740D01*
X115515000Y-94466260D01*
X115572068Y-94753158D01*
X115684010Y-95023411D01*
X115846525Y-95266632D01*
X116053368Y-95473475D01*
X116227760Y-95590000D01*
X116053368Y-95706525D01*
X115846525Y-95913368D01*
X115684010Y-96156589D01*
X115572068Y-96426842D01*
X115515000Y-96713740D01*
X115515000Y-97006260D01*
X115572068Y-97293158D01*
X115684010Y-97563411D01*
X115846525Y-97806632D01*
X116053368Y-98013475D01*
X116227760Y-98130000D01*
X116053368Y-98246525D01*
X115846525Y-98453368D01*
X115684010Y-98696589D01*
X115572068Y-98966842D01*
X115515000Y-99253740D01*
X115515000Y-99546260D01*
X115572068Y-99833158D01*
X115684010Y-100103411D01*
X115846525Y-100346632D01*
X116053368Y-100553475D01*
X116227760Y-100670000D01*
X116053368Y-100786525D01*
X115846525Y-100993368D01*
X115721822Y-101180000D01*
X115084802Y-101180000D01*
X114030000Y-100125199D01*
X114030000Y-99008673D01*
X114063709Y-98998447D01*
X114216164Y-98916958D01*
X114349792Y-98807292D01*
X114459458Y-98673664D01*
X114540947Y-98521209D01*
X114591128Y-98355785D01*
X114608072Y-98183750D01*
X114608072Y-97696250D01*
X114591128Y-97524215D01*
X114540947Y-97358791D01*
X114459458Y-97206336D01*
X114349792Y-97072708D01*
X114216164Y-96963042D01*
X114063709Y-96881553D01*
X113898285Y-96831372D01*
X113726250Y-96814428D01*
X112813750Y-96814428D01*
X112641715Y-96831372D01*
X112476291Y-96881553D01*
X112323836Y-96963042D01*
X112190208Y-97072708D01*
X112080542Y-97206336D01*
X111999053Y-97358791D01*
X111948872Y-97524215D01*
X111931928Y-97696250D01*
X111931928Y-98183750D01*
X111948872Y-98355785D01*
X111999053Y-98521209D01*
X112080542Y-98673664D01*
X112190208Y-98807292D01*
X112323836Y-98916958D01*
X112476291Y-98998447D01*
X112510000Y-99008673D01*
X112510001Y-100402668D01*
X112506324Y-100440000D01*
X112510001Y-100477333D01*
X112517501Y-100553475D01*
X112520998Y-100588985D01*
X112564454Y-100732246D01*
X112635026Y-100864276D01*
X112706201Y-100951002D01*
X112730000Y-100980001D01*
X112758998Y-101003799D01*
X114206200Y-102451002D01*
X114229999Y-102480001D01*
X114345724Y-102574974D01*
X114477753Y-102645546D01*
X114621014Y-102689003D01*
X114732667Y-102700000D01*
X114732676Y-102700000D01*
X114769999Y-102703676D01*
X114807322Y-102700000D01*
X115721822Y-102700000D01*
X115846525Y-102886632D01*
X116053368Y-103093475D01*
X116296589Y-103255990D01*
X116566842Y-103367932D01*
X116853740Y-103425000D01*
X117146260Y-103425000D01*
X117433158Y-103367932D01*
X117703411Y-103255990D01*
X117946632Y-103093475D01*
X118153475Y-102886632D01*
X118278178Y-102700000D01*
X120375199Y-102700000D01*
X123126211Y-105451013D01*
X123150009Y-105480011D01*
X123265734Y-105574984D01*
X123397763Y-105645556D01*
X123541024Y-105689013D01*
X123652677Y-105700010D01*
X123652687Y-105700010D01*
X123690010Y-105703686D01*
X123727333Y-105700010D01*
X134395460Y-105700010D01*
X134432782Y-105703686D01*
X134470104Y-105700010D01*
X134470115Y-105700010D01*
X134581768Y-105689013D01*
X134725029Y-105645556D01*
X134857058Y-105574984D01*
X134972783Y-105480011D01*
X134996586Y-105451007D01*
X137077721Y-103369872D01*
X144355000Y-103369872D01*
X144355000Y-103810128D01*
X144440890Y-104241925D01*
X144609369Y-104648669D01*
X144853962Y-105014729D01*
X145165271Y-105326038D01*
X145531331Y-105570631D01*
X145938075Y-105739110D01*
X146369872Y-105825000D01*
X146810128Y-105825000D01*
X147241925Y-105739110D01*
X147648669Y-105570631D01*
X148014729Y-105326038D01*
X148326038Y-105014729D01*
X148570631Y-104648669D01*
X148739110Y-104241925D01*
X148825000Y-103810128D01*
X148825000Y-103369872D01*
X148739110Y-102938075D01*
X148570631Y-102531331D01*
X148326038Y-102165271D01*
X148014729Y-101853962D01*
X147648669Y-101609369D01*
X147241925Y-101440890D01*
X146810128Y-101355000D01*
X146369872Y-101355000D01*
X145938075Y-101440890D01*
X145531331Y-101609369D01*
X145165271Y-101853962D01*
X144853962Y-102165271D01*
X144609369Y-102531331D01*
X144440890Y-102938075D01*
X144355000Y-103369872D01*
X137077721Y-103369872D01*
X141211003Y-99236591D01*
X141240001Y-99212793D01*
X141334974Y-99097068D01*
X141405546Y-98965039D01*
X141449003Y-98821778D01*
X141457028Y-98740298D01*
X141678505Y-98592312D01*
X141892312Y-98378505D01*
X142060299Y-98127095D01*
X142176011Y-97847743D01*
X142235000Y-97551184D01*
X142235000Y-97248816D01*
X142176011Y-96952257D01*
X142060299Y-96672905D01*
X141892312Y-96421495D01*
X141678505Y-96207688D01*
X141427095Y-96039701D01*
X141147743Y-95923989D01*
X140851184Y-95865000D01*
X140769802Y-95865000D01*
X143051003Y-93583799D01*
X143080001Y-93560001D01*
X143128013Y-93501498D01*
X143174974Y-93444277D01*
X143245546Y-93312247D01*
X143285826Y-93179458D01*
X143289003Y-93168986D01*
X143300000Y-93057333D01*
X143300000Y-93057324D01*
X143303676Y-93020001D01*
X143300000Y-92982678D01*
X143300000Y-85007333D01*
X143303677Y-84970000D01*
X143289003Y-84821014D01*
X143245546Y-84677753D01*
X143174974Y-84545724D01*
X143103799Y-84458997D01*
X143080001Y-84429999D01*
X143051004Y-84406202D01*
X141663804Y-83019003D01*
X141640001Y-82989999D01*
X141524276Y-82895026D01*
X141392247Y-82824454D01*
X141248986Y-82780997D01*
X141137333Y-82770000D01*
X141137322Y-82770000D01*
X141100000Y-82766324D01*
X141062678Y-82770000D01*
X140234802Y-82770000D01*
X140316093Y-82688709D01*
X140548816Y-82735000D01*
X140851184Y-82735000D01*
X141147743Y-82676011D01*
X141427095Y-82560299D01*
X141678505Y-82392312D01*
X141892312Y-82178505D01*
X142060299Y-81927095D01*
X142176011Y-81647743D01*
X142235000Y-81351184D01*
X142235000Y-81048816D01*
X142176011Y-80752257D01*
X142060299Y-80472905D01*
X141892312Y-80221495D01*
X141678505Y-80007688D01*
X141427095Y-79839701D01*
X141147743Y-79723989D01*
X140851184Y-79665000D01*
X140548816Y-79665000D01*
X140252257Y-79723989D01*
X139972905Y-79839701D01*
X139721495Y-80007688D01*
X139507688Y-80221495D01*
X139339701Y-80472905D01*
X139223989Y-80752257D01*
X139165000Y-81048816D01*
X139165000Y-81351184D01*
X139221246Y-81633952D01*
X137899003Y-82956196D01*
X137869999Y-82979999D01*
X137846196Y-83009003D01*
X137699007Y-83156192D01*
X137698996Y-83156201D01*
X136343998Y-84511201D01*
X136315000Y-84534999D01*
X136291202Y-84563997D01*
X136291201Y-84563998D01*
X136220026Y-84650724D01*
X136149454Y-84782754D01*
X136105998Y-84926015D01*
X136091324Y-85075000D01*
X136095001Y-85112332D01*
X136095000Y-89182155D01*
X135987708Y-89270208D01*
X135878042Y-89403836D01*
X135796553Y-89556291D01*
X135746372Y-89721715D01*
X135729428Y-89893750D01*
X135729428Y-90806250D01*
X135746372Y-90978285D01*
X135796553Y-91143709D01*
X135878042Y-91296164D01*
X135987708Y-91429792D01*
X136121336Y-91539458D01*
X136270206Y-91619031D01*
X136173836Y-91670542D01*
X136040208Y-91780208D01*
X135970000Y-91865756D01*
X135899792Y-91780208D01*
X135766164Y-91670542D01*
X135613709Y-91589053D01*
X135448285Y-91538872D01*
X135276250Y-91521928D01*
X134788750Y-91521928D01*
X134616715Y-91538872D01*
X134451291Y-91589053D01*
X134298836Y-91670542D01*
X134165208Y-91780208D01*
X134055542Y-91913836D01*
X133974053Y-92066291D01*
X133923872Y-92231715D01*
X133906928Y-92403750D01*
X133906928Y-92910771D01*
X133389867Y-93427832D01*
X133353475Y-93373368D01*
X133146632Y-93166525D01*
X132972240Y-93050000D01*
X133146632Y-92933475D01*
X133353475Y-92726632D01*
X133515990Y-92483411D01*
X133627932Y-92213158D01*
X133685000Y-91926260D01*
X133685000Y-91633740D01*
X133627932Y-91346842D01*
X133515990Y-91076589D01*
X133353475Y-90833368D01*
X133146632Y-90626525D01*
X132972240Y-90510000D01*
X133146632Y-90393475D01*
X133353475Y-90186632D01*
X133515990Y-89943411D01*
X133627932Y-89673158D01*
X133685000Y-89386260D01*
X133685000Y-89093740D01*
X133627932Y-88806842D01*
X133515990Y-88536589D01*
X133353475Y-88293368D01*
X133146632Y-88086525D01*
X132972240Y-87970000D01*
X133146632Y-87853475D01*
X133353475Y-87646632D01*
X133515990Y-87403411D01*
X133627932Y-87133158D01*
X133685000Y-86846260D01*
X133685000Y-86553740D01*
X133627932Y-86266842D01*
X133515990Y-85996589D01*
X133353475Y-85753368D01*
X133146632Y-85546525D01*
X132972240Y-85430000D01*
X133146632Y-85313475D01*
X133353475Y-85106632D01*
X133515990Y-84863411D01*
X133627932Y-84593158D01*
X133685000Y-84306260D01*
X133685000Y-84013740D01*
X133627932Y-83726842D01*
X133515990Y-83456589D01*
X133353475Y-83213368D01*
X133146632Y-83006525D01*
X132972240Y-82890000D01*
X133146632Y-82773475D01*
X133353475Y-82566632D01*
X133515990Y-82323411D01*
X133627932Y-82053158D01*
X133685000Y-81766260D01*
X133685000Y-81473740D01*
X133627932Y-81186842D01*
X133515990Y-80916589D01*
X133353475Y-80673368D01*
X133146632Y-80466525D01*
X132972240Y-80350000D01*
X133146632Y-80233475D01*
X133353475Y-80026632D01*
X133515990Y-79783411D01*
X133627932Y-79513158D01*
X133685000Y-79226260D01*
X133685000Y-78933740D01*
X133627932Y-78646842D01*
X133515990Y-78376589D01*
X133353475Y-78133368D01*
X133146632Y-77926525D01*
X132903411Y-77764010D01*
X132633158Y-77652068D01*
X132346260Y-77595000D01*
X132053740Y-77595000D01*
X131766842Y-77652068D01*
X131496589Y-77764010D01*
X131253368Y-77926525D01*
X131046525Y-78133368D01*
X130884010Y-78376589D01*
X130772068Y-78646842D01*
X130715000Y-78933740D01*
X130715000Y-79226260D01*
X130772068Y-79513158D01*
X130884010Y-79783411D01*
X131046525Y-80026632D01*
X131253368Y-80233475D01*
X131427760Y-80350000D01*
X131253368Y-80466525D01*
X131046525Y-80673368D01*
X130884010Y-80916589D01*
X130772068Y-81186842D01*
X130715000Y-81473740D01*
X130715000Y-81766260D01*
X130772068Y-82053158D01*
X130884010Y-82323411D01*
X131046525Y-82566632D01*
X131253368Y-82773475D01*
X131427760Y-82890000D01*
X131253368Y-83006525D01*
X131046525Y-83213368D01*
X130884010Y-83456589D01*
X130772068Y-83726842D01*
X130715000Y-84013740D01*
X130715000Y-84306260D01*
X130772068Y-84593158D01*
X130884010Y-84863411D01*
X131046525Y-85106632D01*
X131253368Y-85313475D01*
X131427760Y-85430000D01*
X131253368Y-85546525D01*
X131046525Y-85753368D01*
X130884010Y-85996589D01*
X130772068Y-86266842D01*
X130715000Y-86553740D01*
X130715000Y-86846260D01*
X130772068Y-87133158D01*
X130884010Y-87403411D01*
X131046525Y-87646632D01*
X131253368Y-87853475D01*
X131427760Y-87970000D01*
X131253368Y-88086525D01*
X131046525Y-88293368D01*
X130884010Y-88536589D01*
X130772068Y-88806842D01*
X130715000Y-89093740D01*
X130715000Y-89386260D01*
X130772068Y-89673158D01*
X130884010Y-89943411D01*
X131046525Y-90186632D01*
X131253368Y-90393475D01*
X131427760Y-90510000D01*
X131253368Y-90626525D01*
X131046525Y-90833368D01*
X130884010Y-91076589D01*
X130772068Y-91346842D01*
X130715000Y-91633740D01*
X130715000Y-91926260D01*
X130772068Y-92213158D01*
X130884010Y-92483411D01*
X131046525Y-92726632D01*
X131253368Y-92933475D01*
X131427760Y-93050000D01*
X131253368Y-93166525D01*
X131046525Y-93373368D01*
X130884010Y-93616589D01*
X130772068Y-93886842D01*
X130715000Y-94173740D01*
X130715000Y-94466260D01*
X130772068Y-94753158D01*
X130884010Y-95023411D01*
X131046525Y-95266632D01*
X131253368Y-95473475D01*
X131427760Y-95590000D01*
X131253368Y-95706525D01*
X131046525Y-95913368D01*
X130884010Y-96156589D01*
X130772068Y-96426842D01*
X130715000Y-96713740D01*
X130715000Y-97006260D01*
X130772068Y-97293158D01*
X130884010Y-97563411D01*
X131046525Y-97806632D01*
X131253368Y-98013475D01*
X131427760Y-98130000D01*
X131253368Y-98246525D01*
X131046525Y-98453368D01*
X130884010Y-98696589D01*
X130772068Y-98966842D01*
X130715000Y-99253740D01*
X130715000Y-99546260D01*
X130772068Y-99833158D01*
X130884010Y-100103411D01*
X131046525Y-100346632D01*
X131253368Y-100553475D01*
X131427760Y-100670000D01*
X131253368Y-100786525D01*
X131046525Y-100993368D01*
X130884010Y-101236589D01*
X130772068Y-101506842D01*
X130715000Y-101793740D01*
X130715000Y-102086260D01*
X130772068Y-102373158D01*
X130884010Y-102643411D01*
X131046525Y-102886632D01*
X131253368Y-103093475D01*
X131496589Y-103255990D01*
X131766842Y-103367932D01*
X132053740Y-103425000D01*
X132346260Y-103425000D01*
X132633158Y-103367932D01*
X132903411Y-103255990D01*
X133146632Y-103093475D01*
X133353475Y-102886632D01*
X133515990Y-102643411D01*
X133627932Y-102373158D01*
X133685000Y-102086260D01*
X133685000Y-101793740D01*
X133627932Y-101506842D01*
X133515990Y-101236589D01*
X133353475Y-100993368D01*
X133146632Y-100786525D01*
X132972240Y-100670000D01*
X133146632Y-100553475D01*
X133353475Y-100346632D01*
X133515990Y-100103411D01*
X133627932Y-99833158D01*
X133685000Y-99546260D01*
X133685000Y-99253740D01*
X133641209Y-99033592D01*
X135596003Y-97078799D01*
X135625001Y-97055001D01*
X135665002Y-97006260D01*
X135719974Y-96939277D01*
X135790546Y-96807247D01*
X135834003Y-96663986D01*
X135837980Y-96623606D01*
X135952292Y-96529792D01*
X136022500Y-96444244D01*
X136092708Y-96529792D01*
X136226336Y-96639458D01*
X136378791Y-96720947D01*
X136544215Y-96771128D01*
X136716250Y-96788072D01*
X137203750Y-96788072D01*
X137375785Y-96771128D01*
X137541209Y-96720947D01*
X137693664Y-96639458D01*
X137827292Y-96529792D01*
X137936958Y-96396164D01*
X138018447Y-96243709D01*
X138068628Y-96078285D01*
X138075329Y-96010249D01*
X138100001Y-95990001D01*
X138123804Y-95960997D01*
X140221522Y-93863280D01*
X140252257Y-93876011D01*
X140548816Y-93935000D01*
X140550198Y-93935000D01*
X135389003Y-99096196D01*
X135359999Y-99119999D01*
X135304871Y-99187174D01*
X135265026Y-99235724D01*
X135194455Y-99367753D01*
X135194454Y-99367754D01*
X135150997Y-99511015D01*
X135140000Y-99622668D01*
X135140000Y-99622678D01*
X135136324Y-99660000D01*
X135140000Y-99697323D01*
X135140001Y-101265196D01*
X132675199Y-103730000D01*
X124274802Y-103730000D01*
X119433804Y-98889003D01*
X119410001Y-98859999D01*
X119294276Y-98765026D01*
X119162247Y-98694454D01*
X119018986Y-98650997D01*
X118907333Y-98640000D01*
X118907322Y-98640000D01*
X118870000Y-98636324D01*
X118832678Y-98640000D01*
X118278178Y-98640000D01*
X118153475Y-98453368D01*
X117946632Y-98246525D01*
X117772240Y-98130000D01*
X117946632Y-98013475D01*
X118153475Y-97806632D01*
X118315990Y-97563411D01*
X118427932Y-97293158D01*
X118485000Y-97006260D01*
X118485000Y-96713740D01*
X118427932Y-96426842D01*
X118315990Y-96156589D01*
X118153475Y-95913368D01*
X117946632Y-95706525D01*
X117772240Y-95590000D01*
X117946632Y-95473475D01*
X118153475Y-95266632D01*
X118315990Y-95023411D01*
X118427932Y-94753158D01*
X118485000Y-94466260D01*
X118485000Y-94173740D01*
X118441209Y-93953592D01*
X119711013Y-92683789D01*
X119740011Y-92659991D01*
X119774238Y-92618285D01*
X119834984Y-92544267D01*
X119905556Y-92412237D01*
X119926316Y-92343799D01*
X119949013Y-92268976D01*
X119960010Y-92157323D01*
X119960010Y-92157313D01*
X119963686Y-92119990D01*
X119960010Y-92082668D01*
X119960010Y-80269872D01*
X122285000Y-80269872D01*
X122285000Y-80710128D01*
X122370890Y-81141925D01*
X122539369Y-81548669D01*
X122783962Y-81914729D01*
X123095271Y-82226038D01*
X123461331Y-82470631D01*
X123868075Y-82639110D01*
X124299872Y-82725000D01*
X124740128Y-82725000D01*
X125171925Y-82639110D01*
X125578669Y-82470631D01*
X125944729Y-82226038D01*
X126256038Y-81914729D01*
X126500631Y-81548669D01*
X126669110Y-81141925D01*
X126755000Y-80710128D01*
X126755000Y-80269872D01*
X126669110Y-79838075D01*
X126500631Y-79431331D01*
X126256038Y-79065271D01*
X125944729Y-78753962D01*
X125578669Y-78509369D01*
X125171925Y-78340890D01*
X124740128Y-78255000D01*
X124299872Y-78255000D01*
X123868075Y-78340890D01*
X123461331Y-78509369D01*
X123095271Y-78753962D01*
X122783962Y-79065271D01*
X122539369Y-79431331D01*
X122370890Y-79838075D01*
X122285000Y-80269872D01*
X119960010Y-80269872D01*
X119960010Y-66801833D01*
X120198692Y-66874236D01*
X120480000Y-66901943D01*
X120761309Y-66874236D01*
X121031808Y-66792182D01*
X121281101Y-66658932D01*
X121499608Y-66479608D01*
X121678932Y-66261101D01*
X121812182Y-66011808D01*
X121894236Y-65741309D01*
X121915000Y-65530491D01*
X121915000Y-64589509D01*
X126665000Y-64589509D01*
X126665000Y-65530492D01*
X126685764Y-65741309D01*
X126767818Y-66011808D01*
X126901068Y-66261101D01*
X127080393Y-66479608D01*
X127298900Y-66658932D01*
X127548193Y-66792182D01*
X127818692Y-66874236D01*
X128100000Y-66901943D01*
X128381309Y-66874236D01*
X128651808Y-66792182D01*
X128901101Y-66658932D01*
X129119608Y-66479608D01*
X129298932Y-66261101D01*
X129370000Y-66128142D01*
X129441068Y-66261101D01*
X129452683Y-66275254D01*
X129423001Y-75439589D01*
X129425361Y-75464373D01*
X129432511Y-75488221D01*
X129444175Y-75510215D01*
X129459907Y-75529511D01*
X129479101Y-75545368D01*
X129501019Y-75557175D01*
X129524820Y-75564479D01*
X129550505Y-75566999D01*
X134580505Y-75546999D01*
X134605272Y-75544460D01*
X134629067Y-75537139D01*
X134650977Y-75525315D01*
X134670159Y-75509445D01*
X134685876Y-75490137D01*
X134697525Y-75468134D01*
X134704657Y-75444281D01*
X134706998Y-75419270D01*
X134687733Y-72067094D01*
X148099906Y-72077000D01*
X148124684Y-72074578D01*
X148148514Y-72067369D01*
X148170479Y-72055649D01*
X148189736Y-72039869D01*
X148205545Y-72020635D01*
X148217297Y-71998687D01*
X148224541Y-71974868D01*
X148227000Y-71950322D01*
X148257000Y-60130322D01*
X148254622Y-60105540D01*
X148247456Y-60081697D01*
X148235775Y-60059711D01*
X148220030Y-60040426D01*
X148200825Y-60024583D01*
X148178898Y-60012791D01*
X148155093Y-60005504D01*
X148130000Y-60003000D01*
X131960000Y-60003000D01*
X131935224Y-60005440D01*
X131911399Y-60012667D01*
X131889443Y-60024403D01*
X131870197Y-60040197D01*
X131854403Y-60059443D01*
X131842667Y-60081399D01*
X131835440Y-60105224D01*
X131833001Y-60129569D01*
X131823428Y-62953535D01*
X129589462Y-62963001D01*
X129564696Y-62965546D01*
X129540902Y-62972874D01*
X129518996Y-62984703D01*
X129499818Y-63000579D01*
X129484105Y-63019891D01*
X129472462Y-63041897D01*
X129465336Y-63065752D01*
X129463001Y-63089589D01*
X129460586Y-63835117D01*
X129441068Y-63858900D01*
X129370000Y-63991858D01*
X129298932Y-63858899D01*
X129119607Y-63640392D01*
X128901100Y-63461068D01*
X128651807Y-63327818D01*
X128381308Y-63245764D01*
X128100000Y-63218057D01*
X127818691Y-63245764D01*
X127548192Y-63327818D01*
X127298899Y-63461068D01*
X127080392Y-63640393D01*
X126901068Y-63858900D01*
X126767818Y-64108193D01*
X126685764Y-64378692D01*
X126665000Y-64589509D01*
X121915000Y-64589509D01*
X121915000Y-64589508D01*
X121894236Y-64378691D01*
X121812182Y-64108192D01*
X121678932Y-63858899D01*
X121499607Y-63640392D01*
X121281100Y-63461068D01*
X121031807Y-63327818D01*
X120761308Y-63245764D01*
X120480000Y-63218057D01*
X120198691Y-63245764D01*
X119928192Y-63327818D01*
X119678899Y-63461068D01*
X119460392Y-63640393D01*
X119281068Y-63858900D01*
X119210000Y-63991858D01*
X119138932Y-63858899D01*
X118959607Y-63640392D01*
X118741100Y-63461068D01*
X118491807Y-63327818D01*
X118221308Y-63245764D01*
X117940000Y-63218057D01*
X117658691Y-63245764D01*
X117388192Y-63327818D01*
X117138899Y-63461068D01*
X116920392Y-63640393D01*
X116827581Y-63753483D01*
X116825812Y-63735518D01*
X116789502Y-63615820D01*
X116730537Y-63505506D01*
X116651185Y-63408815D01*
X116554494Y-63329463D01*
X116444180Y-63270498D01*
X116324482Y-63234188D01*
X116200000Y-63221928D01*
X114600000Y-63221928D01*
X114475518Y-63234188D01*
X114355820Y-63270498D01*
X114245506Y-63329463D01*
X114148815Y-63408815D01*
X114069463Y-63505506D01*
X114010498Y-63615820D01*
X113974188Y-63735518D01*
X113961928Y-63860000D01*
X113961928Y-66260000D01*
X113974188Y-66384482D01*
X114010498Y-66504180D01*
X114069463Y-66614494D01*
X114148815Y-66711185D01*
X114245506Y-66790537D01*
X114355820Y-66849502D01*
X114475518Y-66885812D01*
X114600000Y-66898072D01*
X114684088Y-66898072D01*
X114694454Y-66932246D01*
X114765026Y-67064276D01*
X114780956Y-67083686D01*
X114860000Y-67180001D01*
X114888998Y-67203799D01*
X116386200Y-68701002D01*
X116409999Y-68730001D01*
X116438997Y-68753799D01*
X116525723Y-68824974D01*
X116625041Y-68878061D01*
X116657753Y-68895546D01*
X116801014Y-68939003D01*
X116912667Y-68950000D01*
X116912677Y-68950000D01*
X116949999Y-68953676D01*
X116987322Y-68950000D01*
X117805199Y-68950000D01*
X117990000Y-69134802D01*
X117990000Y-72528895D01*
X117974482Y-72524188D01*
X117850000Y-72511928D01*
X116586730Y-72511928D01*
X113563804Y-69489003D01*
X113540001Y-69459999D01*
X113424276Y-69365026D01*
X113292247Y-69294454D01*
X113148986Y-69250997D01*
X113037333Y-69240000D01*
X113037322Y-69240000D01*
X113000000Y-69236324D01*
X112962678Y-69240000D01*
X109738313Y-69240000D01*
X109592312Y-69021495D01*
X109378505Y-68807688D01*
X109127095Y-68639701D01*
X108847743Y-68523989D01*
X108551184Y-68465000D01*
X108248816Y-68465000D01*
X107952257Y-68523989D01*
X107672905Y-68639701D01*
X107421495Y-68807688D01*
X107207688Y-69021495D01*
X107039701Y-69272905D01*
X106923989Y-69552257D01*
X106865000Y-69848816D01*
X106865000Y-70151184D01*
X106923989Y-70447743D01*
X107039701Y-70727095D01*
X107207688Y-70978505D01*
X107421495Y-71192312D01*
X107672905Y-71360299D01*
X107952257Y-71476011D01*
X108248816Y-71535000D01*
X108551184Y-71535000D01*
X108847743Y-71476011D01*
X109127095Y-71360299D01*
X109378505Y-71192312D01*
X109592312Y-70978505D01*
X109738313Y-70760000D01*
X112685199Y-70760000D01*
X115511928Y-73586730D01*
X115511928Y-74850000D01*
X115524188Y-74974482D01*
X115560498Y-75094180D01*
X115619463Y-75204494D01*
X115698815Y-75301185D01*
X115795506Y-75380537D01*
X115905820Y-75439502D01*
X115978380Y-75461513D01*
X115846525Y-75593368D01*
X115721822Y-75780000D01*
X114747322Y-75780000D01*
X114709999Y-75776324D01*
X114672676Y-75780000D01*
X114672667Y-75780000D01*
X114561014Y-75790997D01*
X114417753Y-75834454D01*
X114285724Y-75905026D01*
X114169999Y-75999999D01*
X114146201Y-76028997D01*
X109737065Y-80438134D01*
X109592312Y-80221495D01*
X109378505Y-80007688D01*
X109127095Y-79839701D01*
X108847743Y-79723989D01*
X108551184Y-79665000D01*
X108248816Y-79665000D01*
X107952257Y-79723989D01*
X107672905Y-79839701D01*
X107421495Y-80007688D01*
X107207688Y-80221495D01*
X107039701Y-80472905D01*
X106923989Y-80752257D01*
X106865000Y-81048816D01*
X106865000Y-81351184D01*
X106923989Y-81647743D01*
X107039701Y-81927095D01*
X107207688Y-82178505D01*
X107421495Y-82392312D01*
X107672905Y-82560299D01*
X107952257Y-82676011D01*
X108248816Y-82735000D01*
X108551184Y-82735000D01*
X108847743Y-82676011D01*
X109127095Y-82560299D01*
X109378505Y-82392312D01*
X109592312Y-82178505D01*
X109738313Y-81960000D01*
X110012678Y-81960000D01*
X110050000Y-81963676D01*
X110087322Y-81960000D01*
X110087333Y-81960000D01*
X110198986Y-81949003D01*
X110342247Y-81905546D01*
X110474276Y-81834974D01*
X110590001Y-81740001D01*
X110613804Y-81710997D01*
X115024802Y-77300000D01*
X115721822Y-77300000D01*
X115846525Y-77486632D01*
X116053368Y-77693475D01*
X116296589Y-77855990D01*
X116566842Y-77967932D01*
X116853740Y-78025000D01*
X117146260Y-78025000D01*
X117433158Y-77967932D01*
X117703411Y-77855990D01*
X117946632Y-77693475D01*
X117990000Y-77650107D01*
X117990001Y-83049894D01*
X117946632Y-83006525D01*
X117703411Y-82844010D01*
X117433158Y-82732068D01*
X117146260Y-82675000D01*
X116853740Y-82675000D01*
X116566842Y-82732068D01*
X116296589Y-82844010D01*
X116053368Y-83006525D01*
X115846525Y-83213368D01*
X115684010Y-83456589D01*
X115572068Y-83726842D01*
X115515000Y-84013740D01*
X115515000Y-84306260D01*
X115572068Y-84593158D01*
X115684010Y-84863411D01*
X115846525Y-85106632D01*
X116053368Y-85313475D01*
X116227760Y-85430000D01*
X116053368Y-85546525D01*
X115846525Y-85753368D01*
X115684010Y-85996589D01*
X115572068Y-86266842D01*
X115515000Y-86553740D01*
X115515000Y-86846260D01*
X115572068Y-87133158D01*
X115684010Y-87403411D01*
X115846525Y-87646632D01*
X116053368Y-87853475D01*
X116227760Y-87970000D01*
X116053368Y-88086525D01*
X115846525Y-88293368D01*
X115684010Y-88536589D01*
X115572068Y-88806842D01*
X115569451Y-88820000D01*
X108547323Y-88820000D01*
X108510000Y-88816324D01*
X108472677Y-88820000D01*
X108472667Y-88820000D01*
X108361014Y-88830997D01*
X108217753Y-88874454D01*
X108085724Y-88945026D01*
X107969999Y-89039999D01*
X107946201Y-89068997D01*
X106388998Y-90626201D01*
X106360000Y-90649999D01*
X106336202Y-90678997D01*
X106336201Y-90678998D01*
X106265026Y-90765724D01*
X106194454Y-90897754D01*
X106170026Y-90978285D01*
X106151397Y-91039701D01*
X106150998Y-91041015D01*
X106136324Y-91190000D01*
X99685000Y-91190000D01*
X99685000Y-86048816D01*
X106865000Y-86048816D01*
X106865000Y-86351184D01*
X106923989Y-86647743D01*
X107039701Y-86927095D01*
X107207688Y-87178505D01*
X107421495Y-87392312D01*
X107672905Y-87560299D01*
X107952257Y-87676011D01*
X108248816Y-87735000D01*
X108551184Y-87735000D01*
X108847743Y-87676011D01*
X109127095Y-87560299D01*
X109378505Y-87392312D01*
X109592312Y-87178505D01*
X109760299Y-86927095D01*
X109876011Y-86647743D01*
X109935000Y-86351184D01*
X109935000Y-86048816D01*
X109876011Y-85752257D01*
X109760299Y-85472905D01*
X109592312Y-85221495D01*
X109378505Y-85007688D01*
X109127095Y-84839701D01*
X108847743Y-84723989D01*
X108551184Y-84665000D01*
X108248816Y-84665000D01*
X107952257Y-84723989D01*
X107672905Y-84839701D01*
X107421495Y-85007688D01*
X107207688Y-85221495D01*
X107039701Y-85472905D01*
X106923989Y-85752257D01*
X106865000Y-86048816D01*
X99685000Y-86048816D01*
X99685000Y-74848816D01*
X106865000Y-74848816D01*
X106865000Y-75151184D01*
X106923989Y-75447743D01*
X107039701Y-75727095D01*
X107207688Y-75978505D01*
X107421495Y-76192312D01*
X107672905Y-76360299D01*
X107952257Y-76476011D01*
X108248816Y-76535000D01*
X108551184Y-76535000D01*
X108847743Y-76476011D01*
X109127095Y-76360299D01*
X109378505Y-76192312D01*
X109592312Y-75978505D01*
X109760299Y-75727095D01*
X109876011Y-75447743D01*
X109935000Y-75151184D01*
X109935000Y-74848816D01*
X109876011Y-74552257D01*
X109760299Y-74272905D01*
X109592312Y-74021495D01*
X109378505Y-73807688D01*
X109127095Y-73639701D01*
X108847743Y-73523989D01*
X108551184Y-73465000D01*
X108248816Y-73465000D01*
X107952257Y-73523989D01*
X107672905Y-73639701D01*
X107421495Y-73807688D01*
X107207688Y-74021495D01*
X107039701Y-74272905D01*
X106923989Y-74552257D01*
X106865000Y-74848816D01*
X99685000Y-74848816D01*
X99685000Y-57189872D01*
X100215000Y-57189872D01*
X100215000Y-57630128D01*
X100300890Y-58061925D01*
X100469369Y-58468669D01*
X100713962Y-58834729D01*
X101025271Y-59146038D01*
X101391331Y-59390631D01*
X101798075Y-59559110D01*
X102229872Y-59645000D01*
X102670128Y-59645000D01*
X103101925Y-59559110D01*
X103508669Y-59390631D01*
X103874729Y-59146038D01*
X104186038Y-58834729D01*
X104430631Y-58468669D01*
X104599110Y-58061925D01*
X104685000Y-57630128D01*
X104685000Y-57189872D01*
X104641167Y-56969509D01*
X113965000Y-56969509D01*
X113965000Y-57910492D01*
X113985764Y-58121309D01*
X114067818Y-58391808D01*
X114201068Y-58641101D01*
X114380393Y-58859608D01*
X114598900Y-59038932D01*
X114848193Y-59172182D01*
X115118692Y-59254236D01*
X115400000Y-59281943D01*
X115561259Y-59266060D01*
X116814428Y-60519231D01*
X116814428Y-61026250D01*
X116831372Y-61198285D01*
X116881553Y-61363709D01*
X116963042Y-61516164D01*
X117072708Y-61649792D01*
X117206336Y-61759458D01*
X117358791Y-61840947D01*
X117524215Y-61891128D01*
X117696250Y-61908072D01*
X118183750Y-61908072D01*
X118355785Y-61891128D01*
X118521209Y-61840947D01*
X118673664Y-61759458D01*
X118807292Y-61649792D01*
X118916958Y-61516164D01*
X118998447Y-61363709D01*
X119048628Y-61198285D01*
X119065572Y-61026250D01*
X119065572Y-60113750D01*
X119048628Y-59941715D01*
X118998447Y-59776291D01*
X118916958Y-59623836D01*
X118807292Y-59490208D01*
X118673664Y-59380542D01*
X118521209Y-59299053D01*
X118355785Y-59248872D01*
X118267618Y-59240188D01*
X118491808Y-59172182D01*
X118741101Y-59038932D01*
X118959608Y-58859608D01*
X119138932Y-58641101D01*
X119210000Y-58508142D01*
X119281068Y-58641101D01*
X119460393Y-58859608D01*
X119678900Y-59038932D01*
X119928193Y-59172182D01*
X120198692Y-59254236D01*
X120480000Y-59281943D01*
X120761309Y-59254236D01*
X121031808Y-59172182D01*
X121281101Y-59038932D01*
X121499608Y-58859608D01*
X121678932Y-58641101D01*
X121812182Y-58391808D01*
X121894236Y-58121309D01*
X121915000Y-57910491D01*
X121915000Y-56969509D01*
X126665000Y-56969509D01*
X126665000Y-57910492D01*
X126685764Y-58121309D01*
X126767818Y-58391808D01*
X126901068Y-58641101D01*
X127080393Y-58859608D01*
X127298900Y-59038932D01*
X127548193Y-59172182D01*
X127818692Y-59254236D01*
X128100000Y-59281943D01*
X128381309Y-59254236D01*
X128651808Y-59172182D01*
X128901101Y-59038932D01*
X129119608Y-58859608D01*
X129298932Y-58641101D01*
X129370000Y-58508142D01*
X129441068Y-58641101D01*
X129620393Y-58859608D01*
X129838900Y-59038932D01*
X130088193Y-59172182D01*
X130358692Y-59254236D01*
X130640000Y-59281943D01*
X130921309Y-59254236D01*
X131191808Y-59172182D01*
X131441101Y-59038932D01*
X131659608Y-58859608D01*
X131838932Y-58641101D01*
X131972182Y-58391808D01*
X132054236Y-58121309D01*
X132075000Y-57910491D01*
X132075000Y-57189872D01*
X144355000Y-57189872D01*
X144355000Y-57630128D01*
X144440890Y-58061925D01*
X144609369Y-58468669D01*
X144853962Y-58834729D01*
X145165271Y-59146038D01*
X145531331Y-59390631D01*
X145938075Y-59559110D01*
X146369872Y-59645000D01*
X146810128Y-59645000D01*
X147241925Y-59559110D01*
X147648669Y-59390631D01*
X148014729Y-59146038D01*
X148326038Y-58834729D01*
X148570631Y-58468669D01*
X148739110Y-58061925D01*
X148825000Y-57630128D01*
X148825000Y-57189872D01*
X148739110Y-56758075D01*
X148570631Y-56351331D01*
X148326038Y-55985271D01*
X148014729Y-55673962D01*
X147648669Y-55429369D01*
X147241925Y-55260890D01*
X146810128Y-55175000D01*
X146369872Y-55175000D01*
X145938075Y-55260890D01*
X145531331Y-55429369D01*
X145165271Y-55673962D01*
X144853962Y-55985271D01*
X144609369Y-56351331D01*
X144440890Y-56758075D01*
X144355000Y-57189872D01*
X132075000Y-57189872D01*
X132075000Y-56969508D01*
X132054236Y-56758691D01*
X131972182Y-56488192D01*
X131838932Y-56238899D01*
X131659607Y-56020392D01*
X131441100Y-55841068D01*
X131191807Y-55707818D01*
X130921308Y-55625764D01*
X130640000Y-55598057D01*
X130358691Y-55625764D01*
X130088192Y-55707818D01*
X129838899Y-55841068D01*
X129620392Y-56020393D01*
X129441068Y-56238900D01*
X129370000Y-56371858D01*
X129298932Y-56238899D01*
X129119607Y-56020392D01*
X128901100Y-55841068D01*
X128651807Y-55707818D01*
X128381308Y-55625764D01*
X128100000Y-55598057D01*
X127818691Y-55625764D01*
X127548192Y-55707818D01*
X127298899Y-55841068D01*
X127080392Y-56020393D01*
X126901068Y-56238900D01*
X126767818Y-56488193D01*
X126685764Y-56758692D01*
X126665000Y-56969509D01*
X121915000Y-56969509D01*
X121915000Y-56969508D01*
X121894236Y-56758691D01*
X121812182Y-56488192D01*
X121678932Y-56238899D01*
X121499607Y-56020392D01*
X121281100Y-55841068D01*
X121031807Y-55707818D01*
X120761308Y-55625764D01*
X120480000Y-55598057D01*
X120198691Y-55625764D01*
X119928192Y-55707818D01*
X119678899Y-55841068D01*
X119460392Y-56020393D01*
X119281068Y-56238900D01*
X119210000Y-56371858D01*
X119138932Y-56238899D01*
X118959607Y-56020392D01*
X118741100Y-55841068D01*
X118491807Y-55707818D01*
X118221308Y-55625764D01*
X117940000Y-55598057D01*
X117658691Y-55625764D01*
X117388192Y-55707818D01*
X117138899Y-55841068D01*
X116920392Y-56020393D01*
X116741068Y-56238900D01*
X116670000Y-56371858D01*
X116598932Y-56238899D01*
X116419607Y-56020392D01*
X116201100Y-55841068D01*
X115951807Y-55707818D01*
X115681308Y-55625764D01*
X115400000Y-55598057D01*
X115118691Y-55625764D01*
X114848192Y-55707818D01*
X114598899Y-55841068D01*
X114380392Y-56020393D01*
X114201068Y-56238900D01*
X114067818Y-56488193D01*
X113985764Y-56758692D01*
X113965000Y-56969509D01*
X104641167Y-56969509D01*
X104599110Y-56758075D01*
X104430631Y-56351331D01*
X104186038Y-55985271D01*
X103874729Y-55673962D01*
X103508669Y-55429369D01*
X103101925Y-55260890D01*
X102670128Y-55175000D01*
X102229872Y-55175000D01*
X101798075Y-55260890D01*
X101391331Y-55429369D01*
X101025271Y-55673962D01*
X100713962Y-55985271D01*
X100469369Y-56351331D01*
X100300890Y-56758075D01*
X100215000Y-57189872D01*
X99685000Y-57189872D01*
X99685000Y-56033505D01*
X99713267Y-55745218D01*
X99787259Y-55500145D01*
X99907443Y-55274110D01*
X100069248Y-55075719D01*
X100266497Y-54912540D01*
X100491687Y-54790780D01*
X100736247Y-54715076D01*
X101022398Y-54685000D01*
X147966495Y-54685000D01*
X148254782Y-54713267D01*
G37*
X148254782Y-54713267D02*
X148499855Y-54787259D01*
X148725890Y-54907443D01*
X148924281Y-55069248D01*
X149087460Y-55266497D01*
X149209220Y-55491687D01*
X149284924Y-55736247D01*
X149315000Y-56022398D01*
X149315001Y-104966484D01*
X149286733Y-105254782D01*
X149212741Y-105499855D01*
X149092554Y-105725893D01*
X148930754Y-105924279D01*
X148733503Y-106087460D01*
X148508310Y-106209221D01*
X148263753Y-106284924D01*
X147977602Y-106315000D01*
X101033505Y-106315000D01*
X100745218Y-106286733D01*
X100500145Y-106212741D01*
X100274107Y-106092554D01*
X100075721Y-105930754D01*
X99912540Y-105733503D01*
X99790779Y-105508310D01*
X99715076Y-105263753D01*
X99685000Y-104977602D01*
X99685000Y-103359872D01*
X100205000Y-103359872D01*
X100205000Y-103800128D01*
X100290890Y-104231925D01*
X100459369Y-104638669D01*
X100703962Y-105004729D01*
X101015271Y-105316038D01*
X101381331Y-105560631D01*
X101788075Y-105729110D01*
X102219872Y-105815000D01*
X102660128Y-105815000D01*
X103091925Y-105729110D01*
X103498669Y-105560631D01*
X103864729Y-105316038D01*
X104176038Y-105004729D01*
X104420631Y-104638669D01*
X104589110Y-104231925D01*
X104675000Y-103800128D01*
X104675000Y-103359872D01*
X104589110Y-102928075D01*
X104420631Y-102521331D01*
X104176038Y-102155271D01*
X103864729Y-101843962D01*
X103498669Y-101599369D01*
X103091925Y-101430890D01*
X102660128Y-101345000D01*
X102219872Y-101345000D01*
X101788075Y-101430890D01*
X101381331Y-101599369D01*
X101015271Y-101843962D01*
X100703962Y-102155271D01*
X100459369Y-102521331D01*
X100290890Y-102928075D01*
X100205000Y-103359872D01*
X99685000Y-103359872D01*
X99685000Y-91190000D01*
X106136324Y-91190000D01*
X106140001Y-91227332D01*
X106140000Y-95862677D01*
X106136324Y-95900000D01*
X106140000Y-95937322D01*
X106140000Y-95937332D01*
X106150997Y-96048985D01*
X106183638Y-96156589D01*
X106194454Y-96192246D01*
X106265026Y-96324276D01*
X106285315Y-96348998D01*
X106359999Y-96440001D01*
X106389003Y-96463804D01*
X106916269Y-96991070D01*
X106865000Y-97248816D01*
X106865000Y-97551184D01*
X106923989Y-97847743D01*
X107039701Y-98127095D01*
X107207688Y-98378505D01*
X107421495Y-98592312D01*
X107672905Y-98760299D01*
X107952257Y-98876011D01*
X108248816Y-98935000D01*
X108551184Y-98935000D01*
X108847743Y-98876011D01*
X109127095Y-98760299D01*
X109378505Y-98592312D01*
X109592312Y-98378505D01*
X109760299Y-98127095D01*
X109876011Y-97847743D01*
X109935000Y-97551184D01*
X109935000Y-97248816D01*
X109876011Y-96952257D01*
X109760299Y-96672905D01*
X109592312Y-96421495D01*
X109378505Y-96207688D01*
X109127095Y-96039701D01*
X108847743Y-95923989D01*
X108551184Y-95865000D01*
X108248816Y-95865000D01*
X107991070Y-95916269D01*
X107660000Y-95585199D01*
X107660000Y-93751676D01*
X107672905Y-93760299D01*
X107952257Y-93876011D01*
X108248816Y-93935000D01*
X108551184Y-93935000D01*
X108847743Y-93876011D01*
X109127095Y-93760299D01*
X109378505Y-93592312D01*
X109592312Y-93378505D01*
X109760299Y-93127095D01*
X109876011Y-92847743D01*
X109895453Y-92750000D01*
X110796327Y-92750000D01*
X110806553Y-92783709D01*
X110888042Y-92936164D01*
X110997708Y-93069792D01*
X111131336Y-93179458D01*
X111283791Y-93260947D01*
X111449215Y-93311128D01*
X111621250Y-93328072D01*
X112108750Y-93328072D01*
X112280785Y-93311128D01*
X112446209Y-93260947D01*
X112598664Y-93179458D01*
X112732292Y-93069792D01*
X112841958Y-92936164D01*
X112923447Y-92783709D01*
X112973628Y-92618285D01*
X112990572Y-92446250D01*
X112990572Y-91533750D01*
X112973628Y-91361715D01*
X112923447Y-91196291D01*
X112841958Y-91043836D01*
X112732292Y-90910208D01*
X112598664Y-90800542D01*
X112446209Y-90719053D01*
X112280785Y-90668872D01*
X112108750Y-90651928D01*
X111621250Y-90651928D01*
X111449215Y-90668872D01*
X111283791Y-90719053D01*
X111131336Y-90800542D01*
X110997708Y-90910208D01*
X110888042Y-91043836D01*
X110806553Y-91196291D01*
X110796327Y-91230000D01*
X109400817Y-91230000D01*
X109378505Y-91207688D01*
X109127095Y-91039701D01*
X108847743Y-90923989D01*
X108551184Y-90865000D01*
X108299802Y-90865000D01*
X108824802Y-90340000D01*
X115999893Y-90340000D01*
X116053368Y-90393475D01*
X116227760Y-90510000D01*
X116053368Y-90626525D01*
X115846525Y-90833368D01*
X115684010Y-91076589D01*
X115572068Y-91346842D01*
X115515000Y-91633740D01*
X115515000Y-91926260D01*
X115572068Y-92213158D01*
X115684010Y-92483411D01*
X115846525Y-92726632D01*
X116053368Y-92933475D01*
X116227760Y-93050000D01*
X116053368Y-93166525D01*
X115846525Y-93373368D01*
X115684010Y-93616589D01*
X115572068Y-93886842D01*
X115515000Y-94173740D01*
X115515000Y-94466260D01*
X115572068Y-94753158D01*
X115684010Y-95023411D01*
X115846525Y-95266632D01*
X116053368Y-95473475D01*
X116227760Y-95590000D01*
X116053368Y-95706525D01*
X115846525Y-95913368D01*
X115684010Y-96156589D01*
X115572068Y-96426842D01*
X115515000Y-96713740D01*
X115515000Y-97006260D01*
X115572068Y-97293158D01*
X115684010Y-97563411D01*
X115846525Y-97806632D01*
X116053368Y-98013475D01*
X116227760Y-98130000D01*
X116053368Y-98246525D01*
X115846525Y-98453368D01*
X115684010Y-98696589D01*
X115572068Y-98966842D01*
X115515000Y-99253740D01*
X115515000Y-99546260D01*
X115572068Y-99833158D01*
X115684010Y-100103411D01*
X115846525Y-100346632D01*
X116053368Y-100553475D01*
X116227760Y-100670000D01*
X116053368Y-100786525D01*
X115846525Y-100993368D01*
X115721822Y-101180000D01*
X115084802Y-101180000D01*
X114030000Y-100125199D01*
X114030000Y-99008673D01*
X114063709Y-98998447D01*
X114216164Y-98916958D01*
X114349792Y-98807292D01*
X114459458Y-98673664D01*
X114540947Y-98521209D01*
X114591128Y-98355785D01*
X114608072Y-98183750D01*
X114608072Y-97696250D01*
X114591128Y-97524215D01*
X114540947Y-97358791D01*
X114459458Y-97206336D01*
X114349792Y-97072708D01*
X114216164Y-96963042D01*
X114063709Y-96881553D01*
X113898285Y-96831372D01*
X113726250Y-96814428D01*
X112813750Y-96814428D01*
X112641715Y-96831372D01*
X112476291Y-96881553D01*
X112323836Y-96963042D01*
X112190208Y-97072708D01*
X112080542Y-97206336D01*
X111999053Y-97358791D01*
X111948872Y-97524215D01*
X111931928Y-97696250D01*
X111931928Y-98183750D01*
X111948872Y-98355785D01*
X111999053Y-98521209D01*
X112080542Y-98673664D01*
X112190208Y-98807292D01*
X112323836Y-98916958D01*
X112476291Y-98998447D01*
X112510000Y-99008673D01*
X112510001Y-100402668D01*
X112506324Y-100440000D01*
X112510001Y-100477333D01*
X112517501Y-100553475D01*
X112520998Y-100588985D01*
X112564454Y-100732246D01*
X112635026Y-100864276D01*
X112706201Y-100951002D01*
X112730000Y-100980001D01*
X112758998Y-101003799D01*
X114206200Y-102451002D01*
X114229999Y-102480001D01*
X114345724Y-102574974D01*
X114477753Y-102645546D01*
X114621014Y-102689003D01*
X114732667Y-102700000D01*
X114732676Y-102700000D01*
X114769999Y-102703676D01*
X114807322Y-102700000D01*
X115721822Y-102700000D01*
X115846525Y-102886632D01*
X116053368Y-103093475D01*
X116296589Y-103255990D01*
X116566842Y-103367932D01*
X116853740Y-103425000D01*
X117146260Y-103425000D01*
X117433158Y-103367932D01*
X117703411Y-103255990D01*
X117946632Y-103093475D01*
X118153475Y-102886632D01*
X118278178Y-102700000D01*
X120375199Y-102700000D01*
X123126211Y-105451013D01*
X123150009Y-105480011D01*
X123265734Y-105574984D01*
X123397763Y-105645556D01*
X123541024Y-105689013D01*
X123652677Y-105700010D01*
X123652687Y-105700010D01*
X123690010Y-105703686D01*
X123727333Y-105700010D01*
X134395460Y-105700010D01*
X134432782Y-105703686D01*
X134470104Y-105700010D01*
X134470115Y-105700010D01*
X134581768Y-105689013D01*
X134725029Y-105645556D01*
X134857058Y-105574984D01*
X134972783Y-105480011D01*
X134996586Y-105451007D01*
X137077721Y-103369872D01*
X144355000Y-103369872D01*
X144355000Y-103810128D01*
X144440890Y-104241925D01*
X144609369Y-104648669D01*
X144853962Y-105014729D01*
X145165271Y-105326038D01*
X145531331Y-105570631D01*
X145938075Y-105739110D01*
X146369872Y-105825000D01*
X146810128Y-105825000D01*
X147241925Y-105739110D01*
X147648669Y-105570631D01*
X148014729Y-105326038D01*
X148326038Y-105014729D01*
X148570631Y-104648669D01*
X148739110Y-104241925D01*
X148825000Y-103810128D01*
X148825000Y-103369872D01*
X148739110Y-102938075D01*
X148570631Y-102531331D01*
X148326038Y-102165271D01*
X148014729Y-101853962D01*
X147648669Y-101609369D01*
X147241925Y-101440890D01*
X146810128Y-101355000D01*
X146369872Y-101355000D01*
X145938075Y-101440890D01*
X145531331Y-101609369D01*
X145165271Y-101853962D01*
X144853962Y-102165271D01*
X144609369Y-102531331D01*
X144440890Y-102938075D01*
X144355000Y-103369872D01*
X137077721Y-103369872D01*
X141211003Y-99236591D01*
X141240001Y-99212793D01*
X141334974Y-99097068D01*
X141405546Y-98965039D01*
X141449003Y-98821778D01*
X141457028Y-98740298D01*
X141678505Y-98592312D01*
X141892312Y-98378505D01*
X142060299Y-98127095D01*
X142176011Y-97847743D01*
X142235000Y-97551184D01*
X142235000Y-97248816D01*
X142176011Y-96952257D01*
X142060299Y-96672905D01*
X141892312Y-96421495D01*
X141678505Y-96207688D01*
X141427095Y-96039701D01*
X141147743Y-95923989D01*
X140851184Y-95865000D01*
X140769802Y-95865000D01*
X143051003Y-93583799D01*
X143080001Y-93560001D01*
X143128013Y-93501498D01*
X143174974Y-93444277D01*
X143245546Y-93312247D01*
X143285826Y-93179458D01*
X143289003Y-93168986D01*
X143300000Y-93057333D01*
X143300000Y-93057324D01*
X143303676Y-93020001D01*
X143300000Y-92982678D01*
X143300000Y-85007333D01*
X143303677Y-84970000D01*
X143289003Y-84821014D01*
X143245546Y-84677753D01*
X143174974Y-84545724D01*
X143103799Y-84458997D01*
X143080001Y-84429999D01*
X143051004Y-84406202D01*
X141663804Y-83019003D01*
X141640001Y-82989999D01*
X141524276Y-82895026D01*
X141392247Y-82824454D01*
X141248986Y-82780997D01*
X141137333Y-82770000D01*
X141137322Y-82770000D01*
X141100000Y-82766324D01*
X141062678Y-82770000D01*
X140234802Y-82770000D01*
X140316093Y-82688709D01*
X140548816Y-82735000D01*
X140851184Y-82735000D01*
X141147743Y-82676011D01*
X141427095Y-82560299D01*
X141678505Y-82392312D01*
X141892312Y-82178505D01*
X142060299Y-81927095D01*
X142176011Y-81647743D01*
X142235000Y-81351184D01*
X142235000Y-81048816D01*
X142176011Y-80752257D01*
X142060299Y-80472905D01*
X141892312Y-80221495D01*
X141678505Y-80007688D01*
X141427095Y-79839701D01*
X141147743Y-79723989D01*
X140851184Y-79665000D01*
X140548816Y-79665000D01*
X140252257Y-79723989D01*
X139972905Y-79839701D01*
X139721495Y-80007688D01*
X139507688Y-80221495D01*
X139339701Y-80472905D01*
X139223989Y-80752257D01*
X139165000Y-81048816D01*
X139165000Y-81351184D01*
X139221246Y-81633952D01*
X137899003Y-82956196D01*
X137869999Y-82979999D01*
X137846196Y-83009003D01*
X137699007Y-83156192D01*
X137698996Y-83156201D01*
X136343998Y-84511201D01*
X136315000Y-84534999D01*
X136291202Y-84563997D01*
X136291201Y-84563998D01*
X136220026Y-84650724D01*
X136149454Y-84782754D01*
X136105998Y-84926015D01*
X136091324Y-85075000D01*
X136095001Y-85112332D01*
X136095000Y-89182155D01*
X135987708Y-89270208D01*
X135878042Y-89403836D01*
X135796553Y-89556291D01*
X135746372Y-89721715D01*
X135729428Y-89893750D01*
X135729428Y-90806250D01*
X135746372Y-90978285D01*
X135796553Y-91143709D01*
X135878042Y-91296164D01*
X135987708Y-91429792D01*
X136121336Y-91539458D01*
X136270206Y-91619031D01*
X136173836Y-91670542D01*
X136040208Y-91780208D01*
X135970000Y-91865756D01*
X135899792Y-91780208D01*
X135766164Y-91670542D01*
X135613709Y-91589053D01*
X135448285Y-91538872D01*
X135276250Y-91521928D01*
X134788750Y-91521928D01*
X134616715Y-91538872D01*
X134451291Y-91589053D01*
X134298836Y-91670542D01*
X134165208Y-91780208D01*
X134055542Y-91913836D01*
X133974053Y-92066291D01*
X133923872Y-92231715D01*
X133906928Y-92403750D01*
X133906928Y-92910771D01*
X133389867Y-93427832D01*
X133353475Y-93373368D01*
X133146632Y-93166525D01*
X132972240Y-93050000D01*
X133146632Y-92933475D01*
X133353475Y-92726632D01*
X133515990Y-92483411D01*
X133627932Y-92213158D01*
X133685000Y-91926260D01*
X133685000Y-91633740D01*
X133627932Y-91346842D01*
X133515990Y-91076589D01*
X133353475Y-90833368D01*
X133146632Y-90626525D01*
X132972240Y-90510000D01*
X133146632Y-90393475D01*
X133353475Y-90186632D01*
X133515990Y-89943411D01*
X133627932Y-89673158D01*
X133685000Y-89386260D01*
X133685000Y-89093740D01*
X133627932Y-88806842D01*
X133515990Y-88536589D01*
X133353475Y-88293368D01*
X133146632Y-88086525D01*
X132972240Y-87970000D01*
X133146632Y-87853475D01*
X133353475Y-87646632D01*
X133515990Y-87403411D01*
X133627932Y-87133158D01*
X133685000Y-86846260D01*
X133685000Y-86553740D01*
X133627932Y-86266842D01*
X133515990Y-85996589D01*
X133353475Y-85753368D01*
X133146632Y-85546525D01*
X132972240Y-85430000D01*
X133146632Y-85313475D01*
X133353475Y-85106632D01*
X133515990Y-84863411D01*
X133627932Y-84593158D01*
X133685000Y-84306260D01*
X133685000Y-84013740D01*
X133627932Y-83726842D01*
X133515990Y-83456589D01*
X133353475Y-83213368D01*
X133146632Y-83006525D01*
X132972240Y-82890000D01*
X133146632Y-82773475D01*
X133353475Y-82566632D01*
X133515990Y-82323411D01*
X133627932Y-82053158D01*
X133685000Y-81766260D01*
X133685000Y-81473740D01*
X133627932Y-81186842D01*
X133515990Y-80916589D01*
X133353475Y-80673368D01*
X133146632Y-80466525D01*
X132972240Y-80350000D01*
X133146632Y-80233475D01*
X133353475Y-80026632D01*
X133515990Y-79783411D01*
X133627932Y-79513158D01*
X133685000Y-79226260D01*
X133685000Y-78933740D01*
X133627932Y-78646842D01*
X133515990Y-78376589D01*
X133353475Y-78133368D01*
X133146632Y-77926525D01*
X132903411Y-77764010D01*
X132633158Y-77652068D01*
X132346260Y-77595000D01*
X132053740Y-77595000D01*
X131766842Y-77652068D01*
X131496589Y-77764010D01*
X131253368Y-77926525D01*
X131046525Y-78133368D01*
X130884010Y-78376589D01*
X130772068Y-78646842D01*
X130715000Y-78933740D01*
X130715000Y-79226260D01*
X130772068Y-79513158D01*
X130884010Y-79783411D01*
X131046525Y-80026632D01*
X131253368Y-80233475D01*
X131427760Y-80350000D01*
X131253368Y-80466525D01*
X131046525Y-80673368D01*
X130884010Y-80916589D01*
X130772068Y-81186842D01*
X130715000Y-81473740D01*
X130715000Y-81766260D01*
X130772068Y-82053158D01*
X130884010Y-82323411D01*
X131046525Y-82566632D01*
X131253368Y-82773475D01*
X131427760Y-82890000D01*
X131253368Y-83006525D01*
X131046525Y-83213368D01*
X130884010Y-83456589D01*
X130772068Y-83726842D01*
X130715000Y-84013740D01*
X130715000Y-84306260D01*
X130772068Y-84593158D01*
X130884010Y-84863411D01*
X131046525Y-85106632D01*
X131253368Y-85313475D01*
X131427760Y-85430000D01*
X131253368Y-85546525D01*
X131046525Y-85753368D01*
X130884010Y-85996589D01*
X130772068Y-86266842D01*
X130715000Y-86553740D01*
X130715000Y-86846260D01*
X130772068Y-87133158D01*
X130884010Y-87403411D01*
X131046525Y-87646632D01*
X131253368Y-87853475D01*
X131427760Y-87970000D01*
X131253368Y-88086525D01*
X131046525Y-88293368D01*
X130884010Y-88536589D01*
X130772068Y-88806842D01*
X130715000Y-89093740D01*
X130715000Y-89386260D01*
X130772068Y-89673158D01*
X130884010Y-89943411D01*
X131046525Y-90186632D01*
X131253368Y-90393475D01*
X131427760Y-90510000D01*
X131253368Y-90626525D01*
X131046525Y-90833368D01*
X130884010Y-91076589D01*
X130772068Y-91346842D01*
X130715000Y-91633740D01*
X130715000Y-91926260D01*
X130772068Y-92213158D01*
X130884010Y-92483411D01*
X131046525Y-92726632D01*
X131253368Y-92933475D01*
X131427760Y-93050000D01*
X131253368Y-93166525D01*
X131046525Y-93373368D01*
X130884010Y-93616589D01*
X130772068Y-93886842D01*
X130715000Y-94173740D01*
X130715000Y-94466260D01*
X130772068Y-94753158D01*
X130884010Y-95023411D01*
X131046525Y-95266632D01*
X131253368Y-95473475D01*
X131427760Y-95590000D01*
X131253368Y-95706525D01*
X131046525Y-95913368D01*
X130884010Y-96156589D01*
X130772068Y-96426842D01*
X130715000Y-96713740D01*
X130715000Y-97006260D01*
X130772068Y-97293158D01*
X130884010Y-97563411D01*
X131046525Y-97806632D01*
X131253368Y-98013475D01*
X131427760Y-98130000D01*
X131253368Y-98246525D01*
X131046525Y-98453368D01*
X130884010Y-98696589D01*
X130772068Y-98966842D01*
X130715000Y-99253740D01*
X130715000Y-99546260D01*
X130772068Y-99833158D01*
X130884010Y-100103411D01*
X131046525Y-100346632D01*
X131253368Y-100553475D01*
X131427760Y-100670000D01*
X131253368Y-100786525D01*
X131046525Y-100993368D01*
X130884010Y-101236589D01*
X130772068Y-101506842D01*
X130715000Y-101793740D01*
X130715000Y-102086260D01*
X130772068Y-102373158D01*
X130884010Y-102643411D01*
X131046525Y-102886632D01*
X131253368Y-103093475D01*
X131496589Y-103255990D01*
X131766842Y-103367932D01*
X132053740Y-103425000D01*
X132346260Y-103425000D01*
X132633158Y-103367932D01*
X132903411Y-103255990D01*
X133146632Y-103093475D01*
X133353475Y-102886632D01*
X133515990Y-102643411D01*
X133627932Y-102373158D01*
X133685000Y-102086260D01*
X133685000Y-101793740D01*
X133627932Y-101506842D01*
X133515990Y-101236589D01*
X133353475Y-100993368D01*
X133146632Y-100786525D01*
X132972240Y-100670000D01*
X133146632Y-100553475D01*
X133353475Y-100346632D01*
X133515990Y-100103411D01*
X133627932Y-99833158D01*
X133685000Y-99546260D01*
X133685000Y-99253740D01*
X133641209Y-99033592D01*
X135596003Y-97078799D01*
X135625001Y-97055001D01*
X135665002Y-97006260D01*
X135719974Y-96939277D01*
X135790546Y-96807247D01*
X135834003Y-96663986D01*
X135837980Y-96623606D01*
X135952292Y-96529792D01*
X136022500Y-96444244D01*
X136092708Y-96529792D01*
X136226336Y-96639458D01*
X136378791Y-96720947D01*
X136544215Y-96771128D01*
X136716250Y-96788072D01*
X137203750Y-96788072D01*
X137375785Y-96771128D01*
X137541209Y-96720947D01*
X137693664Y-96639458D01*
X137827292Y-96529792D01*
X137936958Y-96396164D01*
X138018447Y-96243709D01*
X138068628Y-96078285D01*
X138075329Y-96010249D01*
X138100001Y-95990001D01*
X138123804Y-95960997D01*
X140221522Y-93863280D01*
X140252257Y-93876011D01*
X140548816Y-93935000D01*
X140550198Y-93935000D01*
X135389003Y-99096196D01*
X135359999Y-99119999D01*
X135304871Y-99187174D01*
X135265026Y-99235724D01*
X135194455Y-99367753D01*
X135194454Y-99367754D01*
X135150997Y-99511015D01*
X135140000Y-99622668D01*
X135140000Y-99622678D01*
X135136324Y-99660000D01*
X135140000Y-99697323D01*
X135140001Y-101265196D01*
X132675199Y-103730000D01*
X124274802Y-103730000D01*
X119433804Y-98889003D01*
X119410001Y-98859999D01*
X119294276Y-98765026D01*
X119162247Y-98694454D01*
X119018986Y-98650997D01*
X118907333Y-98640000D01*
X118907322Y-98640000D01*
X118870000Y-98636324D01*
X118832678Y-98640000D01*
X118278178Y-98640000D01*
X118153475Y-98453368D01*
X117946632Y-98246525D01*
X117772240Y-98130000D01*
X117946632Y-98013475D01*
X118153475Y-97806632D01*
X118315990Y-97563411D01*
X118427932Y-97293158D01*
X118485000Y-97006260D01*
X118485000Y-96713740D01*
X118427932Y-96426842D01*
X118315990Y-96156589D01*
X118153475Y-95913368D01*
X117946632Y-95706525D01*
X117772240Y-95590000D01*
X117946632Y-95473475D01*
X118153475Y-95266632D01*
X118315990Y-95023411D01*
X118427932Y-94753158D01*
X118485000Y-94466260D01*
X118485000Y-94173740D01*
X118441209Y-93953592D01*
X119711013Y-92683789D01*
X119740011Y-92659991D01*
X119774238Y-92618285D01*
X119834984Y-92544267D01*
X119905556Y-92412237D01*
X119926316Y-92343799D01*
X119949013Y-92268976D01*
X119960010Y-92157323D01*
X119960010Y-92157313D01*
X119963686Y-92119990D01*
X119960010Y-92082668D01*
X119960010Y-80269872D01*
X122285000Y-80269872D01*
X122285000Y-80710128D01*
X122370890Y-81141925D01*
X122539369Y-81548669D01*
X122783962Y-81914729D01*
X123095271Y-82226038D01*
X123461331Y-82470631D01*
X123868075Y-82639110D01*
X124299872Y-82725000D01*
X124740128Y-82725000D01*
X125171925Y-82639110D01*
X125578669Y-82470631D01*
X125944729Y-82226038D01*
X126256038Y-81914729D01*
X126500631Y-81548669D01*
X126669110Y-81141925D01*
X126755000Y-80710128D01*
X126755000Y-80269872D01*
X126669110Y-79838075D01*
X126500631Y-79431331D01*
X126256038Y-79065271D01*
X125944729Y-78753962D01*
X125578669Y-78509369D01*
X125171925Y-78340890D01*
X124740128Y-78255000D01*
X124299872Y-78255000D01*
X123868075Y-78340890D01*
X123461331Y-78509369D01*
X123095271Y-78753962D01*
X122783962Y-79065271D01*
X122539369Y-79431331D01*
X122370890Y-79838075D01*
X122285000Y-80269872D01*
X119960010Y-80269872D01*
X119960010Y-66801833D01*
X120198692Y-66874236D01*
X120480000Y-66901943D01*
X120761309Y-66874236D01*
X121031808Y-66792182D01*
X121281101Y-66658932D01*
X121499608Y-66479608D01*
X121678932Y-66261101D01*
X121812182Y-66011808D01*
X121894236Y-65741309D01*
X121915000Y-65530491D01*
X121915000Y-64589509D01*
X126665000Y-64589509D01*
X126665000Y-65530492D01*
X126685764Y-65741309D01*
X126767818Y-66011808D01*
X126901068Y-66261101D01*
X127080393Y-66479608D01*
X127298900Y-66658932D01*
X127548193Y-66792182D01*
X127818692Y-66874236D01*
X128100000Y-66901943D01*
X128381309Y-66874236D01*
X128651808Y-66792182D01*
X128901101Y-66658932D01*
X129119608Y-66479608D01*
X129298932Y-66261101D01*
X129370000Y-66128142D01*
X129441068Y-66261101D01*
X129452683Y-66275254D01*
X129423001Y-75439589D01*
X129425361Y-75464373D01*
X129432511Y-75488221D01*
X129444175Y-75510215D01*
X129459907Y-75529511D01*
X129479101Y-75545368D01*
X129501019Y-75557175D01*
X129524820Y-75564479D01*
X129550505Y-75566999D01*
X134580505Y-75546999D01*
X134605272Y-75544460D01*
X134629067Y-75537139D01*
X134650977Y-75525315D01*
X134670159Y-75509445D01*
X134685876Y-75490137D01*
X134697525Y-75468134D01*
X134704657Y-75444281D01*
X134706998Y-75419270D01*
X134687733Y-72067094D01*
X148099906Y-72077000D01*
X148124684Y-72074578D01*
X148148514Y-72067369D01*
X148170479Y-72055649D01*
X148189736Y-72039869D01*
X148205545Y-72020635D01*
X148217297Y-71998687D01*
X148224541Y-71974868D01*
X148227000Y-71950322D01*
X148257000Y-60130322D01*
X148254622Y-60105540D01*
X148247456Y-60081697D01*
X148235775Y-60059711D01*
X148220030Y-60040426D01*
X148200825Y-60024583D01*
X148178898Y-60012791D01*
X148155093Y-60005504D01*
X148130000Y-60003000D01*
X131960000Y-60003000D01*
X131935224Y-60005440D01*
X131911399Y-60012667D01*
X131889443Y-60024403D01*
X131870197Y-60040197D01*
X131854403Y-60059443D01*
X131842667Y-60081399D01*
X131835440Y-60105224D01*
X131833001Y-60129569D01*
X131823428Y-62953535D01*
X129589462Y-62963001D01*
X129564696Y-62965546D01*
X129540902Y-62972874D01*
X129518996Y-62984703D01*
X129499818Y-63000579D01*
X129484105Y-63019891D01*
X129472462Y-63041897D01*
X129465336Y-63065752D01*
X129463001Y-63089589D01*
X129460586Y-63835117D01*
X129441068Y-63858900D01*
X129370000Y-63991858D01*
X129298932Y-63858899D01*
X129119607Y-63640392D01*
X128901100Y-63461068D01*
X128651807Y-63327818D01*
X128381308Y-63245764D01*
X128100000Y-63218057D01*
X127818691Y-63245764D01*
X127548192Y-63327818D01*
X127298899Y-63461068D01*
X127080392Y-63640393D01*
X126901068Y-63858900D01*
X126767818Y-64108193D01*
X126685764Y-64378692D01*
X126665000Y-64589509D01*
X121915000Y-64589509D01*
X121915000Y-64589508D01*
X121894236Y-64378691D01*
X121812182Y-64108192D01*
X121678932Y-63858899D01*
X121499607Y-63640392D01*
X121281100Y-63461068D01*
X121031807Y-63327818D01*
X120761308Y-63245764D01*
X120480000Y-63218057D01*
X120198691Y-63245764D01*
X119928192Y-63327818D01*
X119678899Y-63461068D01*
X119460392Y-63640393D01*
X119281068Y-63858900D01*
X119210000Y-63991858D01*
X119138932Y-63858899D01*
X118959607Y-63640392D01*
X118741100Y-63461068D01*
X118491807Y-63327818D01*
X118221308Y-63245764D01*
X117940000Y-63218057D01*
X117658691Y-63245764D01*
X117388192Y-63327818D01*
X117138899Y-63461068D01*
X116920392Y-63640393D01*
X116827581Y-63753483D01*
X116825812Y-63735518D01*
X116789502Y-63615820D01*
X116730537Y-63505506D01*
X116651185Y-63408815D01*
X116554494Y-63329463D01*
X116444180Y-63270498D01*
X116324482Y-63234188D01*
X116200000Y-63221928D01*
X114600000Y-63221928D01*
X114475518Y-63234188D01*
X114355820Y-63270498D01*
X114245506Y-63329463D01*
X114148815Y-63408815D01*
X114069463Y-63505506D01*
X114010498Y-63615820D01*
X113974188Y-63735518D01*
X113961928Y-63860000D01*
X113961928Y-66260000D01*
X113974188Y-66384482D01*
X114010498Y-66504180D01*
X114069463Y-66614494D01*
X114148815Y-66711185D01*
X114245506Y-66790537D01*
X114355820Y-66849502D01*
X114475518Y-66885812D01*
X114600000Y-66898072D01*
X114684088Y-66898072D01*
X114694454Y-66932246D01*
X114765026Y-67064276D01*
X114780956Y-67083686D01*
X114860000Y-67180001D01*
X114888998Y-67203799D01*
X116386200Y-68701002D01*
X116409999Y-68730001D01*
X116438997Y-68753799D01*
X116525723Y-68824974D01*
X116625041Y-68878061D01*
X116657753Y-68895546D01*
X116801014Y-68939003D01*
X116912667Y-68950000D01*
X116912677Y-68950000D01*
X116949999Y-68953676D01*
X116987322Y-68950000D01*
X117805199Y-68950000D01*
X117990000Y-69134802D01*
X117990000Y-72528895D01*
X117974482Y-72524188D01*
X117850000Y-72511928D01*
X116586730Y-72511928D01*
X113563804Y-69489003D01*
X113540001Y-69459999D01*
X113424276Y-69365026D01*
X113292247Y-69294454D01*
X113148986Y-69250997D01*
X113037333Y-69240000D01*
X113037322Y-69240000D01*
X113000000Y-69236324D01*
X112962678Y-69240000D01*
X109738313Y-69240000D01*
X109592312Y-69021495D01*
X109378505Y-68807688D01*
X109127095Y-68639701D01*
X108847743Y-68523989D01*
X108551184Y-68465000D01*
X108248816Y-68465000D01*
X107952257Y-68523989D01*
X107672905Y-68639701D01*
X107421495Y-68807688D01*
X107207688Y-69021495D01*
X107039701Y-69272905D01*
X106923989Y-69552257D01*
X106865000Y-69848816D01*
X106865000Y-70151184D01*
X106923989Y-70447743D01*
X107039701Y-70727095D01*
X107207688Y-70978505D01*
X107421495Y-71192312D01*
X107672905Y-71360299D01*
X107952257Y-71476011D01*
X108248816Y-71535000D01*
X108551184Y-71535000D01*
X108847743Y-71476011D01*
X109127095Y-71360299D01*
X109378505Y-71192312D01*
X109592312Y-70978505D01*
X109738313Y-70760000D01*
X112685199Y-70760000D01*
X115511928Y-73586730D01*
X115511928Y-74850000D01*
X115524188Y-74974482D01*
X115560498Y-75094180D01*
X115619463Y-75204494D01*
X115698815Y-75301185D01*
X115795506Y-75380537D01*
X115905820Y-75439502D01*
X115978380Y-75461513D01*
X115846525Y-75593368D01*
X115721822Y-75780000D01*
X114747322Y-75780000D01*
X114709999Y-75776324D01*
X114672676Y-75780000D01*
X114672667Y-75780000D01*
X114561014Y-75790997D01*
X114417753Y-75834454D01*
X114285724Y-75905026D01*
X114169999Y-75999999D01*
X114146201Y-76028997D01*
X109737065Y-80438134D01*
X109592312Y-80221495D01*
X109378505Y-80007688D01*
X109127095Y-79839701D01*
X108847743Y-79723989D01*
X108551184Y-79665000D01*
X108248816Y-79665000D01*
X107952257Y-79723989D01*
X107672905Y-79839701D01*
X107421495Y-80007688D01*
X107207688Y-80221495D01*
X107039701Y-80472905D01*
X106923989Y-80752257D01*
X106865000Y-81048816D01*
X106865000Y-81351184D01*
X106923989Y-81647743D01*
X107039701Y-81927095D01*
X107207688Y-82178505D01*
X107421495Y-82392312D01*
X107672905Y-82560299D01*
X107952257Y-82676011D01*
X108248816Y-82735000D01*
X108551184Y-82735000D01*
X108847743Y-82676011D01*
X109127095Y-82560299D01*
X109378505Y-82392312D01*
X109592312Y-82178505D01*
X109738313Y-81960000D01*
X110012678Y-81960000D01*
X110050000Y-81963676D01*
X110087322Y-81960000D01*
X110087333Y-81960000D01*
X110198986Y-81949003D01*
X110342247Y-81905546D01*
X110474276Y-81834974D01*
X110590001Y-81740001D01*
X110613804Y-81710997D01*
X115024802Y-77300000D01*
X115721822Y-77300000D01*
X115846525Y-77486632D01*
X116053368Y-77693475D01*
X116296589Y-77855990D01*
X116566842Y-77967932D01*
X116853740Y-78025000D01*
X117146260Y-78025000D01*
X117433158Y-77967932D01*
X117703411Y-77855990D01*
X117946632Y-77693475D01*
X117990000Y-77650107D01*
X117990001Y-83049894D01*
X117946632Y-83006525D01*
X117703411Y-82844010D01*
X117433158Y-82732068D01*
X117146260Y-82675000D01*
X116853740Y-82675000D01*
X116566842Y-82732068D01*
X116296589Y-82844010D01*
X116053368Y-83006525D01*
X115846525Y-83213368D01*
X115684010Y-83456589D01*
X115572068Y-83726842D01*
X115515000Y-84013740D01*
X115515000Y-84306260D01*
X115572068Y-84593158D01*
X115684010Y-84863411D01*
X115846525Y-85106632D01*
X116053368Y-85313475D01*
X116227760Y-85430000D01*
X116053368Y-85546525D01*
X115846525Y-85753368D01*
X115684010Y-85996589D01*
X115572068Y-86266842D01*
X115515000Y-86553740D01*
X115515000Y-86846260D01*
X115572068Y-87133158D01*
X115684010Y-87403411D01*
X115846525Y-87646632D01*
X116053368Y-87853475D01*
X116227760Y-87970000D01*
X116053368Y-88086525D01*
X115846525Y-88293368D01*
X115684010Y-88536589D01*
X115572068Y-88806842D01*
X115569451Y-88820000D01*
X108547323Y-88820000D01*
X108510000Y-88816324D01*
X108472677Y-88820000D01*
X108472667Y-88820000D01*
X108361014Y-88830997D01*
X108217753Y-88874454D01*
X108085724Y-88945026D01*
X107969999Y-89039999D01*
X107946201Y-89068997D01*
X106388998Y-90626201D01*
X106360000Y-90649999D01*
X106336202Y-90678997D01*
X106336201Y-90678998D01*
X106265026Y-90765724D01*
X106194454Y-90897754D01*
X106170026Y-90978285D01*
X106151397Y-91039701D01*
X106150998Y-91041015D01*
X106136324Y-91190000D01*
X99685000Y-91190000D01*
X99685000Y-86048816D01*
X106865000Y-86048816D01*
X106865000Y-86351184D01*
X106923989Y-86647743D01*
X107039701Y-86927095D01*
X107207688Y-87178505D01*
X107421495Y-87392312D01*
X107672905Y-87560299D01*
X107952257Y-87676011D01*
X108248816Y-87735000D01*
X108551184Y-87735000D01*
X108847743Y-87676011D01*
X109127095Y-87560299D01*
X109378505Y-87392312D01*
X109592312Y-87178505D01*
X109760299Y-86927095D01*
X109876011Y-86647743D01*
X109935000Y-86351184D01*
X109935000Y-86048816D01*
X109876011Y-85752257D01*
X109760299Y-85472905D01*
X109592312Y-85221495D01*
X109378505Y-85007688D01*
X109127095Y-84839701D01*
X108847743Y-84723989D01*
X108551184Y-84665000D01*
X108248816Y-84665000D01*
X107952257Y-84723989D01*
X107672905Y-84839701D01*
X107421495Y-85007688D01*
X107207688Y-85221495D01*
X107039701Y-85472905D01*
X106923989Y-85752257D01*
X106865000Y-86048816D01*
X99685000Y-86048816D01*
X99685000Y-74848816D01*
X106865000Y-74848816D01*
X106865000Y-75151184D01*
X106923989Y-75447743D01*
X107039701Y-75727095D01*
X107207688Y-75978505D01*
X107421495Y-76192312D01*
X107672905Y-76360299D01*
X107952257Y-76476011D01*
X108248816Y-76535000D01*
X108551184Y-76535000D01*
X108847743Y-76476011D01*
X109127095Y-76360299D01*
X109378505Y-76192312D01*
X109592312Y-75978505D01*
X109760299Y-75727095D01*
X109876011Y-75447743D01*
X109935000Y-75151184D01*
X109935000Y-74848816D01*
X109876011Y-74552257D01*
X109760299Y-74272905D01*
X109592312Y-74021495D01*
X109378505Y-73807688D01*
X109127095Y-73639701D01*
X108847743Y-73523989D01*
X108551184Y-73465000D01*
X108248816Y-73465000D01*
X107952257Y-73523989D01*
X107672905Y-73639701D01*
X107421495Y-73807688D01*
X107207688Y-74021495D01*
X107039701Y-74272905D01*
X106923989Y-74552257D01*
X106865000Y-74848816D01*
X99685000Y-74848816D01*
X99685000Y-57189872D01*
X100215000Y-57189872D01*
X100215000Y-57630128D01*
X100300890Y-58061925D01*
X100469369Y-58468669D01*
X100713962Y-58834729D01*
X101025271Y-59146038D01*
X101391331Y-59390631D01*
X101798075Y-59559110D01*
X102229872Y-59645000D01*
X102670128Y-59645000D01*
X103101925Y-59559110D01*
X103508669Y-59390631D01*
X103874729Y-59146038D01*
X104186038Y-58834729D01*
X104430631Y-58468669D01*
X104599110Y-58061925D01*
X104685000Y-57630128D01*
X104685000Y-57189872D01*
X104641167Y-56969509D01*
X113965000Y-56969509D01*
X113965000Y-57910492D01*
X113985764Y-58121309D01*
X114067818Y-58391808D01*
X114201068Y-58641101D01*
X114380393Y-58859608D01*
X114598900Y-59038932D01*
X114848193Y-59172182D01*
X115118692Y-59254236D01*
X115400000Y-59281943D01*
X115561259Y-59266060D01*
X116814428Y-60519231D01*
X116814428Y-61026250D01*
X116831372Y-61198285D01*
X116881553Y-61363709D01*
X116963042Y-61516164D01*
X117072708Y-61649792D01*
X117206336Y-61759458D01*
X117358791Y-61840947D01*
X117524215Y-61891128D01*
X117696250Y-61908072D01*
X118183750Y-61908072D01*
X118355785Y-61891128D01*
X118521209Y-61840947D01*
X118673664Y-61759458D01*
X118807292Y-61649792D01*
X118916958Y-61516164D01*
X118998447Y-61363709D01*
X119048628Y-61198285D01*
X119065572Y-61026250D01*
X119065572Y-60113750D01*
X119048628Y-59941715D01*
X118998447Y-59776291D01*
X118916958Y-59623836D01*
X118807292Y-59490208D01*
X118673664Y-59380542D01*
X118521209Y-59299053D01*
X118355785Y-59248872D01*
X118267618Y-59240188D01*
X118491808Y-59172182D01*
X118741101Y-59038932D01*
X118959608Y-58859608D01*
X119138932Y-58641101D01*
X119210000Y-58508142D01*
X119281068Y-58641101D01*
X119460393Y-58859608D01*
X119678900Y-59038932D01*
X119928193Y-59172182D01*
X120198692Y-59254236D01*
X120480000Y-59281943D01*
X120761309Y-59254236D01*
X121031808Y-59172182D01*
X121281101Y-59038932D01*
X121499608Y-58859608D01*
X121678932Y-58641101D01*
X121812182Y-58391808D01*
X121894236Y-58121309D01*
X121915000Y-57910491D01*
X121915000Y-56969509D01*
X126665000Y-56969509D01*
X126665000Y-57910492D01*
X126685764Y-58121309D01*
X126767818Y-58391808D01*
X126901068Y-58641101D01*
X127080393Y-58859608D01*
X127298900Y-59038932D01*
X127548193Y-59172182D01*
X127818692Y-59254236D01*
X128100000Y-59281943D01*
X128381309Y-59254236D01*
X128651808Y-59172182D01*
X128901101Y-59038932D01*
X129119608Y-58859608D01*
X129298932Y-58641101D01*
X129370000Y-58508142D01*
X129441068Y-58641101D01*
X129620393Y-58859608D01*
X129838900Y-59038932D01*
X130088193Y-59172182D01*
X130358692Y-59254236D01*
X130640000Y-59281943D01*
X130921309Y-59254236D01*
X131191808Y-59172182D01*
X131441101Y-59038932D01*
X131659608Y-58859608D01*
X131838932Y-58641101D01*
X131972182Y-58391808D01*
X132054236Y-58121309D01*
X132075000Y-57910491D01*
X132075000Y-57189872D01*
X144355000Y-57189872D01*
X144355000Y-57630128D01*
X144440890Y-58061925D01*
X144609369Y-58468669D01*
X144853962Y-58834729D01*
X145165271Y-59146038D01*
X145531331Y-59390631D01*
X145938075Y-59559110D01*
X146369872Y-59645000D01*
X146810128Y-59645000D01*
X147241925Y-59559110D01*
X147648669Y-59390631D01*
X148014729Y-59146038D01*
X148326038Y-58834729D01*
X148570631Y-58468669D01*
X148739110Y-58061925D01*
X148825000Y-57630128D01*
X148825000Y-57189872D01*
X148739110Y-56758075D01*
X148570631Y-56351331D01*
X148326038Y-55985271D01*
X148014729Y-55673962D01*
X147648669Y-55429369D01*
X147241925Y-55260890D01*
X146810128Y-55175000D01*
X146369872Y-55175000D01*
X145938075Y-55260890D01*
X145531331Y-55429369D01*
X145165271Y-55673962D01*
X144853962Y-55985271D01*
X144609369Y-56351331D01*
X144440890Y-56758075D01*
X144355000Y-57189872D01*
X132075000Y-57189872D01*
X132075000Y-56969508D01*
X132054236Y-56758691D01*
X131972182Y-56488192D01*
X131838932Y-56238899D01*
X131659607Y-56020392D01*
X131441100Y-55841068D01*
X131191807Y-55707818D01*
X130921308Y-55625764D01*
X130640000Y-55598057D01*
X130358691Y-55625764D01*
X130088192Y-55707818D01*
X129838899Y-55841068D01*
X129620392Y-56020393D01*
X129441068Y-56238900D01*
X129370000Y-56371858D01*
X129298932Y-56238899D01*
X129119607Y-56020392D01*
X128901100Y-55841068D01*
X128651807Y-55707818D01*
X128381308Y-55625764D01*
X128100000Y-55598057D01*
X127818691Y-55625764D01*
X127548192Y-55707818D01*
X127298899Y-55841068D01*
X127080392Y-56020393D01*
X126901068Y-56238900D01*
X126767818Y-56488193D01*
X126685764Y-56758692D01*
X126665000Y-56969509D01*
X121915000Y-56969509D01*
X121915000Y-56969508D01*
X121894236Y-56758691D01*
X121812182Y-56488192D01*
X121678932Y-56238899D01*
X121499607Y-56020392D01*
X121281100Y-55841068D01*
X121031807Y-55707818D01*
X120761308Y-55625764D01*
X120480000Y-55598057D01*
X120198691Y-55625764D01*
X119928192Y-55707818D01*
X119678899Y-55841068D01*
X119460392Y-56020393D01*
X119281068Y-56238900D01*
X119210000Y-56371858D01*
X119138932Y-56238899D01*
X118959607Y-56020392D01*
X118741100Y-55841068D01*
X118491807Y-55707818D01*
X118221308Y-55625764D01*
X117940000Y-55598057D01*
X117658691Y-55625764D01*
X117388192Y-55707818D01*
X117138899Y-55841068D01*
X116920392Y-56020393D01*
X116741068Y-56238900D01*
X116670000Y-56371858D01*
X116598932Y-56238899D01*
X116419607Y-56020392D01*
X116201100Y-55841068D01*
X115951807Y-55707818D01*
X115681308Y-55625764D01*
X115400000Y-55598057D01*
X115118691Y-55625764D01*
X114848192Y-55707818D01*
X114598899Y-55841068D01*
X114380392Y-56020393D01*
X114201068Y-56238900D01*
X114067818Y-56488193D01*
X113985764Y-56758692D01*
X113965000Y-56969509D01*
X104641167Y-56969509D01*
X104599110Y-56758075D01*
X104430631Y-56351331D01*
X104186038Y-55985271D01*
X103874729Y-55673962D01*
X103508669Y-55429369D01*
X103101925Y-55260890D01*
X102670128Y-55175000D01*
X102229872Y-55175000D01*
X101798075Y-55260890D01*
X101391331Y-55429369D01*
X101025271Y-55673962D01*
X100713962Y-55985271D01*
X100469369Y-56351331D01*
X100300890Y-56758075D01*
X100215000Y-57189872D01*
X99685000Y-57189872D01*
X99685000Y-56033505D01*
X99713267Y-55745218D01*
X99787259Y-55500145D01*
X99907443Y-55274110D01*
X100069248Y-55075719D01*
X100266497Y-54912540D01*
X100491687Y-54790780D01*
X100736247Y-54715076D01*
X101022398Y-54685000D01*
X147966495Y-54685000D01*
X148254782Y-54713267D01*
%TD*%
M02*
