M48
; DRILL file {KiCad 5.1.6-c6e7f7d~86~ubuntu18.04.1} date Sat Jul 11 09:23:53 2020
; FORMAT={-:-/ absolute / inch / decimal}
; #@! TF.CreationDate,2020-07-11T09:23:53+02:00
; #@! TF.GenerationSoftware,Kicad,Pcbnew,5.1.6-c6e7f7d~86~ubuntu18.04.1
; #@! TF.FileFunction,Plated,1,2,PTH
FMAT,2
INCH
T1C0.0157
T2C0.0315
T3C0.0394
T4C0.0472
%
G90
G05
T1
X4.0831Y-3.513
X4.0843Y-3.0732
X4.3343Y-3.9165
X4.4783Y-3.5654
X4.7264Y-3.7311
X4.8409Y-2.3657
X4.8413Y-2.4421
X4.848Y-3.8846
X4.8866Y-2.8567
X4.922Y-2.3618
X4.9228Y-2.4421
X5.061Y-3.7291
X5.3134Y-2.7559
X5.3539Y-2.4413
X5.4276Y-2.7559
X5.4724Y-2.4402
X5.5906Y-2.4394
X5.6669Y-2.8799
X5.6677Y-2.7587
X5.7083Y-2.4402
X5.7197Y-3.5157
X5.724Y-3.0736
X5.7492Y-2.5969
X5.7508Y-2.4791
X5.7508Y-2.7157
X5.7874Y-2.8799
T2
X4.5433Y-2.2614
X4.5433Y-2.5614
X4.6433Y-2.2614
X4.6433Y-2.5614
X4.7433Y-2.2614
X4.7433Y-2.5614
X4.8433Y-2.2614
X4.8433Y-2.5614
X4.9433Y-2.2614
X4.9433Y-2.5614
X5.0433Y-2.2614
X5.0433Y-2.5614
X5.1433Y-2.2614
X5.1433Y-2.5614
X5.2433Y-2.2614
X5.2433Y-2.5614
T3
X5.2047Y-2.9134
X5.2047Y-3.0134
X5.2047Y-3.1134
X5.2047Y-3.2134
X5.2047Y-3.3134
X5.2047Y-3.4134
X5.2047Y-3.5134
X5.2047Y-3.6134
X5.2047Y-3.7134
X5.2047Y-3.8134
X5.2047Y-3.9134
X5.2047Y-4.0134
X4.6063Y-2.9134
X4.6063Y-3.0134
X4.6063Y-3.1134
X4.6063Y-3.2134
X4.6063Y-3.3134
X4.6063Y-3.4134
X4.6063Y-3.5134
X4.6063Y-3.6134
X4.6063Y-3.7134
X4.6063Y-3.8134
X4.6063Y-3.9134
X4.6063Y-4.0134
T4
X4.2677Y-2.7559
X4.2677Y-2.9528
X4.2677Y-3.6378
X4.2677Y-3.8346
X5.5394Y-3.6378
X5.5394Y-3.8346
X5.5394Y-2.7559
X5.5394Y-2.9528
X5.5394Y-3.1969
X5.5394Y-3.3937
X4.2677Y-3.1969
X4.2677Y-3.3937
T0
M30
