%TF.GenerationSoftware,KiCad,Pcbnew,5.1.6-c6e7f7d~86~ubuntu18.04.1*%
%TF.CreationDate,2020-07-11T09:23:51+02:00*%
%TF.ProjectId,chickenDoor,63686963-6b65-46e4-946f-6f722e6b6963,rev?*%
%TF.SameCoordinates,Original*%
%TF.FileFunction,Legend,Top*%
%TF.FilePolarity,Positive*%
%FSLAX46Y46*%
G04 Gerber Fmt 4.6, Leading zero omitted, Abs format (unit mm)*
G04 Created by KiCad (PCBNEW 5.1.6-c6e7f7d~86~ubuntu18.04.1) date 2020-07-11 09:23:51*
%MOMM*%
%LPD*%
G01*
G04 APERTURE LIST*
%ADD10C,0.150000*%
%ADD11C,0.300000*%
%ADD12C,0.200000*%
%ADD13C,0.120000*%
%ADD14C,0.010000*%
G04 APERTURE END LIST*
D10*
X99310000Y-89260000D02*
X103190000Y-89260000D01*
X99310000Y-78110000D02*
X103190000Y-78110000D01*
X145850000Y-89280000D02*
X149730000Y-89280000D01*
X145910000Y-78140000D02*
X149790000Y-78140000D01*
D11*
X138382857Y-65562857D02*
X138597142Y-65634285D01*
X138668571Y-65705714D01*
X138740000Y-65848571D01*
X138740000Y-66062857D01*
X138668571Y-66205714D01*
X138597142Y-66277142D01*
X138454285Y-66348571D01*
X137882857Y-66348571D01*
X137882857Y-64848571D01*
X138382857Y-64848571D01*
X138525714Y-64920000D01*
X138597142Y-64991428D01*
X138668571Y-65134285D01*
X138668571Y-65277142D01*
X138597142Y-65420000D01*
X138525714Y-65491428D01*
X138382857Y-65562857D01*
X137882857Y-65562857D01*
X140025714Y-66348571D02*
X140025714Y-65562857D01*
X139954285Y-65420000D01*
X139811428Y-65348571D01*
X139525714Y-65348571D01*
X139382857Y-65420000D01*
X140025714Y-66277142D02*
X139882857Y-66348571D01*
X139525714Y-66348571D01*
X139382857Y-66277142D01*
X139311428Y-66134285D01*
X139311428Y-65991428D01*
X139382857Y-65848571D01*
X139525714Y-65777142D01*
X139882857Y-65777142D01*
X140025714Y-65705714D01*
X140525714Y-65348571D02*
X141097142Y-65348571D01*
X140740000Y-64848571D02*
X140740000Y-66134285D01*
X140811428Y-66277142D01*
X140954285Y-66348571D01*
X141097142Y-66348571D01*
X141382857Y-65348571D02*
X141954285Y-65348571D01*
X141597142Y-64848571D02*
X141597142Y-66134285D01*
X141668571Y-66277142D01*
X141811428Y-66348571D01*
X141954285Y-66348571D01*
X143025714Y-66277142D02*
X142882857Y-66348571D01*
X142597142Y-66348571D01*
X142454285Y-66277142D01*
X142382857Y-66134285D01*
X142382857Y-65562857D01*
X142454285Y-65420000D01*
X142597142Y-65348571D01*
X142882857Y-65348571D01*
X143025714Y-65420000D01*
X143097142Y-65562857D01*
X143097142Y-65705714D01*
X142382857Y-65848571D01*
X143740000Y-66348571D02*
X143740000Y-65348571D01*
X143740000Y-65634285D02*
X143811428Y-65491428D01*
X143882857Y-65420000D01*
X144025714Y-65348571D01*
X144168571Y-65348571D01*
X144525714Y-65348571D02*
X144882857Y-66348571D01*
X145240000Y-65348571D02*
X144882857Y-66348571D01*
X144740000Y-66705714D01*
X144668571Y-66777142D01*
X144525714Y-66848571D01*
D12*
X102231428Y-70552857D02*
X102183809Y-70695714D01*
X102136190Y-70743333D01*
X102040952Y-70790952D01*
X101898095Y-70790952D01*
X101802857Y-70743333D01*
X101755238Y-70695714D01*
X101707619Y-70600476D01*
X101707619Y-70219523D01*
X102707619Y-70219523D01*
X102707619Y-70552857D01*
X102660000Y-70648095D01*
X102612380Y-70695714D01*
X102517142Y-70743333D01*
X102421904Y-70743333D01*
X102326666Y-70695714D01*
X102279047Y-70648095D01*
X102231428Y-70552857D01*
X102231428Y-70219523D01*
X102374285Y-71648095D02*
X101707619Y-71648095D01*
X102374285Y-71219523D02*
X101850476Y-71219523D01*
X101755238Y-71267142D01*
X101707619Y-71362380D01*
X101707619Y-71505238D01*
X101755238Y-71600476D01*
X101802857Y-71648095D01*
X102374285Y-71981428D02*
X102374285Y-72362380D01*
X102707619Y-72124285D02*
X101850476Y-72124285D01*
X101755238Y-72171904D01*
X101707619Y-72267142D01*
X101707619Y-72362380D01*
X102374285Y-72552857D02*
X102374285Y-72933809D01*
X102707619Y-72695714D02*
X101850476Y-72695714D01*
X101755238Y-72743333D01*
X101707619Y-72838571D01*
X101707619Y-72933809D01*
X101707619Y-73410000D02*
X101755238Y-73314761D01*
X101802857Y-73267142D01*
X101898095Y-73219523D01*
X102183809Y-73219523D01*
X102279047Y-73267142D01*
X102326666Y-73314761D01*
X102374285Y-73410000D01*
X102374285Y-73552857D01*
X102326666Y-73648095D01*
X102279047Y-73695714D01*
X102183809Y-73743333D01*
X101898095Y-73743333D01*
X101802857Y-73695714D01*
X101755238Y-73648095D01*
X101707619Y-73552857D01*
X101707619Y-73410000D01*
X102374285Y-74171904D02*
X101707619Y-74171904D01*
X102279047Y-74171904D02*
X102326666Y-74219523D01*
X102374285Y-74314761D01*
X102374285Y-74457619D01*
X102326666Y-74552857D01*
X102231428Y-74600476D01*
X101707619Y-74600476D01*
X100055238Y-69671904D02*
X100007619Y-69576666D01*
X100007619Y-69386190D01*
X100055238Y-69290952D01*
X100102857Y-69243333D01*
X100198095Y-69195714D01*
X100483809Y-69195714D01*
X100579047Y-69243333D01*
X100626666Y-69290952D01*
X100674285Y-69386190D01*
X100674285Y-69576666D01*
X100626666Y-69671904D01*
X100007619Y-70243333D02*
X100055238Y-70148095D01*
X100102857Y-70100476D01*
X100198095Y-70052857D01*
X100483809Y-70052857D01*
X100579047Y-70100476D01*
X100626666Y-70148095D01*
X100674285Y-70243333D01*
X100674285Y-70386190D01*
X100626666Y-70481428D01*
X100579047Y-70529047D01*
X100483809Y-70576666D01*
X100198095Y-70576666D01*
X100102857Y-70529047D01*
X100055238Y-70481428D01*
X100007619Y-70386190D01*
X100007619Y-70243333D01*
X100007619Y-71005238D02*
X100674285Y-71005238D01*
X100579047Y-71005238D02*
X100626666Y-71052857D01*
X100674285Y-71148095D01*
X100674285Y-71290952D01*
X100626666Y-71386190D01*
X100531428Y-71433809D01*
X100007619Y-71433809D01*
X100531428Y-71433809D02*
X100626666Y-71481428D01*
X100674285Y-71576666D01*
X100674285Y-71719523D01*
X100626666Y-71814761D01*
X100531428Y-71862380D01*
X100007619Y-71862380D01*
X100674285Y-72338571D02*
X99674285Y-72338571D01*
X100626666Y-72338571D02*
X100674285Y-72433809D01*
X100674285Y-72624285D01*
X100626666Y-72719523D01*
X100579047Y-72767142D01*
X100483809Y-72814761D01*
X100198095Y-72814761D01*
X100102857Y-72767142D01*
X100055238Y-72719523D01*
X100007619Y-72624285D01*
X100007619Y-72433809D01*
X100055238Y-72338571D01*
X100007619Y-73386190D02*
X100055238Y-73290952D01*
X100150476Y-73243333D01*
X101007619Y-73243333D01*
X100055238Y-74148095D02*
X100007619Y-74052857D01*
X100007619Y-73862380D01*
X100055238Y-73767142D01*
X100150476Y-73719523D01*
X100531428Y-73719523D01*
X100626666Y-73767142D01*
X100674285Y-73862380D01*
X100674285Y-74052857D01*
X100626666Y-74148095D01*
X100531428Y-74195714D01*
X100436190Y-74195714D01*
X100340952Y-73719523D01*
X100674285Y-74481428D02*
X100674285Y-74862380D01*
X101007619Y-74624285D02*
X100150476Y-74624285D01*
X100055238Y-74671904D01*
X100007619Y-74767142D01*
X100007619Y-74862380D01*
X100055238Y-75576666D02*
X100007619Y-75481428D01*
X100007619Y-75290952D01*
X100055238Y-75195714D01*
X100150476Y-75148095D01*
X100531428Y-75148095D01*
X100626666Y-75195714D01*
X100674285Y-75290952D01*
X100674285Y-75481428D01*
X100626666Y-75576666D01*
X100531428Y-75624285D01*
X100436190Y-75624285D01*
X100340952Y-75148095D01*
X102031428Y-81652857D02*
X101983809Y-81795714D01*
X101936190Y-81843333D01*
X101840952Y-81890952D01*
X101698095Y-81890952D01*
X101602857Y-81843333D01*
X101555238Y-81795714D01*
X101507619Y-81700476D01*
X101507619Y-81319523D01*
X102507619Y-81319523D01*
X102507619Y-81652857D01*
X102460000Y-81748095D01*
X102412380Y-81795714D01*
X102317142Y-81843333D01*
X102221904Y-81843333D01*
X102126666Y-81795714D01*
X102079047Y-81748095D01*
X102031428Y-81652857D01*
X102031428Y-81319523D01*
X102174285Y-82748095D02*
X101507619Y-82748095D01*
X102174285Y-82319523D02*
X101650476Y-82319523D01*
X101555238Y-82367142D01*
X101507619Y-82462380D01*
X101507619Y-82605238D01*
X101555238Y-82700476D01*
X101602857Y-82748095D01*
X102174285Y-83081428D02*
X102174285Y-83462380D01*
X102507619Y-83224285D02*
X101650476Y-83224285D01*
X101555238Y-83271904D01*
X101507619Y-83367142D01*
X101507619Y-83462380D01*
X102174285Y-83652857D02*
X102174285Y-84033809D01*
X102507619Y-83795714D02*
X101650476Y-83795714D01*
X101555238Y-83843333D01*
X101507619Y-83938571D01*
X101507619Y-84033809D01*
X101507619Y-84510000D02*
X101555238Y-84414761D01*
X101602857Y-84367142D01*
X101698095Y-84319523D01*
X101983809Y-84319523D01*
X102079047Y-84367142D01*
X102126666Y-84414761D01*
X102174285Y-84510000D01*
X102174285Y-84652857D01*
X102126666Y-84748095D01*
X102079047Y-84795714D01*
X101983809Y-84843333D01*
X101698095Y-84843333D01*
X101602857Y-84795714D01*
X101555238Y-84748095D01*
X101507619Y-84652857D01*
X101507619Y-84510000D01*
X102174285Y-85271904D02*
X101507619Y-85271904D01*
X102079047Y-85271904D02*
X102126666Y-85319523D01*
X102174285Y-85414761D01*
X102174285Y-85557619D01*
X102126666Y-85652857D01*
X102031428Y-85700476D01*
X101507619Y-85700476D01*
X99855238Y-82129047D02*
X99807619Y-82224285D01*
X99807619Y-82414761D01*
X99855238Y-82510000D01*
X99950476Y-82557619D01*
X99998095Y-82557619D01*
X100093333Y-82510000D01*
X100140952Y-82414761D01*
X100140952Y-82271904D01*
X100188571Y-82176666D01*
X100283809Y-82129047D01*
X100331428Y-82129047D01*
X100426666Y-82176666D01*
X100474285Y-82271904D01*
X100474285Y-82414761D01*
X100426666Y-82510000D01*
X100474285Y-82843333D02*
X100474285Y-83224285D01*
X100807619Y-82986190D02*
X99950476Y-82986190D01*
X99855238Y-83033809D01*
X99807619Y-83129047D01*
X99807619Y-83224285D01*
X99855238Y-83938571D02*
X99807619Y-83843333D01*
X99807619Y-83652857D01*
X99855238Y-83557619D01*
X99950476Y-83510000D01*
X100331428Y-83510000D01*
X100426666Y-83557619D01*
X100474285Y-83652857D01*
X100474285Y-83843333D01*
X100426666Y-83938571D01*
X100331428Y-83986190D01*
X100236190Y-83986190D01*
X100140952Y-83510000D01*
X100474285Y-84414761D02*
X99474285Y-84414761D01*
X100426666Y-84414761D02*
X100474285Y-84510000D01*
X100474285Y-84700476D01*
X100426666Y-84795714D01*
X100379047Y-84843333D01*
X100283809Y-84890952D01*
X99998095Y-84890952D01*
X99902857Y-84843333D01*
X99855238Y-84795714D01*
X99807619Y-84700476D01*
X99807619Y-84510000D01*
X99855238Y-84414761D01*
X100507619Y-90411428D02*
X101507619Y-90411428D01*
X101507619Y-90792380D01*
X101460000Y-90887619D01*
X101412380Y-90935238D01*
X101317142Y-90982857D01*
X101174285Y-90982857D01*
X101079047Y-90935238D01*
X101031428Y-90887619D01*
X100983809Y-90792380D01*
X100983809Y-90411428D01*
X100507619Y-91411428D02*
X101507619Y-91411428D01*
X100507619Y-91840000D02*
X101031428Y-91840000D01*
X101126666Y-91792380D01*
X101174285Y-91697142D01*
X101174285Y-91554285D01*
X101126666Y-91459047D01*
X101079047Y-91411428D01*
X100507619Y-92459047D02*
X100555238Y-92363809D01*
X100602857Y-92316190D01*
X100698095Y-92268571D01*
X100983809Y-92268571D01*
X101079047Y-92316190D01*
X101126666Y-92363809D01*
X101174285Y-92459047D01*
X101174285Y-92601904D01*
X101126666Y-92697142D01*
X101079047Y-92744761D01*
X100983809Y-92792380D01*
X100698095Y-92792380D01*
X100602857Y-92744761D01*
X100555238Y-92697142D01*
X100507619Y-92601904D01*
X100507619Y-92459047D01*
X101174285Y-93078095D02*
X101174285Y-93459047D01*
X101507619Y-93220952D02*
X100650476Y-93220952D01*
X100555238Y-93268571D01*
X100507619Y-93363809D01*
X100507619Y-93459047D01*
X100507619Y-93935238D02*
X100555238Y-93840000D01*
X100602857Y-93792380D01*
X100698095Y-93744761D01*
X100983809Y-93744761D01*
X101079047Y-93792380D01*
X101126666Y-93840000D01*
X101174285Y-93935238D01*
X101174285Y-94078095D01*
X101126666Y-94173333D01*
X101079047Y-94220952D01*
X100983809Y-94268571D01*
X100698095Y-94268571D01*
X100602857Y-94220952D01*
X100555238Y-94173333D01*
X100507619Y-94078095D01*
X100507619Y-93935238D01*
X100555238Y-94649523D02*
X100507619Y-94792380D01*
X100507619Y-95030476D01*
X100555238Y-95125714D01*
X100602857Y-95173333D01*
X100698095Y-95220952D01*
X100793333Y-95220952D01*
X100888571Y-95173333D01*
X100936190Y-95125714D01*
X100983809Y-95030476D01*
X101031428Y-94840000D01*
X101079047Y-94744761D01*
X101126666Y-94697142D01*
X101221904Y-94649523D01*
X101317142Y-94649523D01*
X101412380Y-94697142D01*
X101460000Y-94744761D01*
X101507619Y-94840000D01*
X101507619Y-95078095D01*
X101460000Y-95220952D01*
X100555238Y-96030476D02*
X100507619Y-95935238D01*
X100507619Y-95744761D01*
X100555238Y-95649523D01*
X100650476Y-95601904D01*
X101031428Y-95601904D01*
X101126666Y-95649523D01*
X101174285Y-95744761D01*
X101174285Y-95935238D01*
X101126666Y-96030476D01*
X101031428Y-96078095D01*
X100936190Y-96078095D01*
X100840952Y-95601904D01*
X101174285Y-96506666D02*
X100507619Y-96506666D01*
X101079047Y-96506666D02*
X101126666Y-96554285D01*
X101174285Y-96649523D01*
X101174285Y-96792380D01*
X101126666Y-96887619D01*
X101031428Y-96935238D01*
X100507619Y-96935238D01*
X100555238Y-97363809D02*
X100507619Y-97459047D01*
X100507619Y-97649523D01*
X100555238Y-97744761D01*
X100650476Y-97792380D01*
X100698095Y-97792380D01*
X100793333Y-97744761D01*
X100840952Y-97649523D01*
X100840952Y-97506666D01*
X100888571Y-97411428D01*
X100983809Y-97363809D01*
X101031428Y-97363809D01*
X101126666Y-97411428D01*
X101174285Y-97506666D01*
X101174285Y-97649523D01*
X101126666Y-97744761D01*
X100507619Y-98363809D02*
X100555238Y-98268571D01*
X100602857Y-98220952D01*
X100698095Y-98173333D01*
X100983809Y-98173333D01*
X101079047Y-98220952D01*
X101126666Y-98268571D01*
X101174285Y-98363809D01*
X101174285Y-98506666D01*
X101126666Y-98601904D01*
X101079047Y-98649523D01*
X100983809Y-98697142D01*
X100698095Y-98697142D01*
X100602857Y-98649523D01*
X100555238Y-98601904D01*
X100507619Y-98506666D01*
X100507619Y-98363809D01*
X100507619Y-99125714D02*
X101174285Y-99125714D01*
X100983809Y-99125714D02*
X101079047Y-99173333D01*
X101126666Y-99220952D01*
X101174285Y-99316190D01*
X101174285Y-99411428D01*
X146838571Y-97644285D02*
X146838571Y-97310952D01*
X147362380Y-97168095D02*
X147362380Y-97644285D01*
X146362380Y-97644285D01*
X146362380Y-97168095D01*
X146695714Y-96739523D02*
X147362380Y-96739523D01*
X146790952Y-96739523D02*
X146743333Y-96691904D01*
X146695714Y-96596666D01*
X146695714Y-96453809D01*
X146743333Y-96358571D01*
X146838571Y-96310952D01*
X147362380Y-96310952D01*
X147362380Y-95406190D02*
X146362380Y-95406190D01*
X147314761Y-95406190D02*
X147362380Y-95501428D01*
X147362380Y-95691904D01*
X147314761Y-95787142D01*
X147267142Y-95834761D01*
X147171904Y-95882380D01*
X146886190Y-95882380D01*
X146790952Y-95834761D01*
X146743333Y-95787142D01*
X146695714Y-95691904D01*
X146695714Y-95501428D01*
X146743333Y-95406190D01*
X147314761Y-94977619D02*
X147362380Y-94882380D01*
X147362380Y-94691904D01*
X147314761Y-94596666D01*
X147219523Y-94549047D01*
X147171904Y-94549047D01*
X147076666Y-94596666D01*
X147029047Y-94691904D01*
X147029047Y-94834761D01*
X146981428Y-94930000D01*
X146886190Y-94977619D01*
X146838571Y-94977619D01*
X146743333Y-94930000D01*
X146695714Y-94834761D01*
X146695714Y-94691904D01*
X146743333Y-94596666D01*
X146695714Y-94263333D02*
X146695714Y-93882380D01*
X146362380Y-94120476D02*
X147219523Y-94120476D01*
X147314761Y-94072857D01*
X147362380Y-93977619D01*
X147362380Y-93882380D01*
X147362380Y-93406190D02*
X147314761Y-93501428D01*
X147267142Y-93549047D01*
X147171904Y-93596666D01*
X146886190Y-93596666D01*
X146790952Y-93549047D01*
X146743333Y-93501428D01*
X146695714Y-93406190D01*
X146695714Y-93263333D01*
X146743333Y-93168095D01*
X146790952Y-93120476D01*
X146886190Y-93072857D01*
X147171904Y-93072857D01*
X147267142Y-93120476D01*
X147314761Y-93168095D01*
X147362380Y-93263333D01*
X147362380Y-93406190D01*
X146695714Y-92644285D02*
X147695714Y-92644285D01*
X146743333Y-92644285D02*
X146695714Y-92549047D01*
X146695714Y-92358571D01*
X146743333Y-92263333D01*
X146790952Y-92215714D01*
X146886190Y-92168095D01*
X147171904Y-92168095D01*
X147267142Y-92215714D01*
X147314761Y-92263333D01*
X147362380Y-92358571D01*
X147362380Y-92549047D01*
X147314761Y-92644285D01*
X148395714Y-95168095D02*
X149062380Y-95168095D01*
X148395714Y-95596666D02*
X148919523Y-95596666D01*
X149014761Y-95549047D01*
X149062380Y-95453809D01*
X149062380Y-95310952D01*
X149014761Y-95215714D01*
X148967142Y-95168095D01*
X148395714Y-94691904D02*
X149395714Y-94691904D01*
X148443333Y-94691904D02*
X148395714Y-94596666D01*
X148395714Y-94406190D01*
X148443333Y-94310952D01*
X148490952Y-94263333D01*
X148586190Y-94215714D01*
X148871904Y-94215714D01*
X148967142Y-94263333D01*
X149014761Y-94310952D01*
X149062380Y-94406190D01*
X149062380Y-94596666D01*
X149014761Y-94691904D01*
X146888571Y-86744285D02*
X146888571Y-86410952D01*
X147412380Y-86268095D02*
X147412380Y-86744285D01*
X146412380Y-86744285D01*
X146412380Y-86268095D01*
X146745714Y-85839523D02*
X147412380Y-85839523D01*
X146840952Y-85839523D02*
X146793333Y-85791904D01*
X146745714Y-85696666D01*
X146745714Y-85553809D01*
X146793333Y-85458571D01*
X146888571Y-85410952D01*
X147412380Y-85410952D01*
X147412380Y-84506190D02*
X146412380Y-84506190D01*
X147364761Y-84506190D02*
X147412380Y-84601428D01*
X147412380Y-84791904D01*
X147364761Y-84887142D01*
X147317142Y-84934761D01*
X147221904Y-84982380D01*
X146936190Y-84982380D01*
X146840952Y-84934761D01*
X146793333Y-84887142D01*
X146745714Y-84791904D01*
X146745714Y-84601428D01*
X146793333Y-84506190D01*
X147364761Y-84077619D02*
X147412380Y-83982380D01*
X147412380Y-83791904D01*
X147364761Y-83696666D01*
X147269523Y-83649047D01*
X147221904Y-83649047D01*
X147126666Y-83696666D01*
X147079047Y-83791904D01*
X147079047Y-83934761D01*
X147031428Y-84030000D01*
X146936190Y-84077619D01*
X146888571Y-84077619D01*
X146793333Y-84030000D01*
X146745714Y-83934761D01*
X146745714Y-83791904D01*
X146793333Y-83696666D01*
X146745714Y-83363333D02*
X146745714Y-82982380D01*
X146412380Y-83220476D02*
X147269523Y-83220476D01*
X147364761Y-83172857D01*
X147412380Y-83077619D01*
X147412380Y-82982380D01*
X147412380Y-82506190D02*
X147364761Y-82601428D01*
X147317142Y-82649047D01*
X147221904Y-82696666D01*
X146936190Y-82696666D01*
X146840952Y-82649047D01*
X146793333Y-82601428D01*
X146745714Y-82506190D01*
X146745714Y-82363333D01*
X146793333Y-82268095D01*
X146840952Y-82220476D01*
X146936190Y-82172857D01*
X147221904Y-82172857D01*
X147317142Y-82220476D01*
X147364761Y-82268095D01*
X147412380Y-82363333D01*
X147412380Y-82506190D01*
X146745714Y-81744285D02*
X147745714Y-81744285D01*
X146793333Y-81744285D02*
X146745714Y-81649047D01*
X146745714Y-81458571D01*
X146793333Y-81363333D01*
X146840952Y-81315714D01*
X146936190Y-81268095D01*
X147221904Y-81268095D01*
X147317142Y-81315714D01*
X147364761Y-81363333D01*
X147412380Y-81458571D01*
X147412380Y-81649047D01*
X147364761Y-81744285D01*
X149112380Y-85244285D02*
X148112380Y-85244285D01*
X149064761Y-85244285D02*
X149112380Y-85339523D01*
X149112380Y-85530000D01*
X149064761Y-85625238D01*
X149017142Y-85672857D01*
X148921904Y-85720476D01*
X148636190Y-85720476D01*
X148540952Y-85672857D01*
X148493333Y-85625238D01*
X148445714Y-85530000D01*
X148445714Y-85339523D01*
X148493333Y-85244285D01*
X149112380Y-84625238D02*
X149064761Y-84720476D01*
X149017142Y-84768095D01*
X148921904Y-84815714D01*
X148636190Y-84815714D01*
X148540952Y-84768095D01*
X148493333Y-84720476D01*
X148445714Y-84625238D01*
X148445714Y-84482380D01*
X148493333Y-84387142D01*
X148540952Y-84339523D01*
X148636190Y-84291904D01*
X148921904Y-84291904D01*
X149017142Y-84339523D01*
X149064761Y-84387142D01*
X149112380Y-84482380D01*
X149112380Y-84625238D01*
X148445714Y-83958571D02*
X149112380Y-83768095D01*
X148636190Y-83577619D01*
X149112380Y-83387142D01*
X148445714Y-83196666D01*
X148445714Y-82815714D02*
X149112380Y-82815714D01*
X148540952Y-82815714D02*
X148493333Y-82768095D01*
X148445714Y-82672857D01*
X148445714Y-82530000D01*
X148493333Y-82434761D01*
X148588571Y-82387142D01*
X149112380Y-82387142D01*
D11*
X147607142Y-75481428D02*
X147607142Y-74338571D01*
X147068571Y-69887142D02*
X148211428Y-69887142D01*
X147640000Y-70458571D02*
X147640000Y-69315714D01*
D10*
%TO.C,J1*%
X112210000Y-67420000D02*
X113480000Y-67420000D01*
X112210000Y-77580000D02*
X113480000Y-77580000D01*
X103320000Y-67420000D02*
X104590000Y-67420000D01*
X103320000Y-67420000D02*
X103320000Y-77580000D01*
X112210000Y-77580000D02*
X103320000Y-77580000D01*
X104590000Y-67420000D02*
X112210000Y-67420000D01*
X113480000Y-67420000D02*
X113480000Y-77580000D01*
%TO.C,J2*%
X113480000Y-78620000D02*
X113480000Y-88780000D01*
X104590000Y-78620000D02*
X112210000Y-78620000D01*
X112210000Y-88780000D02*
X103320000Y-88780000D01*
X103320000Y-78620000D02*
X103320000Y-88780000D01*
X103320000Y-78620000D02*
X104590000Y-78620000D01*
X112210000Y-88780000D02*
X113480000Y-88780000D01*
X112210000Y-78620000D02*
X113480000Y-78620000D01*
%TO.C,J3*%
X112210000Y-89820000D02*
X113480000Y-89820000D01*
X112210000Y-99980000D02*
X113480000Y-99980000D01*
X103320000Y-89820000D02*
X104590000Y-89820000D01*
X103320000Y-89820000D02*
X103320000Y-99980000D01*
X112210000Y-99980000D02*
X103320000Y-99980000D01*
X104590000Y-89820000D02*
X112210000Y-89820000D01*
X113480000Y-89820000D02*
X113480000Y-99980000D01*
%TO.C,J4*%
X135620000Y-88780000D02*
X135620000Y-78620000D01*
X144510000Y-88780000D02*
X136890000Y-88780000D01*
X136890000Y-78620000D02*
X145780000Y-78620000D01*
X145780000Y-88780000D02*
X145780000Y-78620000D01*
X145780000Y-88780000D02*
X144510000Y-88780000D01*
X136890000Y-78620000D02*
X135620000Y-78620000D01*
X136890000Y-88780000D02*
X135620000Y-88780000D01*
%TO.C,J6*%
X136890000Y-99980000D02*
X135620000Y-99980000D01*
X136890000Y-89820000D02*
X135620000Y-89820000D01*
X145780000Y-99980000D02*
X144510000Y-99980000D01*
X145780000Y-99980000D02*
X145780000Y-89820000D01*
X136890000Y-89820000D02*
X145780000Y-89820000D01*
X144510000Y-99980000D02*
X136890000Y-99980000D01*
X135620000Y-99980000D02*
X135620000Y-89820000D01*
%TO.C,J8*%
X135620000Y-77580000D02*
X135620000Y-67420000D01*
X144510000Y-77580000D02*
X136890000Y-77580000D01*
X136890000Y-67420000D02*
X145780000Y-67420000D01*
X145780000Y-77580000D02*
X145780000Y-67420000D01*
X145780000Y-77580000D02*
X144510000Y-77580000D01*
X136890000Y-67420000D02*
X135620000Y-67420000D01*
X136890000Y-77580000D02*
X135620000Y-77580000D01*
D13*
%TO.C,R1*%
X121833922Y-69290000D02*
X122351078Y-69290000D01*
X121833922Y-70710000D02*
X122351078Y-70710000D01*
%TO.C,R2*%
X121848922Y-71820000D02*
X122366078Y-71820000D01*
X121848922Y-73240000D02*
X122366078Y-73240000D01*
%TO.C,U1*%
X114070000Y-62250000D02*
X114070000Y-63500000D01*
X114070000Y-63500000D02*
X134510000Y-63500000D01*
X134510000Y-63500000D02*
X134510000Y-59000000D01*
X134510000Y-59000000D02*
X114070000Y-59000000D01*
X114070000Y-59000000D02*
X114070000Y-60250000D01*
X114010000Y-66500000D02*
X134570000Y-66500000D01*
X134570000Y-66500000D02*
X134570000Y-56000000D01*
X134570000Y-56000000D02*
X114010000Y-56000000D01*
X114010000Y-56000000D02*
X114010000Y-66500000D01*
X114070000Y-60250000D02*
G75*
G02*
X114070000Y-62250000I0J-1000000D01*
G01*
D14*
%TO.C,L1*%
G36*
X123471381Y-85289100D02*
G01*
X123623386Y-85658924D01*
X123757264Y-85984515D01*
X123874174Y-86268633D01*
X123975278Y-86514041D01*
X124061737Y-86723499D01*
X124134711Y-86899770D01*
X124195363Y-87045616D01*
X124244851Y-87163797D01*
X124284338Y-87257075D01*
X124314984Y-87328213D01*
X124337950Y-87379971D01*
X124354396Y-87415112D01*
X124365485Y-87436396D01*
X124372376Y-87446587D01*
X124376230Y-87448444D01*
X124377928Y-87445722D01*
X124385646Y-87417214D01*
X124404936Y-87344457D01*
X124434510Y-87232350D01*
X124473082Y-87085788D01*
X124519363Y-86909669D01*
X124572065Y-86708890D01*
X124629902Y-86488348D01*
X124691228Y-86254300D01*
X124753146Y-86018049D01*
X124811433Y-85795943D01*
X124864768Y-85592998D01*
X124911829Y-85414231D01*
X124951294Y-85264657D01*
X124981842Y-85149293D01*
X125002149Y-85073155D01*
X125010837Y-85041450D01*
X125018769Y-85027274D01*
X125036872Y-85016459D01*
X125071277Y-85008556D01*
X125128118Y-85003117D01*
X125213526Y-84999692D01*
X125333635Y-84997834D01*
X125494576Y-84997094D01*
X125618632Y-84997000D01*
X126212841Y-84997000D01*
X126241641Y-85104950D01*
X126263784Y-85186533D01*
X126296209Y-85304059D01*
X126337245Y-85451612D01*
X126385221Y-85623277D01*
X126438465Y-85813139D01*
X126495305Y-86015282D01*
X126554071Y-86223791D01*
X126613091Y-86432750D01*
X126670694Y-86636245D01*
X126725207Y-86828359D01*
X126774961Y-87003178D01*
X126818283Y-87154787D01*
X126853502Y-87277269D01*
X126878946Y-87364710D01*
X126892945Y-87411195D01*
X126894819Y-87416665D01*
X126906906Y-87408721D01*
X126933630Y-87360347D01*
X126975440Y-87270483D01*
X127032789Y-87138068D01*
X127106128Y-86962041D01*
X127195909Y-86741341D01*
X127302583Y-86474909D01*
X127397449Y-86235565D01*
X127881598Y-85009700D01*
X128383583Y-85002806D01*
X128555009Y-85000704D01*
X128681991Y-85000109D01*
X128770874Y-85001520D01*
X128828005Y-85005440D01*
X128859728Y-85012368D01*
X128872391Y-85022805D01*
X128872339Y-85037253D01*
X128871169Y-85041280D01*
X128859374Y-85071561D01*
X128829726Y-85145060D01*
X128783755Y-85258043D01*
X128722993Y-85406773D01*
X128648972Y-85587513D01*
X128563224Y-85796528D01*
X128467280Y-86030081D01*
X128362671Y-86284435D01*
X128250931Y-86555856D01*
X128133589Y-86840606D01*
X128123831Y-86864274D01*
X127390893Y-88641900D01*
X126871155Y-88648750D01*
X126351417Y-88655601D01*
X126012299Y-87429550D01*
X125945101Y-87187102D01*
X125881351Y-86958057D01*
X125822448Y-86747374D01*
X125769791Y-86560013D01*
X125724779Y-86400932D01*
X125688811Y-86275091D01*
X125663286Y-86187448D01*
X125649601Y-86142962D01*
X125648534Y-86140000D01*
X125641163Y-86132860D01*
X125630459Y-86144693D01*
X125615475Y-86178831D01*
X125595263Y-86238607D01*
X125568875Y-86327355D01*
X125535364Y-86448408D01*
X125493781Y-86605101D01*
X125443179Y-86800765D01*
X125382610Y-87038736D01*
X125311126Y-87322345D01*
X125301871Y-87359200D01*
X124979854Y-88641900D01*
X124382663Y-88648698D01*
X123785472Y-88655497D01*
X123701614Y-88432798D01*
X123667963Y-88344299D01*
X123619694Y-88218541D01*
X123560689Y-88065575D01*
X123494828Y-87895454D01*
X123425994Y-87718232D01*
X123390038Y-87625900D01*
X123319512Y-87444897D01*
X123248295Y-87261988D01*
X123180675Y-87088198D01*
X123120941Y-86934553D01*
X123073384Y-86812079D01*
X123056609Y-86768811D01*
X122950900Y-86495922D01*
X122785800Y-86495676D01*
X122700434Y-86494497D01*
X122578433Y-86491425D01*
X122433910Y-86486878D01*
X122280977Y-86481277D01*
X122225156Y-86479024D01*
X121829612Y-86462618D01*
X121585592Y-87031559D01*
X121341573Y-87600500D01*
X120807777Y-87607351D01*
X120273982Y-87614202D01*
X120391128Y-87361066D01*
X120675330Y-87361066D01*
X120923313Y-87353783D01*
X121171297Y-87346500D01*
X121654725Y-86216200D01*
X122264712Y-86216420D01*
X122443989Y-86217129D01*
X122613659Y-86218996D01*
X122764684Y-86221829D01*
X122888029Y-86225435D01*
X122974658Y-86229623D01*
X123003709Y-86232144D01*
X123132718Y-86247647D01*
X123193330Y-86409723D01*
X123225915Y-86490846D01*
X123253554Y-86548980D01*
X123270367Y-86571788D01*
X123270566Y-86571800D01*
X123283759Y-86549033D01*
X123301434Y-86489786D01*
X123317173Y-86419400D01*
X123336157Y-86339473D01*
X123355495Y-86284292D01*
X123368949Y-86266999D01*
X123398063Y-86282000D01*
X123454332Y-86321503D01*
X123526076Y-86377261D01*
X123532771Y-86382695D01*
X123601209Y-86436000D01*
X123651237Y-86470298D01*
X123673354Y-86479167D01*
X123673680Y-86477945D01*
X123664079Y-86451169D01*
X123636925Y-86381887D01*
X123594024Y-86274563D01*
X123537184Y-86133657D01*
X123468210Y-85963630D01*
X123388910Y-85768943D01*
X123301092Y-85554059D01*
X123206561Y-85323439D01*
X123171596Y-85238300D01*
X122670632Y-84019100D01*
X122214300Y-84005676D01*
X121479486Y-85612588D01*
X121355917Y-85882740D01*
X121237886Y-86140650D01*
X121127194Y-86382386D01*
X121025643Y-86604020D01*
X120935037Y-86801623D01*
X120857176Y-86971265D01*
X120793864Y-87109016D01*
X120746903Y-87210947D01*
X120718095Y-87273129D01*
X120710001Y-87290283D01*
X120675330Y-87361066D01*
X120391128Y-87361066D01*
X120424085Y-87289851D01*
X120460512Y-87210948D01*
X120515925Y-87090658D01*
X120588125Y-86933766D01*
X120674913Y-86745056D01*
X120774091Y-86529311D01*
X120883458Y-86291317D01*
X121000816Y-86035858D01*
X121123965Y-85767718D01*
X121250706Y-85491682D01*
X121308723Y-85365300D01*
X122043256Y-83765100D01*
X122845058Y-83765100D01*
X123471381Y-85289100D01*
G37*
X123471381Y-85289100D02*
X123623386Y-85658924D01*
X123757264Y-85984515D01*
X123874174Y-86268633D01*
X123975278Y-86514041D01*
X124061737Y-86723499D01*
X124134711Y-86899770D01*
X124195363Y-87045616D01*
X124244851Y-87163797D01*
X124284338Y-87257075D01*
X124314984Y-87328213D01*
X124337950Y-87379971D01*
X124354396Y-87415112D01*
X124365485Y-87436396D01*
X124372376Y-87446587D01*
X124376230Y-87448444D01*
X124377928Y-87445722D01*
X124385646Y-87417214D01*
X124404936Y-87344457D01*
X124434510Y-87232350D01*
X124473082Y-87085788D01*
X124519363Y-86909669D01*
X124572065Y-86708890D01*
X124629902Y-86488348D01*
X124691228Y-86254300D01*
X124753146Y-86018049D01*
X124811433Y-85795943D01*
X124864768Y-85592998D01*
X124911829Y-85414231D01*
X124951294Y-85264657D01*
X124981842Y-85149293D01*
X125002149Y-85073155D01*
X125010837Y-85041450D01*
X125018769Y-85027274D01*
X125036872Y-85016459D01*
X125071277Y-85008556D01*
X125128118Y-85003117D01*
X125213526Y-84999692D01*
X125333635Y-84997834D01*
X125494576Y-84997094D01*
X125618632Y-84997000D01*
X126212841Y-84997000D01*
X126241641Y-85104950D01*
X126263784Y-85186533D01*
X126296209Y-85304059D01*
X126337245Y-85451612D01*
X126385221Y-85623277D01*
X126438465Y-85813139D01*
X126495305Y-86015282D01*
X126554071Y-86223791D01*
X126613091Y-86432750D01*
X126670694Y-86636245D01*
X126725207Y-86828359D01*
X126774961Y-87003178D01*
X126818283Y-87154787D01*
X126853502Y-87277269D01*
X126878946Y-87364710D01*
X126892945Y-87411195D01*
X126894819Y-87416665D01*
X126906906Y-87408721D01*
X126933630Y-87360347D01*
X126975440Y-87270483D01*
X127032789Y-87138068D01*
X127106128Y-86962041D01*
X127195909Y-86741341D01*
X127302583Y-86474909D01*
X127397449Y-86235565D01*
X127881598Y-85009700D01*
X128383583Y-85002806D01*
X128555009Y-85000704D01*
X128681991Y-85000109D01*
X128770874Y-85001520D01*
X128828005Y-85005440D01*
X128859728Y-85012368D01*
X128872391Y-85022805D01*
X128872339Y-85037253D01*
X128871169Y-85041280D01*
X128859374Y-85071561D01*
X128829726Y-85145060D01*
X128783755Y-85258043D01*
X128722993Y-85406773D01*
X128648972Y-85587513D01*
X128563224Y-85796528D01*
X128467280Y-86030081D01*
X128362671Y-86284435D01*
X128250931Y-86555856D01*
X128133589Y-86840606D01*
X128123831Y-86864274D01*
X127390893Y-88641900D01*
X126871155Y-88648750D01*
X126351417Y-88655601D01*
X126012299Y-87429550D01*
X125945101Y-87187102D01*
X125881351Y-86958057D01*
X125822448Y-86747374D01*
X125769791Y-86560013D01*
X125724779Y-86400932D01*
X125688811Y-86275091D01*
X125663286Y-86187448D01*
X125649601Y-86142962D01*
X125648534Y-86140000D01*
X125641163Y-86132860D01*
X125630459Y-86144693D01*
X125615475Y-86178831D01*
X125595263Y-86238607D01*
X125568875Y-86327355D01*
X125535364Y-86448408D01*
X125493781Y-86605101D01*
X125443179Y-86800765D01*
X125382610Y-87038736D01*
X125311126Y-87322345D01*
X125301871Y-87359200D01*
X124979854Y-88641900D01*
X124382663Y-88648698D01*
X123785472Y-88655497D01*
X123701614Y-88432798D01*
X123667963Y-88344299D01*
X123619694Y-88218541D01*
X123560689Y-88065575D01*
X123494828Y-87895454D01*
X123425994Y-87718232D01*
X123390038Y-87625900D01*
X123319512Y-87444897D01*
X123248295Y-87261988D01*
X123180675Y-87088198D01*
X123120941Y-86934553D01*
X123073384Y-86812079D01*
X123056609Y-86768811D01*
X122950900Y-86495922D01*
X122785800Y-86495676D01*
X122700434Y-86494497D01*
X122578433Y-86491425D01*
X122433910Y-86486878D01*
X122280977Y-86481277D01*
X122225156Y-86479024D01*
X121829612Y-86462618D01*
X121585592Y-87031559D01*
X121341573Y-87600500D01*
X120807777Y-87607351D01*
X120273982Y-87614202D01*
X120391128Y-87361066D01*
X120675330Y-87361066D01*
X120923313Y-87353783D01*
X121171297Y-87346500D01*
X121654725Y-86216200D01*
X122264712Y-86216420D01*
X122443989Y-86217129D01*
X122613659Y-86218996D01*
X122764684Y-86221829D01*
X122888029Y-86225435D01*
X122974658Y-86229623D01*
X123003709Y-86232144D01*
X123132718Y-86247647D01*
X123193330Y-86409723D01*
X123225915Y-86490846D01*
X123253554Y-86548980D01*
X123270367Y-86571788D01*
X123270566Y-86571800D01*
X123283759Y-86549033D01*
X123301434Y-86489786D01*
X123317173Y-86419400D01*
X123336157Y-86339473D01*
X123355495Y-86284292D01*
X123368949Y-86266999D01*
X123398063Y-86282000D01*
X123454332Y-86321503D01*
X123526076Y-86377261D01*
X123532771Y-86382695D01*
X123601209Y-86436000D01*
X123651237Y-86470298D01*
X123673354Y-86479167D01*
X123673680Y-86477945D01*
X123664079Y-86451169D01*
X123636925Y-86381887D01*
X123594024Y-86274563D01*
X123537184Y-86133657D01*
X123468210Y-85963630D01*
X123388910Y-85768943D01*
X123301092Y-85554059D01*
X123206561Y-85323439D01*
X123171596Y-85238300D01*
X122670632Y-84019100D01*
X122214300Y-84005676D01*
X121479486Y-85612588D01*
X121355917Y-85882740D01*
X121237886Y-86140650D01*
X121127194Y-86382386D01*
X121025643Y-86604020D01*
X120935037Y-86801623D01*
X120857176Y-86971265D01*
X120793864Y-87109016D01*
X120746903Y-87210947D01*
X120718095Y-87273129D01*
X120710001Y-87290283D01*
X120675330Y-87361066D01*
X120391128Y-87361066D01*
X120424085Y-87289851D01*
X120460512Y-87210948D01*
X120515925Y-87090658D01*
X120588125Y-86933766D01*
X120674913Y-86745056D01*
X120774091Y-86529311D01*
X120883458Y-86291317D01*
X121000816Y-86035858D01*
X121123965Y-85767718D01*
X121250706Y-85491682D01*
X121308723Y-85365300D01*
X122043256Y-83765100D01*
X122845058Y-83765100D01*
X123471381Y-85289100D01*
G36*
X122461512Y-84500062D02*
G01*
X122488388Y-84564859D01*
X122528039Y-84662340D01*
X122577562Y-84785204D01*
X122634055Y-84926155D01*
X122694616Y-85077893D01*
X122756341Y-85233121D01*
X122816328Y-85384538D01*
X122871674Y-85524848D01*
X122919477Y-85646751D01*
X122956834Y-85742950D01*
X122980842Y-85806144D01*
X122988644Y-85828850D01*
X122964531Y-85830656D01*
X122896704Y-85832263D01*
X122792251Y-85833592D01*
X122658259Y-85834568D01*
X122501815Y-85835112D01*
X122405120Y-85835200D01*
X121821240Y-85835200D01*
X121880259Y-85701850D01*
X121948043Y-85549450D01*
X122233990Y-85549450D01*
X122241064Y-85566336D01*
X122282818Y-85576404D01*
X122365783Y-85580784D01*
X122417500Y-85581200D01*
X122515885Y-85580107D01*
X122572729Y-85575292D01*
X122597269Y-85564452D01*
X122598744Y-85545283D01*
X122595748Y-85536750D01*
X122578268Y-85491447D01*
X122549235Y-85414887D01*
X122514846Y-85323409D01*
X122513888Y-85320850D01*
X122480108Y-85237128D01*
X122450815Y-85176067D01*
X122431835Y-85149671D01*
X122430657Y-85149400D01*
X122413440Y-85170826D01*
X122381789Y-85227470D01*
X122341334Y-85307879D01*
X122297706Y-85400601D01*
X122256533Y-85494184D01*
X122233990Y-85549450D01*
X121948043Y-85549450D01*
X121979164Y-85479483D01*
X122074196Y-85267925D01*
X122163206Y-85071799D01*
X122244044Y-84895730D01*
X122314563Y-84744342D01*
X122372613Y-84622258D01*
X122416044Y-84534103D01*
X122442709Y-84484500D01*
X122450314Y-84475247D01*
X122461512Y-84500062D01*
G37*
X122461512Y-84500062D02*
X122488388Y-84564859D01*
X122528039Y-84662340D01*
X122577562Y-84785204D01*
X122634055Y-84926155D01*
X122694616Y-85077893D01*
X122756341Y-85233121D01*
X122816328Y-85384538D01*
X122871674Y-85524848D01*
X122919477Y-85646751D01*
X122956834Y-85742950D01*
X122980842Y-85806144D01*
X122988644Y-85828850D01*
X122964531Y-85830656D01*
X122896704Y-85832263D01*
X122792251Y-85833592D01*
X122658259Y-85834568D01*
X122501815Y-85835112D01*
X122405120Y-85835200D01*
X121821240Y-85835200D01*
X121880259Y-85701850D01*
X121948043Y-85549450D01*
X122233990Y-85549450D01*
X122241064Y-85566336D01*
X122282818Y-85576404D01*
X122365783Y-85580784D01*
X122417500Y-85581200D01*
X122515885Y-85580107D01*
X122572729Y-85575292D01*
X122597269Y-85564452D01*
X122598744Y-85545283D01*
X122595748Y-85536750D01*
X122578268Y-85491447D01*
X122549235Y-85414887D01*
X122514846Y-85323409D01*
X122513888Y-85320850D01*
X122480108Y-85237128D01*
X122450815Y-85176067D01*
X122431835Y-85149671D01*
X122430657Y-85149400D01*
X122413440Y-85170826D01*
X122381789Y-85227470D01*
X122341334Y-85307879D01*
X122297706Y-85400601D01*
X122256533Y-85494184D01*
X122233990Y-85549450D01*
X121948043Y-85549450D01*
X121979164Y-85479483D01*
X122074196Y-85267925D01*
X122163206Y-85071799D01*
X122244044Y-84895730D01*
X122314563Y-84744342D01*
X122372613Y-84622258D01*
X122416044Y-84534103D01*
X122442709Y-84484500D01*
X122450314Y-84475247D01*
X122461512Y-84500062D01*
D13*
%TO.C,J5*%
X115670000Y-75270000D02*
X118330000Y-75270000D01*
X115670000Y-75270000D02*
X115670000Y-103270000D01*
X115670000Y-103270000D02*
X118330000Y-103270000D01*
X118330000Y-75270000D02*
X118330000Y-103270000D01*
X118330000Y-72670000D02*
X118330000Y-74000000D01*
X117000000Y-72670000D02*
X118330000Y-72670000D01*
%TO.C,J7*%
X132200000Y-72670000D02*
X133530000Y-72670000D01*
X133530000Y-72670000D02*
X133530000Y-74000000D01*
X133530000Y-75270000D02*
X133530000Y-103270000D01*
X130870000Y-103270000D02*
X133530000Y-103270000D01*
X130870000Y-75270000D02*
X130870000Y-103270000D01*
X130870000Y-75270000D02*
X133530000Y-75270000D01*
%TO.C,J1*%
D10*
X108026666Y-71862380D02*
X108026666Y-72576666D01*
X107979047Y-72719523D01*
X107883809Y-72814761D01*
X107740952Y-72862380D01*
X107645714Y-72862380D01*
X109026666Y-72862380D02*
X108455238Y-72862380D01*
X108740952Y-72862380D02*
X108740952Y-71862380D01*
X108645714Y-72005238D01*
X108550476Y-72100476D01*
X108455238Y-72148095D01*
%TO.C,J2*%
X107956666Y-83102380D02*
X107956666Y-83816666D01*
X107909047Y-83959523D01*
X107813809Y-84054761D01*
X107670952Y-84102380D01*
X107575714Y-84102380D01*
X108385238Y-83197619D02*
X108432857Y-83150000D01*
X108528095Y-83102380D01*
X108766190Y-83102380D01*
X108861428Y-83150000D01*
X108909047Y-83197619D01*
X108956666Y-83292857D01*
X108956666Y-83388095D01*
X108909047Y-83530952D01*
X108337619Y-84102380D01*
X108956666Y-84102380D01*
%TO.C,J3*%
X108076666Y-94172380D02*
X108076666Y-94886666D01*
X108029047Y-95029523D01*
X107933809Y-95124761D01*
X107790952Y-95172380D01*
X107695714Y-95172380D01*
X108457619Y-94172380D02*
X109076666Y-94172380D01*
X108743333Y-94553333D01*
X108886190Y-94553333D01*
X108981428Y-94600952D01*
X109029047Y-94648571D01*
X109076666Y-94743809D01*
X109076666Y-94981904D01*
X109029047Y-95077142D01*
X108981428Y-95124761D01*
X108886190Y-95172380D01*
X108600476Y-95172380D01*
X108505238Y-95124761D01*
X108457619Y-95077142D01*
%TO.C,J4*%
X140376666Y-83152380D02*
X140376666Y-83866666D01*
X140329047Y-84009523D01*
X140233809Y-84104761D01*
X140090952Y-84152380D01*
X139995714Y-84152380D01*
X141281428Y-83485714D02*
X141281428Y-84152380D01*
X141043333Y-83104761D02*
X140805238Y-83819047D01*
X141424285Y-83819047D01*
%TO.C,J6*%
X140276666Y-94422380D02*
X140276666Y-95136666D01*
X140229047Y-95279523D01*
X140133809Y-95374761D01*
X139990952Y-95422380D01*
X139895714Y-95422380D01*
X141181428Y-94422380D02*
X140990952Y-94422380D01*
X140895714Y-94470000D01*
X140848095Y-94517619D01*
X140752857Y-94660476D01*
X140705238Y-94850952D01*
X140705238Y-95231904D01*
X140752857Y-95327142D01*
X140800476Y-95374761D01*
X140895714Y-95422380D01*
X141086190Y-95422380D01*
X141181428Y-95374761D01*
X141229047Y-95327142D01*
X141276666Y-95231904D01*
X141276666Y-94993809D01*
X141229047Y-94898571D01*
X141181428Y-94850952D01*
X141086190Y-94803333D01*
X140895714Y-94803333D01*
X140800476Y-94850952D01*
X140752857Y-94898571D01*
X140705238Y-94993809D01*
%TO.C,J8*%
X140366666Y-71982380D02*
X140366666Y-72696666D01*
X140319047Y-72839523D01*
X140223809Y-72934761D01*
X140080952Y-72982380D01*
X139985714Y-72982380D01*
X140985714Y-72410952D02*
X140890476Y-72363333D01*
X140842857Y-72315714D01*
X140795238Y-72220476D01*
X140795238Y-72172857D01*
X140842857Y-72077619D01*
X140890476Y-72030000D01*
X140985714Y-71982380D01*
X141176190Y-71982380D01*
X141271428Y-72030000D01*
X141319047Y-72077619D01*
X141366666Y-72172857D01*
X141366666Y-72220476D01*
X141319047Y-72315714D01*
X141271428Y-72363333D01*
X141176190Y-72410952D01*
X140985714Y-72410952D01*
X140890476Y-72458571D01*
X140842857Y-72506190D01*
X140795238Y-72601428D01*
X140795238Y-72791904D01*
X140842857Y-72887142D01*
X140890476Y-72934761D01*
X140985714Y-72982380D01*
X141176190Y-72982380D01*
X141271428Y-72934761D01*
X141319047Y-72887142D01*
X141366666Y-72791904D01*
X141366666Y-72601428D01*
X141319047Y-72506190D01*
X141271428Y-72458571D01*
X141176190Y-72410952D01*
%TO.C,JP1*%
X109326666Y-57442380D02*
X109326666Y-58156666D01*
X109279047Y-58299523D01*
X109183809Y-58394761D01*
X109040952Y-58442380D01*
X108945714Y-58442380D01*
X109802857Y-58442380D02*
X109802857Y-57442380D01*
X110183809Y-57442380D01*
X110279047Y-57490000D01*
X110326666Y-57537619D01*
X110374285Y-57632857D01*
X110374285Y-57775714D01*
X110326666Y-57870952D01*
X110279047Y-57918571D01*
X110183809Y-57966190D01*
X109802857Y-57966190D01*
X111326666Y-58442380D02*
X110755238Y-58442380D01*
X111040952Y-58442380D02*
X111040952Y-57442380D01*
X110945714Y-57585238D01*
X110850476Y-57680476D01*
X110755238Y-57728095D01*
%TO.C,R1*%
X124683333Y-70452380D02*
X124350000Y-69976190D01*
X124111904Y-70452380D02*
X124111904Y-69452380D01*
X124492857Y-69452380D01*
X124588095Y-69500000D01*
X124635714Y-69547619D01*
X124683333Y-69642857D01*
X124683333Y-69785714D01*
X124635714Y-69880952D01*
X124588095Y-69928571D01*
X124492857Y-69976190D01*
X124111904Y-69976190D01*
X125635714Y-70452380D02*
X125064285Y-70452380D01*
X125350000Y-70452380D02*
X125350000Y-69452380D01*
X125254761Y-69595238D01*
X125159523Y-69690476D01*
X125064285Y-69738095D01*
%TO.C,R2*%
X124713333Y-72992380D02*
X124380000Y-72516190D01*
X124141904Y-72992380D02*
X124141904Y-71992380D01*
X124522857Y-71992380D01*
X124618095Y-72040000D01*
X124665714Y-72087619D01*
X124713333Y-72182857D01*
X124713333Y-72325714D01*
X124665714Y-72420952D01*
X124618095Y-72468571D01*
X124522857Y-72516190D01*
X124141904Y-72516190D01*
X125094285Y-72087619D02*
X125141904Y-72040000D01*
X125237142Y-71992380D01*
X125475238Y-71992380D01*
X125570476Y-72040000D01*
X125618095Y-72087619D01*
X125665714Y-72182857D01*
X125665714Y-72278095D01*
X125618095Y-72420952D01*
X125046666Y-72992380D01*
X125665714Y-72992380D01*
%TO.C,U1*%
X112522380Y-62011904D02*
X113331904Y-62011904D01*
X113427142Y-61964285D01*
X113474761Y-61916666D01*
X113522380Y-61821428D01*
X113522380Y-61630952D01*
X113474761Y-61535714D01*
X113427142Y-61488095D01*
X113331904Y-61440476D01*
X112522380Y-61440476D01*
X113522380Y-60440476D02*
X113522380Y-61011904D01*
X113522380Y-60726190D02*
X112522380Y-60726190D01*
X112665238Y-60821428D01*
X112760476Y-60916666D01*
X112808095Y-61011904D01*
%TO.C,J5*%
X116666666Y-70682380D02*
X116666666Y-71396666D01*
X116619047Y-71539523D01*
X116523809Y-71634761D01*
X116380952Y-71682380D01*
X116285714Y-71682380D01*
X117619047Y-70682380D02*
X117142857Y-70682380D01*
X117095238Y-71158571D01*
X117142857Y-71110952D01*
X117238095Y-71063333D01*
X117476190Y-71063333D01*
X117571428Y-71110952D01*
X117619047Y-71158571D01*
X117666666Y-71253809D01*
X117666666Y-71491904D01*
X117619047Y-71587142D01*
X117571428Y-71634761D01*
X117476190Y-71682380D01*
X117238095Y-71682380D01*
X117142857Y-71634761D01*
X117095238Y-71587142D01*
%TO.C,J7*%
X131866666Y-70682380D02*
X131866666Y-71396666D01*
X131819047Y-71539523D01*
X131723809Y-71634761D01*
X131580952Y-71682380D01*
X131485714Y-71682380D01*
X132247619Y-70682380D02*
X132914285Y-70682380D01*
X132485714Y-71682380D01*
%TD*%
M02*
